<?xml version="1.0" encoding="UTF-8" standalone="no"?>
<svg
   xmlns:dc="http://purl.org/dc/elements/1.1/"
   xmlns:cc="http://creativecommons.org/ns#"
   xmlns:rdf="http://www.w3.org/1999/02/22-rdf-syntax-ns#"
   xmlns:svg="http://www.w3.org/2000/svg"
   xmlns="http://www.w3.org/2000/svg"
   xmlns:sodipodi="http://sodipodi.sourceforge.net/DTD/sodipodi-0.dtd"
   xmlns:inkscape="http://www.inkscape.org/namespaces/inkscape"
   width="203.24132mm"
   height="85.654091mm"
   viewBox="0 0 203.24132 85.654091"
   version="1.1"
   id="svg8"
   inkscape:version="1.0.1 (3bc2e813f5, 2020-09-07)"
   sodipodi:docname="pulseOximeter.svg"
   inkscape:export-filename="C:\Users\au646069\github\Cardioception\cardioception\HeartRateDiscrimination\Images\pulseOximeter.png"
   inkscape:export-xdpi="300"
   inkscape:export-ydpi="300">
  <defs
     id="defs2">
    <inkscape:path-effect
       effect="bspline"
       id="path-effect1126"
       is_visible="true"
       lpeversion="1"
       weight="33.333333"
       steps="2"
       helper_size="0"
       apply_no_weight="true"
       apply_with_weight="true"
       only_selected="false" />
    <clipPath
       clipPathUnits="userSpaceOnUse"
       id="clipEmfPath1">
      <path
         d="M 0,0 H 331.95881 V 719.5639 H 0 Z"
         id="path929" />
    </clipPath>
    <pattern
       id="EMFhbasepattern"
       patternUnits="userSpaceOnUse"
       width="6"
       height="6"
       x="0"
       y="0" />
    <clipPath
       clipPathUnits="userSpaceOnUse"
       id="clipEmfPath1-1">
      <path
         d="M 0,0 H 1279.2247 V 590.2023 H 0 Z"
         id="path959" />
    </clipPath>
    <pattern
       id="EMFhbasepattern-1"
       patternUnits="userSpaceOnUse"
       width="6"
       height="6"
       x="0"
       y="0" />
    <clipPath
       clipPathUnits="userSpaceOnUse"
       id="clipEmfPath1-1-8">
      <path
         d="M 0,0 H 1279.2247 V 590.2023 H 0 Z"
         id="path959-4" />
    </clipPath>
  </defs>
  <sodipodi:namedview
     id="base"
     pagecolor="#ffffff"
     bordercolor="#666666"
     borderopacity="1.0"
     inkscape:pageopacity="0.0"
     inkscape:pageshadow="2"
     inkscape:zoom="1.979899"
     inkscape:cx="937.29628"
     inkscape:cy="211.52052"
     inkscape:document-units="mm"
     inkscape:current-layer="g1203"
     inkscape:document-rotation="0"
     showgrid="false"
     fit-margin-top="0"
     fit-margin-left="0"
     fit-margin-right="0"
     fit-margin-bottom="0"
     inkscape:window-width="2560"
     inkscape:window-height="1361"
     inkscape:window-x="-9"
     inkscape:window-y="-9"
     inkscape:window-maximized="1" />
  <metadata
     id="metadata5">
    <rdf:RDF>
      <cc:Work
         rdf:about="">
        <dc:format>image/svg+xml</dc:format>
        <dc:type
           rdf:resource="http://purl.org/dc/dcmitype/StillImage" />
        <dc:title></dc:title>
      </cc:Work>
    </rdf:RDF>
  </metadata>
  <g
     inkscape:label="Layer 1"
     inkscape:groupmode="layer"
     id="layer1"
     style="display:inline"
     transform="translate(-2.5946025,-2.2983094)">
    <g
       id="g950"
       transform="translate(-1865.6905,-54.428572)">
      <g
         id="g1122"
         transform="matrix(0.25632279,0,0,0.25632279,1442.3878,61.977784)">
        <g
           id="g1186"
           transform="matrix(1.2856268,0,0,1.2856268,-492.59792,-94.626102)">
          <path
             id="path956"
             style="display:inline;fill:#f4e3d7;fill-opacity:1;stroke:#333333;stroke-width:0.505938;stroke-miterlimit:4;stroke-dasharray:none;stroke-opacity:1"
             d="m 1887.2431,142.64928 c 0.5463,-2.41657 0.4485,-4.83615 1.2001,-7.22363 0.5819,-2.5018 1.7246,-4.99211 0.9218,-7.58894 -2.0966,-3.38498 -3.4543,-7.15958 -4.5678,-10.96632 -1.3075,-2.93534 -2.7586,-5.85969 -5.1468,-8.07154 -2.1087,-1.87821 -3.7566,-4.20231 -5.9619,-5.96643 -2.3779,-0.89426 -1.9964,-5.453478 0.8742,-3.961004 2.7047,1.525194 4.5668,4.143514 7.248,5.695944 1.4246,1.07819 3.5446,3.25061 5.0695,1.07338 0.158,-3.35735 -2.5549,-6.197173 -3.2543,-9.460948 -0.8211,-3.734654 -2.8809,-7.079803 -3.7593,-10.771823 0.2597,-3.609415 4.6639,-2.218047 4.7873,0.719534 1.4891,3.510884 2.943,7.035768 4.8882,10.326863 0.5639,1.304859 1.9084,6.725034 3.2448,3.598694 -0.2084,-3.764946 -2.1211,-7.256586 -1.7717,-11.081387 -0.01,-3.276903 -0.9871,-6.397068 -1.9941,-9.471342 -0.5374,-3.078308 4.2304,-3.235032 4.6088,-0.461393 1.6768,3.799145 2.2926,7.916405 3.3971,11.887676 0.5972,2.721944 0.2276,5.723976 1.4171,8.275422 2.675,1.545284 2.3382,-2.809669 2.2557,-4.40741 -0.089,-3.748207 0.8176,-7.503183 -0.076,-11.215197 -1.4429,-2.757817 1.8624,-6.847533 3.8892,-3.184004 1.024,2.496397 1.192,5.211404 1.3879,7.888306 1.1993,4.587005 -0.3451,9.421359 1.0586,14.000179 0.2805,2.92429 1.5443,6.05264 3.9532,7.83845 2.4755,1.44268 3.6786,-2.04698 4.9609,-3.54091 1.1665,-2.25034 2.4346,-4.53914 4.7481,-5.81365 1.3418,-2.070329 6.7261,-1.920259 4.8784,1.39651 -1.7595,1.50482 -2.6941,3.62634 -3.5926,5.69642 -2.0234,2.9082 -2.7856,6.44746 -4.144,9.65575 -2.2631,2.69254 -3.708,5.90565 -5.4099,8.94449 -2.6241,2.3414 -3.6762,5.93219 -3.6851,9.37421 -0.2942,2.43648 -1.0527,4.80021 -0.9867,7.28973 -6.8128,-0.15854 -13.6256,-0.31709 -20.4384,-0.47563 z"
             transform="matrix(3.9013309,0,0,3.9013309,-5627.232,-241.79584)" />
          <path
             id="path1095"
             style="fill:#808080;fill-opacity:1;stroke:#333333;stroke-width:5.52624;stroke-linejoin:round;stroke-miterlimit:4;stroke-dasharray:none;stroke-opacity:1"
             d="M -249.82227,15.009766 A 73.383122,72.8474 0 0 0 -322.87695,81 h -2.83789 v 117.85742 h 151.99218 V 81 h -3.04101 a 73.383122,72.8474 0 0 0 -73.0586,-65.990234 z"
             transform="matrix(0.26458333,0,0,0.26458333,1865.6905,54.428572)" />
          <rect
             style="fill:#333333;fill-opacity:1;stroke:none;stroke-width:1.73452;stroke-linejoin:round;stroke-miterlimit:4;stroke-dasharray:none;stroke-opacity:1"
             id="rect1102"
             width="30.035606"
             height="16.536459"
             x="1784.6013"
             y="74.839287" />
          <path
             id="path1124"
             style="fill:none;fill-opacity:1;stroke:#6c6753;stroke-width:3.12106;stroke-linecap:butt;stroke-linejoin:miter;stroke-miterlimit:4;stroke-dasharray:none;stroke-opacity:1"
             d="m 1800.0596,108.88445 c -2.0462,11.23991 -1.6448,23.05897 -6.6566,33.56162 -4.4195,12.20146 -15.0764,20.55092 -21.28,31.74402 -5.7536,8.86937 -8.208,20.15044 -6.6389,30.59542 4.157,14.96737 5.6411,30.61745 11.0329,45.2657 2.6927,10.32939 4.3287,21.59614 1.1611,31.97569 -3.4102,11.06098 -12.0755,19.10842 -19.9742,27.06016 -1.75,2.24679 -3.1425,4.742 -4.8268,7.03536" />
          <rect
             style="display:inline;fill:#333333;fill-opacity:1;stroke:none;stroke-width:1.22234;stroke-linejoin:round;stroke-miterlimit:4;stroke-dasharray:none;stroke-opacity:1"
             id="rect1102-6"
             width="26.990578"
             height="9.1388798"
             x="83.958321"
             y="-1804.1886"
             transform="rotate(90)" />
        </g>
        <g
           id="g1203"
           transform="matrix(1.3748131,0,0,1.3748131,-808.46818,-77.636691)">
          <g
             id="g1091"
             transform="matrix(1.4744576,0,0,1.4744576,-321.39432,-47.292166)"
             style="display:inline">
            <path
               id="path1015"
               style="fill:#f4e3d7;fill-opacity:1;stroke:#4d4d4d;stroke-width:1.457;stroke-miterlimit:4;stroke-dasharray:none;stroke-opacity:1"
               d="m 1606.2649,132.97236 c 9.7352,-0.99346 2.7068,-0.11728 12.6964,-1.65657 8.4626,0.47494 17.4326,-0.49122 26.0261,-0.41578 10.1603,0.40345 20.241,3.1883 30.2938,1.3376 7.9173,-0.52237 15.8445,-2.65987 23.8503,-3.432 10.3565,-2.1525 20.656,-5.48205 31.1822,-5.69921 8.6021,3.19832 17.7413,4.4285 26.8866,3.85747 12.4361,0.24266 24.7482,1.8886 37.0113,3.70347 7.7615,1.67906 24.2378,-9.71652 24.8201,2.5579 -4.6074,6.59246 -13.1937,10.50364 -21.1691,11.10633 -7.6732,0.42383 -15.4631,0.45673 -23.161,0.48894 -7.8858,2.02923 -17.6231,-0.50878 -24.5024,2.89336 4.5613,6.79366 14.1186,15.4649 8.5758,23.8709 -4.1982,4.2721 -15.785,7.87541 -5.524,12.66513 8.1901,11.14327 -7.9182,15.22878 -16.358,14.06265 -8.8578,-0.0886 -17.4023,-3.17865 -25.7064,-2.61713 -6.3077,-4.6921 -16.0311,-4.24703 -23.691,-7.04685 -9.8651,-2.52773 -18.9939,-7.00934 -27.5167,-12.47898 -15.1803,-6.66672 -31.4527,1.06075 -46.6076,3.81714 z m 115.8085,37.527 c 4.1878,-4.10578 -6.4025,-4.89134 -2.3733,0.6939 0.9842,0.78239 1.6079,-0.34701 2.3733,-0.6939 z"
               sodipodi:nodetypes="ccccccccccccccccccccccc" />
            <path
               id="path1011"
               style="fill:#4d4d4d;fill-opacity:1;stroke:#4d4d4d;stroke-width:0.0574788"
               d="m 1728.0822,177.1249 c -1.3613,-0.2915 -0.419,-1.78276 0.2189,-2.35704 1.3233,-1.68585 3.1342,-2.85785 4.838,-4.11534 1.2842,-0.55854 2.3457,-1.54909 3.3009,-2.557 0.634,-0.47574 0.6869,-1.33609 -6e-4,-1.43502 0.012,-3.14339 0.2245,-6.54398 2.2218,-9.12963 1.1092,-1.38453 2.2856,-2.76617 3.7381,-3.80084 0.8114,-0.58928 0.705,0.32477 0.1507,0.65166 -1.7053,1.96052 -3.7769,3.80408 -4.5034,6.39221 -0.1268,1.46217 -0.7431,3.19367 0.3206,4.45438 1.3783,1.28482 3.0264,2.45271 4.9587,2.62936 0.7927,0.26267 2.4718,-0.0666 2.5384,1.06628 -2.888,0.11901 -5.9155,-0.46932 -8.6695,0.68042 -1.5834,0.442 -2.8863,1.45977 -4.1378,2.47786 -1.1494,0.78481 -2.3022,1.69357 -2.8074,3.04073 -0.4092,0.78703 -0.626,2.02717 -1.6785,2.14265 -0.1721,-0.007 -0.3377,-0.0637 -0.4889,-0.14068 z" />
            <path
               id="path1059"
               style="fill:#4d4d4d;fill-opacity:1;stroke:#4d4d4d;stroke-width:0.0574788"
               d="m 1727.8471,179.42291 c -1.4174,-0.37969 -1.5707,-2.44966 -3.1324,-2.58477 -1.5705,-1.03278 -3.226,-1.9554 -4.8807,-2.82282 -0.5793,-0.27446 -0.7017,-0.92296 0.082,-0.42537 1.8313,0.75379 3.9422,0.80515 5.5767,2.02311 0.8469,0.53026 1.6775,1.09629 2.5895,1.5118 1.6966,0.003 3.4981,1.07482 5.1139,0.13628 1.1446,-0.80371 2.5091,-0.0255 3.6226,0.44045 1.6951,0.5459 3.5092,0.60662 5.1875,1.1969 0.9969,0.38595 1.9413,0.92517 2.9942,1.15306 0.9853,0.66622 1.9937,-0.32375 2.9188,-0.58188 -0.8547,0.4746 -1.1659,1.7967 -2.2631,1.80653 -1.0273,-0.52112 -2.0428,-1.14923 -3.1907,-1.43386 -1.6689,-0.43726 -3.4228,-0.94917 -5.1496,-0.53404 -1.0874,0.18274 -2.1225,-0.27493 -3.2182,-0.2004 -1.2922,-0.0628 -2.628,-0.11518 -3.8502,0.38324 -0.758,0.19965 -1.7126,0.38736 -2.4001,-0.0682 z" />
          </g>
          <g
             id="g1163"
             transform="rotate(-9.0615625,2881.6223,-976.40152)"
             style="stroke-width:1.13508689;stroke-miterlimit:4;stroke-dasharray:none;stroke:#333333;stroke-opacity:1">
            <path
               id="path1095-6"
               style="display:inline;fill:#808080;fill-opacity:1;stroke:#333333;stroke-width:1.13508689;stroke-linejoin:round;stroke-miterlimit:4;stroke-dasharray:none;stroke-opacity:1"
               d="m 2153.7246,33.925379 v 7.558241 h 24.5376 c 8.4906,0.588271 14.9771,6.281884 14.9774,12.531882 1e-4,6.250215 -6.4865,11.975847 -14.9774,12.564139 h -24.5376 v 7.560258 h 31.1826 v -0.804412 a 19.274208,19.415951 0 0 0 17.4611,-19.330065 19.274208,19.415951 0 0 0 -17.4611,-19.330066 v -0.749977 z" />
            <rect
               style="fill:#333333;fill-opacity:1;stroke:#333333;stroke-width:1.13508689;stroke-linejoin:round;stroke-miterlimit:4;stroke-dasharray:none;stroke-opacity:1"
               id="rect1148"
               width="25.209312"
               height="9.0918951"
               x="2153.7302"
               y="27.573307" />
            <rect
               style="fill:#333333;fill-opacity:1;stroke:#333333;stroke-width:1.13508689;stroke-linejoin:round;stroke-miterlimit:4;stroke-dasharray:none;stroke-opacity:1"
               id="rect1152"
               width="15.944221"
               height="5.5833683"
               x="2162.9954"
               y="71.295235" />
            <path
               sodipodi:type="star"
               style="fill:#ffd5d5;fill-opacity:1;stroke:#333333;stroke-width:2.23967152;stroke-linejoin:round;stroke-miterlimit:4;stroke-dasharray:none;stroke-opacity:1"
               id="path1156"
               sodipodi:sides="3"
               sodipodi:cx="2129.2644"
               sodipodi:cy="23.465399"
               sodipodi:r1="24.040625"
               sodipodi:r2="20.819792"
               sodipodi:arg1="1.0610649"
               sodipodi:arg2="2.1082625"
               inkscape:flatsided="true"
               inkscape:rounded="0"
               inkscape:randomized="0"
               d="M 2140.9949,44.449873 2105.2261,23.13203 2141.5723,2.8142935 Z"
               inkscape:transform-center-x="-0.67654088"
               transform="matrix(0.44219652,0.24762501,-0.24762501,0.44219652,1235.2203,-482.55717)"
               inkscape:transform-center-y="1.1331332" />
            <ellipse
               style="fill:#ff2a2a;fill-opacity:1;stroke:#333333;stroke-width:1.13508689;stroke-linejoin:round;stroke-miterlimit:4;stroke-dasharray:none;stroke-opacity:1"
               id="path1154"
               cx="2170.9675"
               cy="67.259094"
               rx="2.8853161"
               ry="3.0156548" />
          </g>
          <path
             id="path1124-6"
             style="display:inline;fill:none;fill-opacity:1;stroke:#6c6753;stroke-width:3.12106;stroke-linecap:butt;stroke-linejoin:miter;stroke-miterlimit:4;stroke-dasharray:none;stroke-opacity:1"
             d="m 2321.931,135.95688 c -11.4146,-0.47935 -23.0659,1.54534 -34.1585,-1.97287 -12.6937,-2.69767 -22.4307,-12.10365 -34.3713,-16.70725 -9.577,-4.47779 -21.0886,-5.35578 -31.2181,-2.36369 -14.2525,6.17795 -29.5493,9.80243 -43.3158,17.15948 -9.8603,4.08909 -20.7946,7.26058 -31.5114,5.55207 -11.4251,-1.85499 -20.5889,-9.32991 -29.5523,-16.0587 -2.4663,-1.42403 -5.1295,-2.45976 -7.6329,-3.8123" />
        </g>
      </g>
    </g>
  </g>
</svg>
