<?xml version="1.0" encoding="utf-8" standalone="no"?>
<!DOCTYPE svg PUBLIC "-//W3C//DTD SVG 1.1//EN"
  "http://www.w3.org/Graphics/SVG/1.1/DTD/svg11.dtd">
<!-- Created with matplotlib (https://matplotlib.org/) -->
<svg height="360pt" version="1.1" viewBox="0 0 1296 360" width="1296pt" xmlns="http://www.w3.org/2000/svg" xmlns:xlink="http://www.w3.org/1999/xlink">
 <defs>
  <style type="text/css">
*{stroke-linecap:butt;stroke-linejoin:round;}
  </style>
 </defs>
 <g id="figure_1">
  <g id="patch_1">
   <path d="M 0 360 
L 1296 360 
L 1296 0 
L 0 0 
z
" style="fill:#ffffff;"/>
  </g>
  <g id="axes_1">
   <g id="patch_2">
    <path d="M 162 315 
L 618.545455 315 
L 618.545455 43.2 
L 162 43.2 
z
" style="fill:#ffffff;"/>
   </g>
   <g id="PolyCollection_1">
    <defs>
     <path d="M 340.362695 -78.975 
L 340.362695 -127.510714 
L 345.616382 -130.746429 
L 350.87007 -133.982143 
L 356.123758 -130.746429 
L 361.377445 -130.746429 
L 366.631133 -130.746429 
L 371.884821 -127.510714 
L 377.138508 -127.510714 
L 382.392196 -127.510714 
L 387.645883 -130.746429 
L 392.899571 -130.746429 
L 398.153259 -130.746429 
L 403.406946 -133.982143 
L 408.660634 -137.217857 
L 413.914322 -133.982143 
L 419.168009 -137.217857 
L 424.421697 -133.982143 
L 429.675384 -137.217857 
L 434.929072 -137.217857 
L 440.18276 -133.982143 
L 445.436447 -137.217857 
L 450.690135 -133.982143 
L 455.943823 -130.746429 
L 461.19751 -133.982143 
L 466.451198 -130.746429 
L 471.704885 -133.982143 
L 476.958573 -130.746429 
L 482.212261 -130.746429 
L 487.465948 -130.746429 
L 492.719636 -130.746429 
L 497.973324 -130.746429 
L 503.227011 -130.746429 
L 508.480699 -133.982143 
L 513.734386 -133.982143 
L 518.988074 -133.982143 
L 524.241762 -130.746429 
L 529.495449 -133.982143 
L 534.749137 -133.982143 
L 540.002825 -133.982143 
L 545.256512 -133.982143 
L 550.5102 -133.982143 
L 555.763887 -133.982143 
L 561.017575 -133.982143 
L 566.271263 -133.982143 
L 571.52495 -133.982143 
L 576.778638 -133.982143 
L 582.032326 -133.982143 
L 587.286013 -130.746429 
L 592.539701 -133.982143 
L 597.793388 -130.746429 
L 597.793388 -101.625 
L 597.793388 -101.625 
L 592.539701 -101.625 
L 587.286013 -101.625 
L 582.032326 -101.625 
L 576.778638 -101.625 
L 571.52495 -101.625 
L 566.271263 -101.625 
L 561.017575 -101.625 
L 555.763887 -101.625 
L 550.5102 -101.625 
L 545.256512 -101.625 
L 540.002825 -101.625 
L 534.749137 -101.625 
L 529.495449 -98.389286 
L 524.241762 -98.389286 
L 518.988074 -98.389286 
L 513.734386 -98.389286 
L 508.480699 -98.389286 
L 503.227011 -98.389286 
L 497.973324 -95.153571 
L 492.719636 -95.153571 
L 487.465948 -95.153571 
L 482.212261 -95.153571 
L 476.958573 -95.153571 
L 471.704885 -95.153571 
L 466.451198 -95.153571 
L 461.19751 -95.153571 
L 455.943823 -95.153571 
L 450.690135 -95.153571 
L 445.436447 -98.389286 
L 440.18276 -95.153571 
L 434.929072 -95.153571 
L 429.675384 -98.389286 
L 424.421697 -95.153571 
L 419.168009 -95.153571 
L 413.914322 -91.917857 
L 408.660634 -95.153571 
L 403.406946 -91.917857 
L 398.153259 -88.682143 
L 392.899571 -85.446429 
L 387.645883 -88.682143 
L 382.392196 -85.446429 
L 377.138508 -82.210714 
L 371.884821 -82.210714 
L 366.631133 -85.446429 
L 361.377445 -82.210714 
L 356.123758 -85.446429 
L 350.87007 -85.446429 
L 345.616382 -82.210714 
L 340.362695 -78.975 
z
" id="mfca234ea67" style="stroke:#c44e52;stroke-opacity:0.2;stroke-width:1.5;"/>
    </defs>
    <g clip-path="url(#p73b98311b3)">
     <use style="fill:#c44e52;fill-opacity:0.2;stroke:#c44e52;stroke-opacity:0.2;stroke-width:1.5;" x="0" xlink:href="#mfca234ea67" y="360"/>
    </g>
   </g>
   <g id="PolyCollection_2">
    <defs>
     <path d="M 182.752066 -53.089286 
L 182.752066 -224.582143 
L 188.005754 -247.232143 
L 193.259441 -192.225 
L 198.513129 -201.932143 
L 203.766817 -214.875 
L 209.020504 -188.989286 
L 214.274192 -176.046429 
L 219.527879 -179.282143 
L 224.781567 -169.575 
L 230.035255 -166.339286 
L 235.288942 -166.339286 
L 240.54263 -159.867857 
L 245.796318 -163.103571 
L 251.050005 -163.103571 
L 256.303693 -159.867857 
L 261.55738 -153.396429 
L 266.811068 -146.925 
L 272.064756 -140.453571 
L 277.318443 -143.689286 
L 282.572131 -143.689286 
L 287.825819 -137.217857 
L 293.079506 -140.453571 
L 298.333194 -133.982143 
L 303.586881 -127.510714 
L 308.840569 -124.275 
L 314.094257 -124.275 
L 319.347944 -127.510714 
L 324.601632 -124.275 
L 329.85532 -124.275 
L 335.109007 -124.275 
L 335.109007 -75.739286 
L 335.109007 -75.739286 
L 329.85532 -72.503571 
L 324.601632 -69.267857 
L 319.347944 -72.503571 
L 314.094257 -69.267857 
L 308.840569 -69.267857 
L 303.586881 -72.503571 
L 298.333194 -75.739286 
L 293.079506 -82.210714 
L 287.825819 -78.975 
L 282.572131 -85.446429 
L 277.318443 -82.210714 
L 272.064756 -75.739286 
L 266.811068 -85.446429 
L 261.55738 -91.917857 
L 256.303693 -101.625 
L 251.050005 -101.625 
L 245.796318 -98.389286 
L 240.54263 -91.917857 
L 235.288942 -101.625 
L 230.035255 -91.917857 
L 224.781567 -108.096429 
L 219.527879 -117.803571 
L 214.274192 -101.625 
L 209.020504 -108.096429 
L 203.766817 -111.332143 
L 198.513129 -91.917857 
L 193.259441 -62.796429 
L 188.005754 -72.503571 
L 182.752066 -53.089286 
z
" id="m722f134080" style="stroke:#c44e52;stroke-opacity:0.15;stroke-width:1.5;"/>
    </defs>
    <g clip-path="url(#p73b98311b3)">
     <use style="fill:#c44e52;fill-opacity:0.15;stroke:#c44e52;stroke-opacity:0.15;stroke-width:1.5;" x="0" xlink:href="#m722f134080" y="360"/>
    </g>
   </g>
   <g id="matplotlib.axis_1">
    <g id="xtick_1">
     <g id="line2d_1">
      <defs>
       <path d="M 0 0 
L 0 9 
" id="mc816264c17" style="stroke:#000000;stroke-width:1.875;"/>
      </defs>
      <g>
       <use style="stroke:#000000;stroke-width:1.875;" x="182.752066" xlink:href="#mc816264c17" y="315"/>
      </g>
     </g>
     <g id="text_1">
      <!-- 0 -->
      <defs>
       <path d="M 31.78125 66.40625 
Q 24.171875 66.40625 20.328125 58.90625 
Q 16.5 51.421875 16.5 36.375 
Q 16.5 21.390625 20.328125 13.890625 
Q 24.171875 6.390625 31.78125 6.390625 
Q 39.453125 6.390625 43.28125 13.890625 
Q 47.125 21.390625 47.125 36.375 
Q 47.125 51.421875 43.28125 58.90625 
Q 39.453125 66.40625 31.78125 66.40625 
z
M 31.78125 74.21875 
Q 44.046875 74.21875 50.515625 64.515625 
Q 56.984375 54.828125 56.984375 36.375 
Q 56.984375 17.96875 50.515625 8.265625 
Q 44.046875 -1.421875 31.78125 -1.421875 
Q 19.53125 -1.421875 13.0625 8.265625 
Q 6.59375 17.96875 6.59375 36.375 
Q 6.59375 54.828125 13.0625 64.515625 
Q 19.53125 74.21875 31.78125 74.21875 
z
" id="DejaVuSans-48"/>
      </defs>
      <g transform="translate(177.503004 340.037422)scale(0.165 -0.165)">
       <use xlink:href="#DejaVuSans-48"/>
      </g>
     </g>
    </g>
    <g id="xtick_2">
     <g id="line2d_2">
      <g>
       <use style="stroke:#000000;stroke-width:1.875;" x="235.288942" xlink:href="#mc816264c17" y="315"/>
      </g>
     </g>
     <g id="text_2">
      <!-- 10 -->
      <defs>
       <path d="M 12.40625 8.296875 
L 28.515625 8.296875 
L 28.515625 63.921875 
L 10.984375 60.40625 
L 10.984375 69.390625 
L 28.421875 72.90625 
L 38.28125 72.90625 
L 38.28125 8.296875 
L 54.390625 8.296875 
L 54.390625 0 
L 12.40625 0 
z
" id="DejaVuSans-49"/>
      </defs>
      <g transform="translate(224.790817 340.037422)scale(0.165 -0.165)">
       <use xlink:href="#DejaVuSans-49"/>
       <use x="63.623047" xlink:href="#DejaVuSans-48"/>
      </g>
     </g>
    </g>
    <g id="xtick_3">
     <g id="line2d_3">
      <g>
       <use style="stroke:#000000;stroke-width:1.875;" x="287.825819" xlink:href="#mc816264c17" y="315"/>
      </g>
     </g>
     <g id="text_3">
      <!-- 20 -->
      <defs>
       <path d="M 19.1875 8.296875 
L 53.609375 8.296875 
L 53.609375 0 
L 7.328125 0 
L 7.328125 8.296875 
Q 12.9375 14.109375 22.625 23.890625 
Q 32.328125 33.6875 34.8125 36.53125 
Q 39.546875 41.84375 41.421875 45.53125 
Q 43.3125 49.21875 43.3125 52.78125 
Q 43.3125 58.59375 39.234375 62.25 
Q 35.15625 65.921875 28.609375 65.921875 
Q 23.96875 65.921875 18.8125 64.3125 
Q 13.671875 62.703125 7.8125 59.421875 
L 7.8125 69.390625 
Q 13.765625 71.78125 18.9375 73 
Q 24.125 74.21875 28.421875 74.21875 
Q 39.75 74.21875 46.484375 68.546875 
Q 53.21875 62.890625 53.21875 53.421875 
Q 53.21875 48.921875 51.53125 44.890625 
Q 49.859375 40.875 45.40625 35.40625 
Q 44.1875 33.984375 37.640625 27.21875 
Q 31.109375 20.453125 19.1875 8.296875 
z
" id="DejaVuSans-50"/>
      </defs>
      <g transform="translate(277.327694 340.037422)scale(0.165 -0.165)">
       <use xlink:href="#DejaVuSans-50"/>
       <use x="63.623047" xlink:href="#DejaVuSans-48"/>
      </g>
     </g>
    </g>
    <g id="xtick_4">
     <g id="line2d_4">
      <g>
       <use style="stroke:#000000;stroke-width:1.875;" x="340.362695" xlink:href="#mc816264c17" y="315"/>
      </g>
     </g>
     <g id="text_4">
      <!-- 30 -->
      <defs>
       <path d="M 40.578125 39.3125 
Q 47.65625 37.796875 51.625 33 
Q 55.609375 28.21875 55.609375 21.1875 
Q 55.609375 10.40625 48.1875 4.484375 
Q 40.765625 -1.421875 27.09375 -1.421875 
Q 22.515625 -1.421875 17.65625 -0.515625 
Q 12.796875 0.390625 7.625 2.203125 
L 7.625 11.71875 
Q 11.71875 9.328125 16.59375 8.109375 
Q 21.484375 6.890625 26.8125 6.890625 
Q 36.078125 6.890625 40.9375 10.546875 
Q 45.796875 14.203125 45.796875 21.1875 
Q 45.796875 27.640625 41.28125 31.265625 
Q 36.765625 34.90625 28.71875 34.90625 
L 20.21875 34.90625 
L 20.21875 43.015625 
L 29.109375 43.015625 
Q 36.375 43.015625 40.234375 45.921875 
Q 44.09375 48.828125 44.09375 54.296875 
Q 44.09375 59.90625 40.109375 62.90625 
Q 36.140625 65.921875 28.71875 65.921875 
Q 24.65625 65.921875 20.015625 65.03125 
Q 15.375 64.15625 9.8125 62.3125 
L 9.8125 71.09375 
Q 15.4375 72.65625 20.34375 73.4375 
Q 25.25 74.21875 29.59375 74.21875 
Q 40.828125 74.21875 47.359375 69.109375 
Q 53.90625 64.015625 53.90625 55.328125 
Q 53.90625 49.265625 50.4375 45.09375 
Q 46.96875 40.921875 40.578125 39.3125 
z
" id="DejaVuSans-51"/>
      </defs>
      <g transform="translate(329.86457 340.037422)scale(0.165 -0.165)">
       <use xlink:href="#DejaVuSans-51"/>
       <use x="63.623047" xlink:href="#DejaVuSans-48"/>
      </g>
     </g>
    </g>
    <g id="xtick_5">
     <g id="line2d_5">
      <g>
       <use style="stroke:#000000;stroke-width:1.875;" x="392.899571" xlink:href="#mc816264c17" y="315"/>
      </g>
     </g>
     <g id="text_5">
      <!-- 40 -->
      <defs>
       <path d="M 37.796875 64.3125 
L 12.890625 25.390625 
L 37.796875 25.390625 
z
M 35.203125 72.90625 
L 47.609375 72.90625 
L 47.609375 25.390625 
L 58.015625 25.390625 
L 58.015625 17.1875 
L 47.609375 17.1875 
L 47.609375 0 
L 37.796875 0 
L 37.796875 17.1875 
L 4.890625 17.1875 
L 4.890625 26.703125 
z
" id="DejaVuSans-52"/>
      </defs>
      <g transform="translate(382.401446 340.037422)scale(0.165 -0.165)">
       <use xlink:href="#DejaVuSans-52"/>
       <use x="63.623047" xlink:href="#DejaVuSans-48"/>
      </g>
     </g>
    </g>
    <g id="xtick_6">
     <g id="line2d_6">
      <g>
       <use style="stroke:#000000;stroke-width:1.875;" x="445.436447" xlink:href="#mc816264c17" y="315"/>
      </g>
     </g>
     <g id="text_6">
      <!-- 50 -->
      <defs>
       <path d="M 10.796875 72.90625 
L 49.515625 72.90625 
L 49.515625 64.59375 
L 19.828125 64.59375 
L 19.828125 46.734375 
Q 21.96875 47.46875 24.109375 47.828125 
Q 26.265625 48.1875 28.421875 48.1875 
Q 40.625 48.1875 47.75 41.5 
Q 54.890625 34.8125 54.890625 23.390625 
Q 54.890625 11.625 47.5625 5.09375 
Q 40.234375 -1.421875 26.90625 -1.421875 
Q 22.3125 -1.421875 17.546875 -0.640625 
Q 12.796875 0.140625 7.71875 1.703125 
L 7.71875 11.625 
Q 12.109375 9.234375 16.796875 8.0625 
Q 21.484375 6.890625 26.703125 6.890625 
Q 35.15625 6.890625 40.078125 11.328125 
Q 45.015625 15.765625 45.015625 23.390625 
Q 45.015625 31 40.078125 35.4375 
Q 35.15625 39.890625 26.703125 39.890625 
Q 22.75 39.890625 18.8125 39.015625 
Q 14.890625 38.140625 10.796875 36.28125 
z
" id="DejaVuSans-53"/>
      </defs>
      <g transform="translate(434.938322 340.037422)scale(0.165 -0.165)">
       <use xlink:href="#DejaVuSans-53"/>
       <use x="63.623047" xlink:href="#DejaVuSans-48"/>
      </g>
     </g>
    </g>
    <g id="xtick_7">
     <g id="line2d_7">
      <g>
       <use style="stroke:#000000;stroke-width:1.875;" x="497.973324" xlink:href="#mc816264c17" y="315"/>
      </g>
     </g>
     <g id="text_7">
      <!-- 60 -->
      <defs>
       <path d="M 33.015625 40.375 
Q 26.375 40.375 22.484375 35.828125 
Q 18.609375 31.296875 18.609375 23.390625 
Q 18.609375 15.53125 22.484375 10.953125 
Q 26.375 6.390625 33.015625 6.390625 
Q 39.65625 6.390625 43.53125 10.953125 
Q 47.40625 15.53125 47.40625 23.390625 
Q 47.40625 31.296875 43.53125 35.828125 
Q 39.65625 40.375 33.015625 40.375 
z
M 52.59375 71.296875 
L 52.59375 62.3125 
Q 48.875 64.0625 45.09375 64.984375 
Q 41.3125 65.921875 37.59375 65.921875 
Q 27.828125 65.921875 22.671875 59.328125 
Q 17.53125 52.734375 16.796875 39.40625 
Q 19.671875 43.65625 24.015625 45.921875 
Q 28.375 48.1875 33.59375 48.1875 
Q 44.578125 48.1875 50.953125 41.515625 
Q 57.328125 34.859375 57.328125 23.390625 
Q 57.328125 12.15625 50.6875 5.359375 
Q 44.046875 -1.421875 33.015625 -1.421875 
Q 20.359375 -1.421875 13.671875 8.265625 
Q 6.984375 17.96875 6.984375 36.375 
Q 6.984375 53.65625 15.1875 63.9375 
Q 23.390625 74.21875 37.203125 74.21875 
Q 40.921875 74.21875 44.703125 73.484375 
Q 48.484375 72.75 52.59375 71.296875 
z
" id="DejaVuSans-54"/>
      </defs>
      <g transform="translate(487.475199 340.037422)scale(0.165 -0.165)">
       <use xlink:href="#DejaVuSans-54"/>
       <use x="63.623047" xlink:href="#DejaVuSans-48"/>
      </g>
     </g>
    </g>
    <g id="xtick_8">
     <g id="line2d_8">
      <g>
       <use style="stroke:#000000;stroke-width:1.875;" x="550.5102" xlink:href="#mc816264c17" y="315"/>
      </g>
     </g>
     <g id="text_8">
      <!-- 70 -->
      <defs>
       <path d="M 8.203125 72.90625 
L 55.078125 72.90625 
L 55.078125 68.703125 
L 28.609375 0 
L 18.3125 0 
L 43.21875 64.59375 
L 8.203125 64.59375 
z
" id="DejaVuSans-55"/>
      </defs>
      <g transform="translate(540.012075 340.037422)scale(0.165 -0.165)">
       <use xlink:href="#DejaVuSans-55"/>
       <use x="63.623047" xlink:href="#DejaVuSans-48"/>
      </g>
     </g>
    </g>
    <g id="xtick_9">
     <g id="line2d_9">
      <g>
       <use style="stroke:#000000;stroke-width:1.875;" x="603.047076" xlink:href="#mc816264c17" y="315"/>
      </g>
     </g>
     <g id="text_9">
      <!-- 80 -->
      <defs>
       <path d="M 31.78125 34.625 
Q 24.75 34.625 20.71875 30.859375 
Q 16.703125 27.09375 16.703125 20.515625 
Q 16.703125 13.921875 20.71875 10.15625 
Q 24.75 6.390625 31.78125 6.390625 
Q 38.8125 6.390625 42.859375 10.171875 
Q 46.921875 13.96875 46.921875 20.515625 
Q 46.921875 27.09375 42.890625 30.859375 
Q 38.875 34.625 31.78125 34.625 
z
M 21.921875 38.8125 
Q 15.578125 40.375 12.03125 44.71875 
Q 8.5 49.078125 8.5 55.328125 
Q 8.5 64.0625 14.71875 69.140625 
Q 20.953125 74.21875 31.78125 74.21875 
Q 42.671875 74.21875 48.875 69.140625 
Q 55.078125 64.0625 55.078125 55.328125 
Q 55.078125 49.078125 51.53125 44.71875 
Q 48 40.375 41.703125 38.8125 
Q 48.828125 37.15625 52.796875 32.3125 
Q 56.78125 27.484375 56.78125 20.515625 
Q 56.78125 9.90625 50.3125 4.234375 
Q 43.84375 -1.421875 31.78125 -1.421875 
Q 19.734375 -1.421875 13.25 4.234375 
Q 6.78125 9.90625 6.78125 20.515625 
Q 6.78125 27.484375 10.78125 32.3125 
Q 14.796875 37.15625 21.921875 38.8125 
z
M 18.3125 54.390625 
Q 18.3125 48.734375 21.84375 45.5625 
Q 25.390625 42.390625 31.78125 42.390625 
Q 38.140625 42.390625 41.71875 45.5625 
Q 45.3125 48.734375 45.3125 54.390625 
Q 45.3125 60.0625 41.71875 63.234375 
Q 38.140625 66.40625 31.78125 66.40625 
Q 25.390625 66.40625 21.84375 63.234375 
Q 18.3125 60.0625 18.3125 54.390625 
z
" id="DejaVuSans-56"/>
      </defs>
      <g transform="translate(592.548951 340.037422)scale(0.165 -0.165)">
       <use xlink:href="#DejaVuSans-56"/>
       <use x="63.623047" xlink:href="#DejaVuSans-48"/>
      </g>
     </g>
    </g>
    <g id="text_10">
     <!-- Trials -->
     <defs>
      <path d="M -0.296875 72.90625 
L 61.375 72.90625 
L 61.375 64.59375 
L 35.5 64.59375 
L 35.5 0 
L 25.59375 0 
L 25.59375 64.59375 
L -0.296875 64.59375 
z
" id="DejaVuSans-84"/>
      <path d="M 41.109375 46.296875 
Q 39.59375 47.171875 37.8125 47.578125 
Q 36.03125 48 33.890625 48 
Q 26.265625 48 22.1875 43.046875 
Q 18.109375 38.09375 18.109375 28.8125 
L 18.109375 0 
L 9.078125 0 
L 9.078125 54.6875 
L 18.109375 54.6875 
L 18.109375 46.1875 
Q 20.953125 51.171875 25.484375 53.578125 
Q 30.03125 56 36.53125 56 
Q 37.453125 56 38.578125 55.875 
Q 39.703125 55.765625 41.0625 55.515625 
z
" id="DejaVuSans-114"/>
      <path d="M 9.421875 54.6875 
L 18.40625 54.6875 
L 18.40625 0 
L 9.421875 0 
z
M 9.421875 75.984375 
L 18.40625 75.984375 
L 18.40625 64.59375 
L 9.421875 64.59375 
z
" id="DejaVuSans-105"/>
      <path d="M 34.28125 27.484375 
Q 23.390625 27.484375 19.1875 25 
Q 14.984375 22.515625 14.984375 16.5 
Q 14.984375 11.71875 18.140625 8.90625 
Q 21.296875 6.109375 26.703125 6.109375 
Q 34.1875 6.109375 38.703125 11.40625 
Q 43.21875 16.703125 43.21875 25.484375 
L 43.21875 27.484375 
z
M 52.203125 31.203125 
L 52.203125 0 
L 43.21875 0 
L 43.21875 8.296875 
Q 40.140625 3.328125 35.546875 0.953125 
Q 30.953125 -1.421875 24.3125 -1.421875 
Q 15.921875 -1.421875 10.953125 3.296875 
Q 6 8.015625 6 15.921875 
Q 6 25.140625 12.171875 29.828125 
Q 18.359375 34.515625 30.609375 34.515625 
L 43.21875 34.515625 
L 43.21875 35.40625 
Q 43.21875 41.609375 39.140625 45 
Q 35.0625 48.390625 27.6875 48.390625 
Q 23 48.390625 18.546875 47.265625 
Q 14.109375 46.140625 10.015625 43.890625 
L 10.015625 52.203125 
Q 14.9375 54.109375 19.578125 55.046875 
Q 24.21875 56 28.609375 56 
Q 40.484375 56 46.34375 49.84375 
Q 52.203125 43.703125 52.203125 31.203125 
z
" id="DejaVuSans-97"/>
      <path d="M 9.421875 75.984375 
L 18.40625 75.984375 
L 18.40625 0 
L 9.421875 0 
z
" id="DejaVuSans-108"/>
      <path d="M 44.28125 53.078125 
L 44.28125 44.578125 
Q 40.484375 46.53125 36.375 47.5 
Q 32.28125 48.484375 27.875 48.484375 
Q 21.1875 48.484375 17.84375 46.4375 
Q 14.5 44.390625 14.5 40.28125 
Q 14.5 37.15625 16.890625 35.375 
Q 19.28125 33.59375 26.515625 31.984375 
L 29.59375 31.296875 
Q 39.15625 29.25 43.1875 25.515625 
Q 47.21875 21.78125 47.21875 15.09375 
Q 47.21875 7.46875 41.1875 3.015625 
Q 35.15625 -1.421875 24.609375 -1.421875 
Q 20.21875 -1.421875 15.453125 -0.5625 
Q 10.6875 0.296875 5.421875 2 
L 5.421875 11.28125 
Q 10.40625 8.6875 15.234375 7.390625 
Q 20.0625 6.109375 24.8125 6.109375 
Q 31.15625 6.109375 34.5625 8.28125 
Q 37.984375 10.453125 37.984375 14.40625 
Q 37.984375 18.0625 35.515625 20.015625 
Q 33.0625 21.96875 24.703125 23.78125 
L 21.578125 24.515625 
Q 13.234375 26.265625 9.515625 29.90625 
Q 5.8125 33.546875 5.8125 39.890625 
Q 5.8125 47.609375 11.28125 51.796875 
Q 16.75 56 26.8125 56 
Q 31.78125 56 36.171875 55.265625 
Q 40.578125 54.546875 44.28125 53.078125 
z
" id="DejaVuSans-115"/>
     </defs>
     <g transform="translate(365.891165 361.146094)scale(0.18 -0.18)">
      <use xlink:href="#DejaVuSans-84"/>
      <use x="60.865234" xlink:href="#DejaVuSans-114"/>
      <use x="101.978516" xlink:href="#DejaVuSans-105"/>
      <use x="129.761719" xlink:href="#DejaVuSans-97"/>
      <use x="191.041016" xlink:href="#DejaVuSans-108"/>
      <use x="218.824219" xlink:href="#DejaVuSans-115"/>
     </g>
    </g>
   </g>
   <g id="matplotlib.axis_2">
    <g id="ytick_1">
     <g id="line2d_10">
      <defs>
       <path d="M 0 0 
L -9 0 
" id="me9ef910c2e" style="stroke:#000000;stroke-width:1.875;"/>
      </defs>
      <g>
       <use style="stroke:#000000;stroke-width:1.875;" x="162" xlink:href="#me9ef910c2e" y="308.528571"/>
      </g>
     </g>
     <g id="text_11">
      <!-- −40 -->
      <defs>
       <path d="M 10.59375 35.5 
L 73.1875 35.5 
L 73.1875 27.203125 
L 10.59375 27.203125 
z
" id="DejaVuSans-8722"/>
      </defs>
      <g transform="translate(114.677266 314.797282)scale(0.165 -0.165)">
       <use xlink:href="#DejaVuSans-8722"/>
       <use x="83.789062" xlink:href="#DejaVuSans-52"/>
       <use x="147.412109" xlink:href="#DejaVuSans-48"/>
      </g>
     </g>
    </g>
    <g id="ytick_2">
     <g id="line2d_11">
      <g>
       <use style="stroke:#000000;stroke-width:1.875;" x="162" xlink:href="#me9ef910c2e" y="243.814286"/>
      </g>
     </g>
     <g id="text_12">
      <!-- −20 -->
      <g transform="translate(114.677266 250.082997)scale(0.165 -0.165)">
       <use xlink:href="#DejaVuSans-8722"/>
       <use x="83.789062" xlink:href="#DejaVuSans-50"/>
       <use x="147.412109" xlink:href="#DejaVuSans-48"/>
      </g>
     </g>
    </g>
    <g id="ytick_3">
     <g id="line2d_12">
      <g>
       <use style="stroke:#000000;stroke-width:1.875;" x="162" xlink:href="#me9ef910c2e" y="179.1"/>
      </g>
     </g>
     <g id="text_13">
      <!-- 0 -->
      <g transform="translate(139.001875 185.368711)scale(0.165 -0.165)">
       <use xlink:href="#DejaVuSans-48"/>
      </g>
     </g>
    </g>
    <g id="ytick_4">
     <g id="line2d_13">
      <g>
       <use style="stroke:#000000;stroke-width:1.875;" x="162" xlink:href="#me9ef910c2e" y="114.385714"/>
      </g>
     </g>
     <g id="text_14">
      <!-- 20 -->
      <g transform="translate(128.50375 120.654425)scale(0.165 -0.165)">
       <use xlink:href="#DejaVuSans-50"/>
       <use x="63.623047" xlink:href="#DejaVuSans-48"/>
      </g>
     </g>
    </g>
    <g id="ytick_5">
     <g id="line2d_14">
      <g>
       <use style="stroke:#000000;stroke-width:1.875;" x="162" xlink:href="#me9ef910c2e" y="49.671429"/>
      </g>
     </g>
     <g id="text_15">
      <!-- 40 -->
      <g transform="translate(128.50375 55.94014)scale(0.165 -0.165)">
       <use xlink:href="#DejaVuSans-52"/>
       <use x="63.623047" xlink:href="#DejaVuSans-48"/>
      </g>
     </g>
    </g>
    <g id="text_16">
     <!-- Intensity ($\Delta$ BPM) -->
     <defs>
      <path d="M 9.8125 72.90625 
L 19.671875 72.90625 
L 19.671875 0 
L 9.8125 0 
z
" id="DejaVuSans-73"/>
      <path d="M 54.890625 33.015625 
L 54.890625 0 
L 45.90625 0 
L 45.90625 32.71875 
Q 45.90625 40.484375 42.875 44.328125 
Q 39.84375 48.1875 33.796875 48.1875 
Q 26.515625 48.1875 22.3125 43.546875 
Q 18.109375 38.921875 18.109375 30.90625 
L 18.109375 0 
L 9.078125 0 
L 9.078125 54.6875 
L 18.109375 54.6875 
L 18.109375 46.1875 
Q 21.34375 51.125 25.703125 53.5625 
Q 30.078125 56 35.796875 56 
Q 45.21875 56 50.046875 50.171875 
Q 54.890625 44.34375 54.890625 33.015625 
z
" id="DejaVuSans-110"/>
      <path d="M 18.3125 70.21875 
L 18.3125 54.6875 
L 36.8125 54.6875 
L 36.8125 47.703125 
L 18.3125 47.703125 
L 18.3125 18.015625 
Q 18.3125 11.328125 20.140625 9.421875 
Q 21.96875 7.515625 27.59375 7.515625 
L 36.8125 7.515625 
L 36.8125 0 
L 27.59375 0 
Q 17.1875 0 13.234375 3.875 
Q 9.28125 7.765625 9.28125 18.015625 
L 9.28125 47.703125 
L 2.6875 47.703125 
L 2.6875 54.6875 
L 9.28125 54.6875 
L 9.28125 70.21875 
z
" id="DejaVuSans-116"/>
      <path d="M 56.203125 29.59375 
L 56.203125 25.203125 
L 14.890625 25.203125 
Q 15.484375 15.921875 20.484375 11.0625 
Q 25.484375 6.203125 34.421875 6.203125 
Q 39.59375 6.203125 44.453125 7.46875 
Q 49.3125 8.734375 54.109375 11.28125 
L 54.109375 2.78125 
Q 49.265625 0.734375 44.1875 -0.34375 
Q 39.109375 -1.421875 33.890625 -1.421875 
Q 20.796875 -1.421875 13.15625 6.1875 
Q 5.515625 13.8125 5.515625 26.8125 
Q 5.515625 40.234375 12.765625 48.109375 
Q 20.015625 56 32.328125 56 
Q 43.359375 56 49.78125 48.890625 
Q 56.203125 41.796875 56.203125 29.59375 
z
M 47.21875 32.234375 
Q 47.125 39.59375 43.09375 43.984375 
Q 39.0625 48.390625 32.421875 48.390625 
Q 24.90625 48.390625 20.390625 44.140625 
Q 15.875 39.890625 15.1875 32.171875 
z
" id="DejaVuSans-101"/>
      <path d="M 32.171875 -5.078125 
Q 28.375 -14.84375 24.75 -17.8125 
Q 21.140625 -20.796875 15.09375 -20.796875 
L 7.90625 -20.796875 
L 7.90625 -13.28125 
L 13.1875 -13.28125 
Q 16.890625 -13.28125 18.9375 -11.515625 
Q 21 -9.765625 23.484375 -3.21875 
L 25.09375 0.875 
L 2.984375 54.6875 
L 12.5 54.6875 
L 29.59375 11.921875 
L 46.6875 54.6875 
L 56.203125 54.6875 
z
" id="DejaVuSans-121"/>
      <path id="DejaVuSans-32"/>
      <path d="M 31 75.875 
Q 24.46875 64.65625 21.28125 53.65625 
Q 18.109375 42.671875 18.109375 31.390625 
Q 18.109375 20.125 21.3125 9.0625 
Q 24.515625 -2 31 -13.1875 
L 23.1875 -13.1875 
Q 15.875 -1.703125 12.234375 9.375 
Q 8.59375 20.453125 8.59375 31.390625 
Q 8.59375 42.28125 12.203125 53.3125 
Q 15.828125 64.359375 23.1875 75.875 
z
" id="DejaVuSans-40"/>
      <path d="M 34.1875 63.1875 
L 14.15625 8.203125 
L 54.25 8.203125 
z
M 0.78125 0 
L 28.609375 72.90625 
L 39.796875 72.90625 
L 67.578125 0 
z
" id="DejaVuSans-916"/>
      <path d="M 19.671875 34.8125 
L 19.671875 8.109375 
L 35.5 8.109375 
Q 43.453125 8.109375 47.28125 11.40625 
Q 51.125 14.703125 51.125 21.484375 
Q 51.125 28.328125 47.28125 31.5625 
Q 43.453125 34.8125 35.5 34.8125 
z
M 19.671875 64.796875 
L 19.671875 42.828125 
L 34.28125 42.828125 
Q 41.5 42.828125 45.03125 45.53125 
Q 48.578125 48.25 48.578125 53.8125 
Q 48.578125 59.328125 45.03125 62.0625 
Q 41.5 64.796875 34.28125 64.796875 
z
M 9.8125 72.90625 
L 35.015625 72.90625 
Q 46.296875 72.90625 52.390625 68.21875 
Q 58.5 63.53125 58.5 54.890625 
Q 58.5 48.1875 55.375 44.234375 
Q 52.25 40.28125 46.1875 39.3125 
Q 53.46875 37.75 57.5 32.78125 
Q 61.53125 27.828125 61.53125 20.40625 
Q 61.53125 10.640625 54.890625 5.3125 
Q 48.25 0 35.984375 0 
L 9.8125 0 
z
" id="DejaVuSans-66"/>
      <path d="M 19.671875 64.796875 
L 19.671875 37.40625 
L 32.078125 37.40625 
Q 38.96875 37.40625 42.71875 40.96875 
Q 46.484375 44.53125 46.484375 51.125 
Q 46.484375 57.671875 42.71875 61.234375 
Q 38.96875 64.796875 32.078125 64.796875 
z
M 9.8125 72.90625 
L 32.078125 72.90625 
Q 44.34375 72.90625 50.609375 67.359375 
Q 56.890625 61.8125 56.890625 51.125 
Q 56.890625 40.328125 50.609375 34.8125 
Q 44.34375 29.296875 32.078125 29.296875 
L 19.671875 29.296875 
L 19.671875 0 
L 9.8125 0 
z
" id="DejaVuSans-80"/>
      <path d="M 9.8125 72.90625 
L 24.515625 72.90625 
L 43.109375 23.296875 
L 61.8125 72.90625 
L 76.515625 72.90625 
L 76.515625 0 
L 66.890625 0 
L 66.890625 64.015625 
L 48.09375 14.015625 
L 38.1875 14.015625 
L 19.390625 64.015625 
L 19.390625 0 
L 9.8125 0 
z
" id="DejaVuSans-77"/>
      <path d="M 8.015625 75.875 
L 15.828125 75.875 
Q 23.140625 64.359375 26.78125 53.3125 
Q 30.421875 42.28125 30.421875 31.390625 
Q 30.421875 20.453125 26.78125 9.375 
Q 23.140625 -1.703125 15.828125 -13.1875 
L 8.015625 -13.1875 
Q 14.5 -2 17.703125 9.0625 
Q 20.90625 20.125 20.90625 31.390625 
Q 20.90625 42.671875 17.703125 53.65625 
Q 14.5 64.65625 8.015625 75.875 
z
" id="DejaVuSans-41"/>
     </defs>
     <g transform="translate(106.897266 256.59)rotate(-90)scale(0.18 -0.18)">
      <use transform="translate(0 0.015625)" xlink:href="#DejaVuSans-73"/>
      <use transform="translate(29.492188 0.015625)" xlink:href="#DejaVuSans-110"/>
      <use transform="translate(92.871094 0.015625)" xlink:href="#DejaVuSans-116"/>
      <use transform="translate(132.080078 0.015625)" xlink:href="#DejaVuSans-101"/>
      <use transform="translate(193.603516 0.015625)" xlink:href="#DejaVuSans-110"/>
      <use transform="translate(256.982422 0.015625)" xlink:href="#DejaVuSans-115"/>
      <use transform="translate(309.082031 0.015625)" xlink:href="#DejaVuSans-105"/>
      <use transform="translate(336.865234 0.015625)" xlink:href="#DejaVuSans-116"/>
      <use transform="translate(376.074219 0.015625)" xlink:href="#DejaVuSans-121"/>
      <use transform="translate(435.253906 0.015625)" xlink:href="#DejaVuSans-32"/>
      <use transform="translate(467.041016 0.015625)" xlink:href="#DejaVuSans-40"/>
      <use transform="translate(506.054688 0.015625)" xlink:href="#DejaVuSans-916"/>
      <use transform="translate(574.462891 0.015625)" xlink:href="#DejaVuSans-32"/>
      <use transform="translate(606.25 0.015625)" xlink:href="#DejaVuSans-66"/>
      <use transform="translate(674.853516 0.015625)" xlink:href="#DejaVuSans-80"/>
      <use transform="translate(735.15625 0.015625)" xlink:href="#DejaVuSans-77"/>
      <use transform="translate(821.435547 0.015625)" xlink:href="#DejaVuSans-41"/>
     </g>
    </g>
   </g>
   <g id="line2d_15">
    <path clip-path="url(#p73b98311b3)" d="M 182.752066 48.053571 
L 193.259441 112.767857 
L 209.020504 177.482143 
L 219.527879 242.196429 
L 224.781567 203.367857 
L 235.288942 242.196429 
L 245.796318 219.546429 
L 256.303693 196.896429 
L 272.064756 209.839286 
L 277.318443 222.782143 
L 287.825819 213.075 
L 303.586881 219.546429 
L 314.094257 226.017857 
L 324.601632 222.782143 
L 335.109007 226.017857 
" style="fill:none;stroke:#c44e52;stroke-dasharray:7.4,3.2;stroke-dashoffset:0;stroke-width:2;"/>
   </g>
   <g id="line2d_16">
    <path clip-path="url(#p73b98311b3)" d="M 188.005754 310.146429 
L 198.513129 245.432143 
L 203.766817 180.717857 
L 214.274192 116.003571 
L 230.035255 154.832143 
L 240.54263 193.660714 
L 251.050005 232.489286 
L 261.55738 193.660714 
L 266.811068 216.310714 
L 282.572131 238.960714 
L 293.079506 226.017857 
L 298.333194 213.075 
L 308.840569 222.782143 
L 319.347944 232.489286 
L 329.85532 226.017857 
" style="fill:none;stroke:#c44e52;stroke-linecap:square;stroke-width:2;"/>
   </g>
   <g id="line2d_17">
    <defs>
     <path d="M 0 4.5 
C 1.193414 4.5 2.338109 4.025852 3.181981 3.181981 
C 4.025852 2.338109 4.5 1.193414 4.5 0 
C 4.5 -1.193414 4.025852 -2.338109 3.181981 -3.181981 
C 2.338109 -4.025852 1.193414 -4.5 0 -4.5 
C -1.193414 -4.5 -2.338109 -4.025852 -3.181981 -3.181981 
C -4.025852 -2.338109 -4.5 -1.193414 -4.5 0 
C -4.5 1.193414 -4.025852 2.338109 -3.181981 3.181981 
C -2.338109 4.025852 -1.193414 4.5 0 4.5 
z
" id="mce4e2a2198" style="stroke:#000000;"/>
    </defs>
    <g clip-path="url(#p73b98311b3)">
     <use style="fill:#c44e52;stroke:#000000;" x="182.752066" xlink:href="#mce4e2a2198" y="48.053571"/>
     <use style="fill:#c44e52;stroke:#000000;" x="193.259441" xlink:href="#mce4e2a2198" y="112.767857"/>
     <use style="fill:#c44e52;stroke:#000000;" x="209.020504" xlink:href="#mce4e2a2198" y="177.482143"/>
     <use style="fill:#c44e52;stroke:#000000;" x="214.274192" xlink:href="#mce4e2a2198" y="116.003571"/>
     <use style="fill:#c44e52;stroke:#000000;" x="224.781567" xlink:href="#mce4e2a2198" y="203.367857"/>
     <use style="fill:#c44e52;stroke:#000000;" x="230.035255" xlink:href="#mce4e2a2198" y="154.832143"/>
     <use style="fill:#c44e52;stroke:#000000;" x="240.54263" xlink:href="#mce4e2a2198" y="193.660714"/>
     <use style="fill:#c44e52;stroke:#000000;" x="256.303693" xlink:href="#mce4e2a2198" y="196.896429"/>
     <use style="fill:#c44e52;stroke:#000000;" x="261.55738" xlink:href="#mce4e2a2198" y="193.660714"/>
     <use style="fill:#c44e52;stroke:#000000;" x="266.811068" xlink:href="#mce4e2a2198" y="216.310714"/>
     <use style="fill:#c44e52;stroke:#000000;" x="272.064756" xlink:href="#mce4e2a2198" y="209.839286"/>
     <use style="fill:#c44e52;stroke:#000000;" x="287.825819" xlink:href="#mce4e2a2198" y="213.075"/>
     <use style="fill:#c44e52;stroke:#000000;" x="298.333194" xlink:href="#mce4e2a2198" y="213.075"/>
     <use style="fill:#c44e52;stroke:#000000;" x="303.586881" xlink:href="#mce4e2a2198" y="219.546429"/>
     <use style="fill:#c44e52;stroke:#000000;" x="308.840569" xlink:href="#mce4e2a2198" y="222.782143"/>
     <use style="fill:#c44e52;stroke:#000000;" x="324.601632" xlink:href="#mce4e2a2198" y="222.782143"/>
     <use style="fill:#c44e52;stroke:#000000;" x="356.123758" xlink:href="#mce4e2a2198" y="226.017857"/>
     <use style="fill:#c44e52;stroke:#000000;" x="361.377445" xlink:href="#mce4e2a2198" y="226.017857"/>
     <use style="fill:#c44e52;stroke:#000000;" x="371.884821" xlink:href="#mce4e2a2198" y="219.546429"/>
     <use style="fill:#c44e52;stroke:#000000;" x="377.138508" xlink:href="#mce4e2a2198" y="219.546429"/>
     <use style="fill:#c44e52;stroke:#000000;" x="392.899571" xlink:href="#mce4e2a2198" y="216.310714"/>
     <use style="fill:#c44e52;stroke:#000000;" x="413.914322" xlink:href="#mce4e2a2198" y="213.075"/>
     <use style="fill:#c44e52;stroke:#000000;" x="424.421697" xlink:href="#mce4e2a2198" y="213.075"/>
     <use style="fill:#c44e52;stroke:#000000;" x="434.929072" xlink:href="#mce4e2a2198" y="213.075"/>
     <use style="fill:#c44e52;stroke:#000000;" x="440.18276" xlink:href="#mce4e2a2198" y="213.075"/>
     <use style="fill:#c44e52;stroke:#000000;" x="450.690135" xlink:href="#mce4e2a2198" y="209.839286"/>
     <use style="fill:#c44e52;stroke:#000000;" x="455.943823" xlink:href="#mce4e2a2198" y="277.789286"/>
     <use style="fill:#c44e52;stroke:#000000;" x="466.451198" xlink:href="#mce4e2a2198" y="213.075"/>
     <use style="fill:#c44e52;stroke:#000000;" x="476.958573" xlink:href="#mce4e2a2198" y="206.603571"/>
     <use style="fill:#c44e52;stroke:#000000;" x="487.465948" xlink:href="#mce4e2a2198" y="203.367857"/>
     <use style="fill:#c44e52;stroke:#000000;" x="497.973324" xlink:href="#mce4e2a2198" y="200.132143"/>
     <use style="fill:#c44e52;stroke:#000000;" x="513.734386" xlink:href="#mce4e2a2198" y="200.132143"/>
     <use style="fill:#c44e52;stroke:#000000;" x="524.241762" xlink:href="#mce4e2a2198" y="196.896429"/>
     <use style="fill:#c44e52;stroke:#000000;" x="540.002825" xlink:href="#mce4e2a2198" y="196.896429"/>
     <use style="fill:#c44e52;stroke:#000000;" x="545.256512" xlink:href="#mce4e2a2198" y="196.896429"/>
     <use style="fill:#c44e52;stroke:#000000;" x="555.763887" xlink:href="#mce4e2a2198" y="193.660714"/>
     <use style="fill:#c44e52;stroke:#000000;" x="566.271263" xlink:href="#mce4e2a2198" y="193.660714"/>
     <use style="fill:#c44e52;stroke:#000000;" x="576.778638" xlink:href="#mce4e2a2198" y="190.425"/>
     <use style="fill:#c44e52;stroke:#000000;" x="587.286013" xlink:href="#mce4e2a2198" y="190.425"/>
     <use style="fill:#c44e52;stroke:#000000;" x="597.793388" xlink:href="#mce4e2a2198" y="190.425"/>
    </g>
   </g>
   <g id="line2d_18">
    <defs>
     <path d="M -4.5 4.5 
L 4.5 4.5 
L 4.5 -4.5 
L -4.5 -4.5 
z
" id="m4449c9b336" style="stroke:#c44e52;stroke-linejoin:miter;"/>
    </defs>
    <g clip-path="url(#p73b98311b3)">
     <use style="fill:#ffffff;stroke:#c44e52;stroke-linejoin:miter;" x="188.005754" xlink:href="#m4449c9b336" y="310.146429"/>
     <use style="fill:#ffffff;stroke:#c44e52;stroke-linejoin:miter;" x="198.513129" xlink:href="#m4449c9b336" y="245.432143"/>
     <use style="fill:#ffffff;stroke:#c44e52;stroke-linejoin:miter;" x="203.766817" xlink:href="#m4449c9b336" y="180.717857"/>
     <use style="fill:#ffffff;stroke:#c44e52;stroke-linejoin:miter;" x="219.527879" xlink:href="#m4449c9b336" y="242.196429"/>
     <use style="fill:#ffffff;stroke:#c44e52;stroke-linejoin:miter;" x="235.288942" xlink:href="#m4449c9b336" y="242.196429"/>
     <use style="fill:#ffffff;stroke:#c44e52;stroke-linejoin:miter;" x="245.796318" xlink:href="#m4449c9b336" y="219.546429"/>
     <use style="fill:#ffffff;stroke:#c44e52;stroke-linejoin:miter;" x="251.050005" xlink:href="#m4449c9b336" y="232.489286"/>
     <use style="fill:#ffffff;stroke:#c44e52;stroke-linejoin:miter;" x="277.318443" xlink:href="#m4449c9b336" y="222.782143"/>
     <use style="fill:#ffffff;stroke:#c44e52;stroke-linejoin:miter;" x="282.572131" xlink:href="#m4449c9b336" y="238.960714"/>
     <use style="fill:#ffffff;stroke:#c44e52;stroke-linejoin:miter;" x="293.079506" xlink:href="#m4449c9b336" y="226.017857"/>
     <use style="fill:#ffffff;stroke:#c44e52;stroke-linejoin:miter;" x="314.094257" xlink:href="#m4449c9b336" y="226.017857"/>
     <use style="fill:#ffffff;stroke:#c44e52;stroke-linejoin:miter;" x="319.347944" xlink:href="#m4449c9b336" y="232.489286"/>
     <use style="fill:#ffffff;stroke:#c44e52;stroke-linejoin:miter;" x="329.85532" xlink:href="#m4449c9b336" y="226.017857"/>
     <use style="fill:#ffffff;stroke:#c44e52;stroke-linejoin:miter;" x="335.109007" xlink:href="#m4449c9b336" y="226.017857"/>
     <use style="fill:#ffffff;stroke:#c44e52;stroke-linejoin:miter;" x="340.362695" xlink:href="#m4449c9b336" y="284.260714"/>
     <use style="fill:#ffffff;stroke:#c44e52;stroke-linejoin:miter;" x="345.616382" xlink:href="#m4449c9b336" y="229.253571"/>
     <use style="fill:#ffffff;stroke:#c44e52;stroke-linejoin:miter;" x="350.87007" xlink:href="#m4449c9b336" y="226.017857"/>
     <use style="fill:#ffffff;stroke:#c44e52;stroke-linejoin:miter;" x="366.631133" xlink:href="#m4449c9b336" y="277.789286"/>
     <use style="fill:#ffffff;stroke:#c44e52;stroke-linejoin:miter;" x="382.392196" xlink:href="#m4449c9b336" y="290.732143"/>
     <use style="fill:#ffffff;stroke:#c44e52;stroke-linejoin:miter;" x="387.645883" xlink:href="#m4449c9b336" y="216.310714"/>
     <use style="fill:#ffffff;stroke:#c44e52;stroke-linejoin:miter;" x="398.153259" xlink:href="#m4449c9b336" y="287.496429"/>
     <use style="fill:#ffffff;stroke:#c44e52;stroke-linejoin:miter;" x="403.406946" xlink:href="#m4449c9b336" y="209.839286"/>
     <use style="fill:#ffffff;stroke:#c44e52;stroke-linejoin:miter;" x="408.660634" xlink:href="#m4449c9b336" y="213.075"/>
     <use style="fill:#ffffff;stroke:#c44e52;stroke-linejoin:miter;" x="419.168009" xlink:href="#m4449c9b336" y="213.075"/>
     <use style="fill:#ffffff;stroke:#c44e52;stroke-linejoin:miter;" x="429.675384" xlink:href="#m4449c9b336" y="213.075"/>
     <use style="fill:#ffffff;stroke:#c44e52;stroke-linejoin:miter;" x="445.436447" xlink:href="#m4449c9b336" y="271.317857"/>
     <use style="fill:#ffffff;stroke:#c44e52;stroke-linejoin:miter;" x="461.19751" xlink:href="#m4449c9b336" y="274.553571"/>
     <use style="fill:#ffffff;stroke:#c44e52;stroke-linejoin:miter;" x="471.704885" xlink:href="#m4449c9b336" y="281.025"/>
     <use style="fill:#ffffff;stroke:#c44e52;stroke-linejoin:miter;" x="482.212261" xlink:href="#m4449c9b336" y="284.260714"/>
     <use style="fill:#ffffff;stroke:#c44e52;stroke-linejoin:miter;" x="492.719636" xlink:href="#m4449c9b336" y="287.496429"/>
     <use style="fill:#ffffff;stroke:#c44e52;stroke-linejoin:miter;" x="503.227011" xlink:href="#m4449c9b336" y="290.732143"/>
     <use style="fill:#ffffff;stroke:#c44e52;stroke-linejoin:miter;" x="508.480699" xlink:href="#m4449c9b336" y="196.896429"/>
     <use style="fill:#ffffff;stroke:#c44e52;stroke-linejoin:miter;" x="518.988074" xlink:href="#m4449c9b336" y="287.496429"/>
     <use style="fill:#ffffff;stroke:#c44e52;stroke-linejoin:miter;" x="529.495449" xlink:href="#m4449c9b336" y="287.496429"/>
     <use style="fill:#ffffff;stroke:#c44e52;stroke-linejoin:miter;" x="534.749137" xlink:href="#m4449c9b336" y="193.660714"/>
     <use style="fill:#ffffff;stroke:#c44e52;stroke-linejoin:miter;" x="550.5102" xlink:href="#m4449c9b336" y="287.496429"/>
     <use style="fill:#ffffff;stroke:#c44e52;stroke-linejoin:miter;" x="561.017575" xlink:href="#m4449c9b336" y="287.496429"/>
     <use style="fill:#ffffff;stroke:#c44e52;stroke-linejoin:miter;" x="571.52495" xlink:href="#m4449c9b336" y="290.732143"/>
     <use style="fill:#ffffff;stroke:#c44e52;stroke-linejoin:miter;" x="582.032326" xlink:href="#m4449c9b336" y="290.732143"/>
     <use style="fill:#ffffff;stroke:#c44e52;stroke-linejoin:miter;" x="592.539701" xlink:href="#m4449c9b336" y="293.967857"/>
    </g>
   </g>
   <g id="line2d_19">
    <path clip-path="url(#p73b98311b3)" d="M 340.362695 256.024205 
L 345.616382 252.559055 
L 350.87007 249.187762 
L 356.123758 250.839635 
L 361.377445 252.381582 
L 366.631133 250.912965 
L 371.884821 252.199457 
L 377.138508 253.405218 
L 382.392196 252.326269 
L 387.645883 249.270498 
L 392.899571 250.400414 
L 398.153259 249.391567 
L 403.406946 246.409427 
L 408.660634 243.650718 
L 413.914322 244.768765 
L 419.168009 242.176842 
L 424.421697 243.280639 
L 429.675384 240.837282 
L 434.929072 241.924501 
L 440.18276 242.960681 
L 445.436447 241.944847 
L 450.690135 242.878587 
L 455.943823 245.188324 
L 461.19751 244.238223 
L 466.451198 245.135489 
L 471.704885 244.327335 
L 476.958573 245.08763 
L 482.212261 244.360693 
L 487.465948 245.043239 
L 492.719636 244.391054 
L 497.973324 245.002038 
L 503.227011 244.418657 
L 508.480699 242.201015 
L 513.734386 242.828187 
L 518.988074 242.249442 
L 524.241762 242.81248 
L 529.495449 242.257352 
L 534.749137 240.145228 
L 540.002825 240.723923 
L 545.256512 241.280574 
L 550.5102 240.762453 
L 555.763887 241.262601 
L 561.017575 240.764394 
L 566.271263 241.245244 
L 571.52495 240.799184 
L 576.778638 241.229097 
L 582.032326 240.800669 
L 587.286013 241.213457 
L 592.539701 240.831938 
L 597.793388 241.227879 
" style="fill:none;stroke:#c44e52;stroke-linecap:square;stroke-width:4;"/>
   </g>
   <g id="line2d_20">
    <path clip-path="url(#p73b98311b3)" d="M 182.752066 238.32046 
L 188.005754 205.604042 
L 193.259441 228.85419 
L 198.513129 214.245608 
L 203.766817 201.6677 
L 209.020504 209.959488 
L 214.274192 214.903855 
L 219.527879 210.339754 
L 224.781567 216.717022 
L 230.035255 225.413828 
L 235.288942 221.929954 
L 240.54263 230.60848 
L 245.796318 227.560169 
L 251.050005 225.195333 
L 256.303693 227.172468 
L 261.55738 234.159074 
L 266.811068 241.277441 
L 272.064756 248.138159 
L 277.318443 245.576913 
L 282.572131 243.348433 
L 287.825819 249.134529 
L 293.079506 247.045379 
L 298.333194 252.299196 
L 303.586881 257.112518 
L 308.840569 261.700339 
L 314.094257 259.476237 
L 319.347944 257.443174 
L 324.601632 261.466197 
L 329.85532 259.505489 
L 335.109007 257.696742 
" style="fill:none;stroke:#c44e52;stroke-dasharray:7.4,3.2;stroke-dashoffset:0;stroke-opacity:0.3;stroke-width:2;"/>
   </g>
   <g id="line2d_21">
    <path clip-path="url(#p73b98311b3)" d="M 162 179.1 
L 618.545455 179.1 
" style="fill:none;stroke:#808080;stroke-dasharray:8.325,3.6;stroke-dashoffset:0;stroke-width:2.25;"/>
   </g>
   <g id="patch_3">
    <path d="M 162 308.528571 
L 162 49.671429 
" style="fill:none;stroke:#000000;stroke-linecap:square;stroke-linejoin:miter;stroke-width:1.875;"/>
   </g>
   <g id="patch_4">
    <path d="M 182.752066 315 
L 603.047076 315 
" style="fill:none;stroke:#000000;stroke-linecap:square;stroke-linejoin:miter;stroke-width:1.875;"/>
   </g>
   <g id="text_17">
    <!-- Interoception -->
    <defs>
     <path d="M 30.609375 48.390625 
Q 23.390625 48.390625 19.1875 42.75 
Q 14.984375 37.109375 14.984375 27.296875 
Q 14.984375 17.484375 19.15625 11.84375 
Q 23.34375 6.203125 30.609375 6.203125 
Q 37.796875 6.203125 41.984375 11.859375 
Q 46.1875 17.53125 46.1875 27.296875 
Q 46.1875 37.015625 41.984375 42.703125 
Q 37.796875 48.390625 30.609375 48.390625 
z
M 30.609375 56 
Q 42.328125 56 49.015625 48.375 
Q 55.71875 40.765625 55.71875 27.296875 
Q 55.71875 13.875 49.015625 6.21875 
Q 42.328125 -1.421875 30.609375 -1.421875 
Q 18.84375 -1.421875 12.171875 6.21875 
Q 5.515625 13.875 5.515625 27.296875 
Q 5.515625 40.765625 12.171875 48.375 
Q 18.84375 56 30.609375 56 
z
" id="DejaVuSans-111"/>
     <path d="M 48.78125 52.59375 
L 48.78125 44.1875 
Q 44.96875 46.296875 41.140625 47.34375 
Q 37.3125 48.390625 33.40625 48.390625 
Q 24.65625 48.390625 19.8125 42.84375 
Q 14.984375 37.3125 14.984375 27.296875 
Q 14.984375 17.28125 19.8125 11.734375 
Q 24.65625 6.203125 33.40625 6.203125 
Q 37.3125 6.203125 41.140625 7.25 
Q 44.96875 8.296875 48.78125 10.40625 
L 48.78125 2.09375 
Q 45.015625 0.34375 40.984375 -0.53125 
Q 36.96875 -1.421875 32.421875 -1.421875 
Q 20.0625 -1.421875 12.78125 6.34375 
Q 5.515625 14.109375 5.515625 27.296875 
Q 5.515625 40.671875 12.859375 48.328125 
Q 20.21875 56 33.015625 56 
Q 37.15625 56 41.109375 55.140625 
Q 45.0625 54.296875 48.78125 52.59375 
z
" id="DejaVuSans-99"/>
     <path d="M 18.109375 8.203125 
L 18.109375 -20.796875 
L 9.078125 -20.796875 
L 9.078125 54.6875 
L 18.109375 54.6875 
L 18.109375 46.390625 
Q 20.953125 51.265625 25.265625 53.625 
Q 29.59375 56 35.59375 56 
Q 45.5625 56 51.78125 48.09375 
Q 58.015625 40.1875 58.015625 27.296875 
Q 58.015625 14.40625 51.78125 6.484375 
Q 45.5625 -1.421875 35.59375 -1.421875 
Q 29.59375 -1.421875 25.265625 0.953125 
Q 20.953125 3.328125 18.109375 8.203125 
z
M 48.6875 27.296875 
Q 48.6875 37.203125 44.609375 42.84375 
Q 40.53125 48.484375 33.40625 48.484375 
Q 26.265625 48.484375 22.1875 42.84375 
Q 18.109375 37.203125 18.109375 27.296875 
Q 18.109375 17.390625 22.1875 11.75 
Q 26.265625 6.109375 33.40625 6.109375 
Q 40.53125 6.109375 44.609375 11.75 
Q 48.6875 17.390625 48.6875 27.296875 
z
" id="DejaVuSans-112"/>
    </defs>
    <g transform="translate(330.204759 37.2)scale(0.18 -0.18)">
     <use xlink:href="#DejaVuSans-73"/>
     <use x="29.492188" xlink:href="#DejaVuSans-110"/>
     <use x="92.871094" xlink:href="#DejaVuSans-116"/>
     <use x="132.080078" xlink:href="#DejaVuSans-101"/>
     <use x="193.603516" xlink:href="#DejaVuSans-114"/>
     <use x="234.685547" xlink:href="#DejaVuSans-111"/>
     <use x="295.867188" xlink:href="#DejaVuSans-99"/>
     <use x="350.847656" xlink:href="#DejaVuSans-101"/>
     <use x="412.371094" xlink:href="#DejaVuSans-112"/>
     <use x="475.847656" xlink:href="#DejaVuSans-116"/>
     <use x="515.056641" xlink:href="#DejaVuSans-105"/>
     <use x="542.839844" xlink:href="#DejaVuSans-111"/>
     <use x="604.021484" xlink:href="#DejaVuSans-110"/>
    </g>
   </g>
   <g id="legend_1">
    <g id="patch_5">
     <path d="M 512.795455 122.258438 
L 615.245455 122.258438 
Q 618.545455 122.258438 618.545455 118.958438 
L 618.545455 46.5 
Q 618.545455 43.2 615.245455 43.2 
L 512.795455 43.2 
Q 509.495455 43.2 509.495455 46.5 
L 509.495455 118.958438 
Q 509.495455 122.258438 512.795455 122.258438 
z
" style="fill:#ffffff;opacity:0.8;stroke:#cccccc;stroke-linejoin:miter;stroke-width:1.5;"/>
    </g>
    <g id="text_18">
     <!-- Estimation -->
     <defs>
      <path d="M 9.8125 72.90625 
L 55.90625 72.90625 
L 55.90625 64.59375 
L 19.671875 64.59375 
L 19.671875 43.015625 
L 54.390625 43.015625 
L 54.390625 34.71875 
L 19.671875 34.71875 
L 19.671875 8.296875 
L 56.78125 8.296875 
L 56.78125 0 
L 9.8125 0 
z
" id="DejaVuSans-69"/>
      <path d="M 52 44.1875 
Q 55.375 50.25 60.0625 53.125 
Q 64.75 56 71.09375 56 
Q 79.640625 56 84.28125 50.015625 
Q 88.921875 44.046875 88.921875 33.015625 
L 88.921875 0 
L 79.890625 0 
L 79.890625 32.71875 
Q 79.890625 40.578125 77.09375 44.375 
Q 74.3125 48.1875 68.609375 48.1875 
Q 61.625 48.1875 57.5625 43.546875 
Q 53.515625 38.921875 53.515625 30.90625 
L 53.515625 0 
L 44.484375 0 
L 44.484375 32.71875 
Q 44.484375 40.625 41.703125 44.40625 
Q 38.921875 48.1875 33.109375 48.1875 
Q 26.21875 48.1875 22.15625 43.53125 
Q 18.109375 38.875 18.109375 30.90625 
L 18.109375 0 
L 9.078125 0 
L 9.078125 54.6875 
L 18.109375 54.6875 
L 18.109375 46.1875 
Q 21.1875 51.21875 25.484375 53.609375 
Q 29.78125 56 35.6875 56 
Q 41.65625 56 45.828125 52.96875 
Q 50 49.953125 52 44.1875 
z
" id="DejaVuSans-109"/>
     </defs>
     <g transform="translate(516.095455 63.477188)scale(0.18 -0.18)">
      <use xlink:href="#DejaVuSans-69"/>
      <use x="63.183594" xlink:href="#DejaVuSans-115"/>
      <use x="115.283203" xlink:href="#DejaVuSans-116"/>
      <use x="154.492188" xlink:href="#DejaVuSans-105"/>
      <use x="182.275391" xlink:href="#DejaVuSans-109"/>
      <use x="279.6875" xlink:href="#DejaVuSans-97"/>
      <use x="340.966797" xlink:href="#DejaVuSans-116"/>
      <use x="380.175781" xlink:href="#DejaVuSans-105"/>
      <use x="407.958984" xlink:href="#DejaVuSans-111"/>
      <use x="469.140625" xlink:href="#DejaVuSans-110"/>
     </g>
    </g>
    <g id="line2d_22"/>
    <g id="line2d_23">
     <g>
      <use style="fill:#c44e52;stroke:#000000;" x="536.789009" xlink:href="#mce4e2a2198" y="82.233047"/>
     </g>
    </g>
    <g id="text_19">
     <!-- More -->
     <g transform="translate(566.489009 88.008047)scale(0.165 -0.165)">
      <use xlink:href="#DejaVuSans-77"/>
      <use x="86.279297" xlink:href="#DejaVuSans-111"/>
      <use x="147.460938" xlink:href="#DejaVuSans-114"/>
      <use x="188.542969" xlink:href="#DejaVuSans-101"/>
     </g>
    </g>
    <g id="line2d_24"/>
    <g id="line2d_25">
     <g>
      <use style="fill:#ffffff;stroke:#c44e52;stroke-linejoin:miter;" x="536.789009" xlink:href="#m4449c9b336" y="106.451953"/>
     </g>
    </g>
    <g id="text_20">
     <!-- Less -->
     <defs>
      <path d="M 9.8125 72.90625 
L 19.671875 72.90625 
L 19.671875 8.296875 
L 55.171875 8.296875 
L 55.171875 0 
L 9.8125 0 
z
" id="DejaVuSans-76"/>
     </defs>
     <g transform="translate(566.489009 112.226953)scale(0.165 -0.165)">
      <use xlink:href="#DejaVuSans-76"/>
      <use x="55.697266" xlink:href="#DejaVuSans-101"/>
      <use x="117.220703" xlink:href="#DejaVuSans-115"/>
      <use x="169.320312" xlink:href="#DejaVuSans-115"/>
     </g>
    </g>
   </g>
  </g>
  <g id="axes_2">
   <g id="patch_6">
    <path d="M 709.854545 315 
L 1166.4 315 
L 1166.4 43.2 
L 709.854545 43.2 
z
" style="fill:#ffffff;"/>
   </g>
   <g id="PolyCollection_3">
    <defs>
     <path d="M 888.21724 -195.460714 
L 888.21724 -243.996429 
L 893.470928 -240.760714 
L 898.724616 -240.760714 
L 903.978303 -237.525 
L 909.231991 -234.289286 
L 914.485678 -237.525 
L 919.739366 -237.525 
L 924.993054 -234.289286 
L 930.246741 -234.289286 
L 935.500429 -231.053571 
L 940.754117 -231.053571 
L 946.007804 -231.053571 
L 951.261492 -231.053571 
L 956.515179 -227.817857 
L 961.768867 -231.053571 
L 967.022555 -227.817857 
L 972.276242 -227.817857 
L 977.52993 -224.582143 
L 982.783618 -224.582143 
L 988.037305 -224.582143 
L 993.290993 -224.582143 
L 998.54468 -224.582143 
L 1003.798368 -224.582143 
L 1009.052056 -224.582143 
L 1014.305743 -221.346429 
L 1019.559431 -221.346429 
L 1024.813119 -221.346429 
L 1030.066806 -221.346429 
L 1035.320494 -221.346429 
L 1040.574181 -221.346429 
L 1045.827869 -221.346429 
L 1051.081557 -224.582143 
L 1056.335244 -224.582143 
L 1061.588932 -224.582143 
L 1066.84262 -221.346429 
L 1072.096307 -224.582143 
L 1077.349995 -221.346429 
L 1082.603682 -221.346429 
L 1087.85737 -221.346429 
L 1093.111058 -221.346429 
L 1098.364745 -221.346429 
L 1103.618433 -221.346429 
L 1108.872121 -218.110714 
L 1114.125808 -218.110714 
L 1119.379496 -218.110714 
L 1124.633183 -214.875 
L 1129.886871 -218.110714 
L 1135.140559 -218.110714 
L 1140.394246 -218.110714 
L 1145.647934 -218.110714 
L 1145.647934 -185.753571 
L 1145.647934 -185.753571 
L 1140.394246 -185.753571 
L 1135.140559 -185.753571 
L 1129.886871 -185.753571 
L 1124.633183 -185.753571 
L 1119.379496 -185.753571 
L 1114.125808 -185.753571 
L 1108.872121 -188.989286 
L 1103.618433 -188.989286 
L 1098.364745 -188.989286 
L 1093.111058 -188.989286 
L 1087.85737 -188.989286 
L 1082.603682 -188.989286 
L 1077.349995 -188.989286 
L 1072.096307 -188.989286 
L 1066.84262 -188.989286 
L 1061.588932 -188.989286 
L 1056.335244 -188.989286 
L 1051.081557 -188.989286 
L 1045.827869 -185.753571 
L 1040.574181 -185.753571 
L 1035.320494 -185.753571 
L 1030.066806 -185.753571 
L 1024.813119 -185.753571 
L 1019.559431 -185.753571 
L 1014.305743 -185.753571 
L 1009.052056 -185.753571 
L 1003.798368 -185.753571 
L 998.54468 -185.753571 
L 993.290993 -185.753571 
L 988.037305 -185.753571 
L 982.783618 -182.517857 
L 977.52993 -185.753571 
L 972.276242 -188.989286 
L 967.022555 -185.753571 
L 961.768867 -188.989286 
L 956.515179 -185.753571 
L 951.261492 -188.989286 
L 946.007804 -188.989286 
L 940.754117 -185.753571 
L 935.500429 -188.989286 
L 930.246741 -192.225 
L 924.993054 -188.989286 
L 919.739366 -192.225 
L 914.485678 -188.989286 
L 909.231991 -188.989286 
L 903.978303 -192.225 
L 898.724616 -195.460714 
L 893.470928 -192.225 
L 888.21724 -195.460714 
z
" id="mc9109e4632" style="stroke:#4c72b0;stroke-opacity:0.2;stroke-width:1.5;"/>
    </defs>
    <g clip-path="url(#p527a24c00c)">
     <use style="fill:#4c72b0;fill-opacity:0.2;stroke:#4c72b0;stroke-opacity:0.2;stroke-width:1.5;" x="0" xlink:href="#mc9109e4632" y="360"/>
    </g>
   </g>
   <g id="PolyCollection_4">
    <defs>
     <path d="M 730.606612 -137.217857 
L 730.606612 -305.475 
L 735.860299 -286.060714 
L 741.113987 -295.767857 
L 746.367674 -266.646429 
L 751.621362 -279.589286 
L 756.87505 -256.939286 
L 762.128737 -247.232143 
L 767.382425 -250.467857 
L 772.636113 -253.703571 
L 777.8898 -266.646429 
L 783.143488 -256.939286 
L 788.397175 -250.467857 
L 793.650863 -250.467857 
L 798.904551 -243.996429 
L 804.158238 -240.760714 
L 809.411926 -237.525 
L 814.665614 -237.525 
L 819.919301 -231.053571 
L 825.172989 -234.289286 
L 830.426676 -234.289286 
L 835.680364 -240.760714 
L 840.934052 -247.232143 
L 846.187739 -243.996429 
L 851.441427 -250.467857 
L 856.695115 -247.232143 
L 861.948802 -250.467857 
L 867.20249 -250.467857 
L 872.456177 -253.703571 
L 877.709865 -250.467857 
L 882.963553 -250.467857 
L 882.963553 -198.696429 
L 882.963553 -198.696429 
L 877.709865 -201.932143 
L 872.456177 -201.932143 
L 867.20249 -198.696429 
L 861.948802 -198.696429 
L 856.695115 -195.460714 
L 851.441427 -195.460714 
L 846.187739 -188.989286 
L 840.934052 -192.225 
L 835.680364 -185.753571 
L 830.426676 -182.517857 
L 825.172989 -179.282143 
L 819.919301 -172.810714 
L 814.665614 -182.517857 
L 809.411926 -179.282143 
L 804.158238 -188.989286 
L 798.904551 -198.696429 
L 793.650863 -198.696429 
L 788.397175 -192.225 
L 783.143488 -192.225 
L 777.8898 -195.460714 
L 772.636113 -188.989286 
L 767.382425 -179.282143 
L 762.128737 -166.339286 
L 756.87505 -179.282143 
L 751.621362 -182.517857 
L 746.367674 -159.867857 
L 741.113987 -169.575 
L 735.860299 -114.567857 
L 730.606612 -137.217857 
z
" id="m1d9382d670" style="stroke:#4c72b0;stroke-opacity:0.15;stroke-width:1.5;"/>
    </defs>
    <g clip-path="url(#p527a24c00c)">
     <use style="fill:#4c72b0;fill-opacity:0.15;stroke:#4c72b0;stroke-opacity:0.15;stroke-width:1.5;" x="0" xlink:href="#m1d9382d670" y="360"/>
    </g>
   </g>
   <g id="matplotlib.axis_3">
    <g id="xtick_10">
     <g id="line2d_26">
      <g>
       <use style="stroke:#000000;stroke-width:1.875;" x="730.606612" xlink:href="#mc816264c17" y="315"/>
      </g>
     </g>
     <g id="text_21">
      <!-- 0 -->
      <g transform="translate(725.357549 340.037422)scale(0.165 -0.165)">
       <use xlink:href="#DejaVuSans-48"/>
      </g>
     </g>
    </g>
    <g id="xtick_11">
     <g id="line2d_27">
      <g>
       <use style="stroke:#000000;stroke-width:1.875;" x="783.143488" xlink:href="#mc816264c17" y="315"/>
      </g>
     </g>
     <g id="text_22">
      <!-- 10 -->
      <g transform="translate(772.645363 340.037422)scale(0.165 -0.165)">
       <use xlink:href="#DejaVuSans-49"/>
       <use x="63.623047" xlink:href="#DejaVuSans-48"/>
      </g>
     </g>
    </g>
    <g id="xtick_12">
     <g id="line2d_28">
      <g>
       <use style="stroke:#000000;stroke-width:1.875;" x="835.680364" xlink:href="#mc816264c17" y="315"/>
      </g>
     </g>
     <g id="text_23">
      <!-- 20 -->
      <g transform="translate(825.182239 340.037422)scale(0.165 -0.165)">
       <use xlink:href="#DejaVuSans-50"/>
       <use x="63.623047" xlink:href="#DejaVuSans-48"/>
      </g>
     </g>
    </g>
    <g id="xtick_13">
     <g id="line2d_29">
      <g>
       <use style="stroke:#000000;stroke-width:1.875;" x="888.21724" xlink:href="#mc816264c17" y="315"/>
      </g>
     </g>
     <g id="text_24">
      <!-- 30 -->
      <g transform="translate(877.719115 340.037422)scale(0.165 -0.165)">
       <use xlink:href="#DejaVuSans-51"/>
       <use x="63.623047" xlink:href="#DejaVuSans-48"/>
      </g>
     </g>
    </g>
    <g id="xtick_14">
     <g id="line2d_30">
      <g>
       <use style="stroke:#000000;stroke-width:1.875;" x="940.754117" xlink:href="#mc816264c17" y="315"/>
      </g>
     </g>
     <g id="text_25">
      <!-- 40 -->
      <g transform="translate(930.255992 340.037422)scale(0.165 -0.165)">
       <use xlink:href="#DejaVuSans-52"/>
       <use x="63.623047" xlink:href="#DejaVuSans-48"/>
      </g>
     </g>
    </g>
    <g id="xtick_15">
     <g id="line2d_31">
      <g>
       <use style="stroke:#000000;stroke-width:1.875;" x="993.290993" xlink:href="#mc816264c17" y="315"/>
      </g>
     </g>
     <g id="text_26">
      <!-- 50 -->
      <g transform="translate(982.792868 340.037422)scale(0.165 -0.165)">
       <use xlink:href="#DejaVuSans-53"/>
       <use x="63.623047" xlink:href="#DejaVuSans-48"/>
      </g>
     </g>
    </g>
    <g id="xtick_16">
     <g id="line2d_32">
      <g>
       <use style="stroke:#000000;stroke-width:1.875;" x="1045.827869" xlink:href="#mc816264c17" y="315"/>
      </g>
     </g>
     <g id="text_27">
      <!-- 60 -->
      <g transform="translate(1035.329744 340.037422)scale(0.165 -0.165)">
       <use xlink:href="#DejaVuSans-54"/>
       <use x="63.623047" xlink:href="#DejaVuSans-48"/>
      </g>
     </g>
    </g>
    <g id="xtick_17">
     <g id="line2d_33">
      <g>
       <use style="stroke:#000000;stroke-width:1.875;" x="1098.364745" xlink:href="#mc816264c17" y="315"/>
      </g>
     </g>
     <g id="text_28">
      <!-- 70 -->
      <g transform="translate(1087.86662 340.037422)scale(0.165 -0.165)">
       <use xlink:href="#DejaVuSans-55"/>
       <use x="63.623047" xlink:href="#DejaVuSans-48"/>
      </g>
     </g>
    </g>
    <g id="xtick_18">
     <g id="line2d_34">
      <g>
       <use style="stroke:#000000;stroke-width:1.875;" x="1150.901622" xlink:href="#mc816264c17" y="315"/>
      </g>
     </g>
     <g id="text_29">
      <!-- 80 -->
      <g transform="translate(1140.403497 340.037422)scale(0.165 -0.165)">
       <use xlink:href="#DejaVuSans-56"/>
       <use x="63.623047" xlink:href="#DejaVuSans-48"/>
      </g>
     </g>
    </g>
    <g id="text_30">
     <!-- Trials -->
     <g transform="translate(913.74571 361.146094)scale(0.18 -0.18)">
      <use xlink:href="#DejaVuSans-84"/>
      <use x="60.865234" xlink:href="#DejaVuSans-114"/>
      <use x="101.978516" xlink:href="#DejaVuSans-105"/>
      <use x="129.761719" xlink:href="#DejaVuSans-97"/>
      <use x="191.041016" xlink:href="#DejaVuSans-108"/>
      <use x="218.824219" xlink:href="#DejaVuSans-115"/>
     </g>
    </g>
   </g>
   <g id="matplotlib.axis_4">
    <g id="ytick_6">
     <g id="line2d_35">
      <g>
       <use style="stroke:#000000;stroke-width:1.875;" x="709.854545" xlink:href="#me9ef910c2e" y="308.528571"/>
      </g>
     </g>
     <g id="text_31">
      <!-- −40 -->
      <g transform="translate(662.531811 314.797282)scale(0.165 -0.165)">
       <use xlink:href="#DejaVuSans-8722"/>
       <use x="83.789062" xlink:href="#DejaVuSans-52"/>
       <use x="147.412109" xlink:href="#DejaVuSans-48"/>
      </g>
     </g>
    </g>
    <g id="ytick_7">
     <g id="line2d_36">
      <g>
       <use style="stroke:#000000;stroke-width:1.875;" x="709.854545" xlink:href="#me9ef910c2e" y="243.814286"/>
      </g>
     </g>
     <g id="text_32">
      <!-- −20 -->
      <g transform="translate(662.531811 250.082997)scale(0.165 -0.165)">
       <use xlink:href="#DejaVuSans-8722"/>
       <use x="83.789062" xlink:href="#DejaVuSans-50"/>
       <use x="147.412109" xlink:href="#DejaVuSans-48"/>
      </g>
     </g>
    </g>
    <g id="ytick_8">
     <g id="line2d_37">
      <g>
       <use style="stroke:#000000;stroke-width:1.875;" x="709.854545" xlink:href="#me9ef910c2e" y="179.1"/>
      </g>
     </g>
     <g id="text_33">
      <!-- 0 -->
      <g transform="translate(686.85642 185.368711)scale(0.165 -0.165)">
       <use xlink:href="#DejaVuSans-48"/>
      </g>
     </g>
    </g>
    <g id="ytick_9">
     <g id="line2d_38">
      <g>
       <use style="stroke:#000000;stroke-width:1.875;" x="709.854545" xlink:href="#me9ef910c2e" y="114.385714"/>
      </g>
     </g>
     <g id="text_34">
      <!-- 20 -->
      <g transform="translate(676.358295 120.654425)scale(0.165 -0.165)">
       <use xlink:href="#DejaVuSans-50"/>
       <use x="63.623047" xlink:href="#DejaVuSans-48"/>
      </g>
     </g>
    </g>
    <g id="ytick_10">
     <g id="line2d_39">
      <g>
       <use style="stroke:#000000;stroke-width:1.875;" x="709.854545" xlink:href="#me9ef910c2e" y="49.671429"/>
      </g>
     </g>
     <g id="text_35">
      <!-- 40 -->
      <g transform="translate(676.358295 55.94014)scale(0.165 -0.165)">
       <use xlink:href="#DejaVuSans-52"/>
       <use x="63.623047" xlink:href="#DejaVuSans-48"/>
      </g>
     </g>
    </g>
    <g id="text_36">
     <!-- Intensity ($\Delta$ BPM) -->
     <g transform="translate(654.751811 256.59)rotate(-90)scale(0.18 -0.18)">
      <use transform="translate(0 0.015625)" xlink:href="#DejaVuSans-73"/>
      <use transform="translate(29.492188 0.015625)" xlink:href="#DejaVuSans-110"/>
      <use transform="translate(92.871094 0.015625)" xlink:href="#DejaVuSans-116"/>
      <use transform="translate(132.080078 0.015625)" xlink:href="#DejaVuSans-101"/>
      <use transform="translate(193.603516 0.015625)" xlink:href="#DejaVuSans-110"/>
      <use transform="translate(256.982422 0.015625)" xlink:href="#DejaVuSans-115"/>
      <use transform="translate(309.082031 0.015625)" xlink:href="#DejaVuSans-105"/>
      <use transform="translate(336.865234 0.015625)" xlink:href="#DejaVuSans-116"/>
      <use transform="translate(376.074219 0.015625)" xlink:href="#DejaVuSans-121"/>
      <use transform="translate(435.253906 0.015625)" xlink:href="#DejaVuSans-32"/>
      <use transform="translate(467.041016 0.015625)" xlink:href="#DejaVuSans-40"/>
      <use transform="translate(506.054688 0.015625)" xlink:href="#DejaVuSans-916"/>
      <use transform="translate(574.462891 0.015625)" xlink:href="#DejaVuSans-32"/>
      <use transform="translate(606.25 0.015625)" xlink:href="#DejaVuSans-66"/>
      <use transform="translate(674.853516 0.015625)" xlink:href="#DejaVuSans-80"/>
      <use transform="translate(735.15625 0.015625)" xlink:href="#DejaVuSans-77"/>
      <use transform="translate(821.435547 0.015625)" xlink:href="#DejaVuSans-41"/>
     </g>
    </g>
   </g>
   <g id="line2d_40">
    <path clip-path="url(#p527a24c00c)" d="M 735.860299 48.053571 
L 746.367674 112.767857 
L 751.621362 177.482143 
L 762.128737 138.653571 
L 772.636113 177.482143 
L 788.397175 154.832143 
L 793.650863 167.775 
L 809.411926 158.067857 
L 819.919301 164.539286 
L 830.426676 171.010714 
L 835.680364 167.775 
L 846.187739 164.539286 
L 861.948802 167.775 
L 867.20249 164.539286 
L 877.709865 167.775 
" style="fill:none;stroke:#4c72b0;stroke-dasharray:7.4,3.2;stroke-dashoffset:0;stroke-width:2;"/>
   </g>
   <g id="line2d_41">
    <path clip-path="url(#p527a24c00c)" d="M 730.606612 310.146429 
L 741.113987 245.432143 
L 756.87505 180.717857 
L 767.382425 219.546429 
L 777.8898 180.717857 
L 783.143488 141.889286 
L 798.904551 164.539286 
L 804.158238 187.189286 
L 814.665614 209.839286 
L 825.172989 196.896429 
L 840.934052 183.953571 
L 851.441427 171.010714 
L 856.695115 158.067857 
L 872.456177 167.775 
L 882.963553 161.303571 
" style="fill:none;stroke:#4c72b0;stroke-linecap:square;stroke-width:2;"/>
   </g>
   <g id="line2d_42">
    <defs>
     <path d="M 0 4.5 
C 1.193414 4.5 2.338109 4.025852 3.181981 3.181981 
C 4.025852 2.338109 4.5 1.193414 4.5 0 
C 4.5 -1.193414 4.025852 -2.338109 3.181981 -3.181981 
C 2.338109 -4.025852 1.193414 -4.5 0 -4.5 
C -1.193414 -4.5 -2.338109 -4.025852 -3.181981 -3.181981 
C -4.025852 -2.338109 -4.5 -1.193414 -4.5 0 
C -4.5 1.193414 -4.025852 2.338109 -3.181981 3.181981 
C -2.338109 4.025852 -1.193414 4.5 0 4.5 
z
" id="mc75353d7d1" style="stroke:#000000;"/>
    </defs>
    <g clip-path="url(#p527a24c00c)">
     <use style="fill:#4c72b0;stroke:#000000;" x="735.860299" xlink:href="#mc75353d7d1" y="48.053571"/>
     <use style="fill:#4c72b0;stroke:#000000;" x="746.367674" xlink:href="#mc75353d7d1" y="112.767857"/>
     <use style="fill:#4c72b0;stroke:#000000;" x="756.87505" xlink:href="#mc75353d7d1" y="180.717857"/>
     <use style="fill:#4c72b0;stroke:#000000;" x="762.128737" xlink:href="#mc75353d7d1" y="138.653571"/>
     <use style="fill:#4c72b0;stroke:#000000;" x="783.143488" xlink:href="#mc75353d7d1" y="141.889286"/>
     <use style="fill:#4c72b0;stroke:#000000;" x="788.397175" xlink:href="#mc75353d7d1" y="154.832143"/>
     <use style="fill:#4c72b0;stroke:#000000;" x="798.904551" xlink:href="#mc75353d7d1" y="164.539286"/>
     <use style="fill:#4c72b0;stroke:#000000;" x="804.158238" xlink:href="#mc75353d7d1" y="187.189286"/>
     <use style="fill:#4c72b0;stroke:#000000;" x="809.411926" xlink:href="#mc75353d7d1" y="158.067857"/>
     <use style="fill:#4c72b0;stroke:#000000;" x="819.919301" xlink:href="#mc75353d7d1" y="164.539286"/>
     <use style="fill:#4c72b0;stroke:#000000;" x="846.187739" xlink:href="#mc75353d7d1" y="164.539286"/>
     <use style="fill:#4c72b0;stroke:#000000;" x="856.695115" xlink:href="#mc75353d7d1" y="158.067857"/>
     <use style="fill:#4c72b0;stroke:#000000;" x="867.20249" xlink:href="#mc75353d7d1" y="164.539286"/>
     <use style="fill:#4c72b0;stroke:#000000;" x="877.709865" xlink:href="#mc75353d7d1" y="167.775"/>
     <use style="fill:#4c72b0;stroke:#000000;" x="882.963553" xlink:href="#mc75353d7d1" y="161.303571"/>
     <use style="fill:#4c72b0;stroke:#000000;" x="888.21724" xlink:href="#mc75353d7d1" y="167.775"/>
     <use style="fill:#4c72b0;stroke:#000000;" x="893.470928" xlink:href="#mc75353d7d1" y="167.775"/>
     <use style="fill:#4c72b0;stroke:#000000;" x="903.978303" xlink:href="#mc75353d7d1" y="167.775"/>
     <use style="fill:#4c72b0;stroke:#000000;" x="909.231991" xlink:href="#mc75353d7d1" y="171.010714"/>
     <use style="fill:#4c72b0;stroke:#000000;" x="924.993054" xlink:href="#mc75353d7d1" y="171.010714"/>
     <use style="fill:#4c72b0;stroke:#000000;" x="935.500429" xlink:href="#mc75353d7d1" y="171.010714"/>
     <use style="fill:#4c72b0;stroke:#000000;" x="940.754117" xlink:href="#mc75353d7d1" y="171.010714"/>
     <use style="fill:#4c72b0;stroke:#000000;" x="956.515179" xlink:href="#mc75353d7d1" y="171.010714"/>
     <use style="fill:#4c72b0;stroke:#000000;" x="967.022555" xlink:href="#mc75353d7d1" y="171.010714"/>
     <use style="fill:#4c72b0;stroke:#000000;" x="977.52993" xlink:href="#mc75353d7d1" y="174.246429"/>
     <use style="fill:#4c72b0;stroke:#000000;" x="982.783618" xlink:href="#mc75353d7d1" y="174.246429"/>
     <use style="fill:#4c72b0;stroke:#000000;" x="998.54468" xlink:href="#mc75353d7d1" y="128.946429"/>
     <use style="fill:#4c72b0;stroke:#000000;" x="1009.052056" xlink:href="#mc75353d7d1" y="122.475"/>
     <use style="fill:#4c72b0;stroke:#000000;" x="1014.305743" xlink:href="#mc75353d7d1" y="187.189286"/>
     <use style="fill:#4c72b0;stroke:#000000;" x="1030.066806" xlink:href="#mc75353d7d1" y="119.239286"/>
     <use style="fill:#4c72b0;stroke:#000000;" x="1040.574181" xlink:href="#mc75353d7d1" y="116.003571"/>
     <use style="fill:#4c72b0;stroke:#000000;" x="1056.335244" xlink:href="#mc75353d7d1" y="112.767857"/>
     <use style="fill:#4c72b0;stroke:#000000;" x="1066.84262" xlink:href="#mc75353d7d1" y="109.532143"/>
     <use style="fill:#4c72b0;stroke:#000000;" x="1077.349995" xlink:href="#mc75353d7d1" y="106.296429"/>
     <use style="fill:#4c72b0;stroke:#000000;" x="1082.603682" xlink:href="#mc75353d7d1" y="106.296429"/>
     <use style="fill:#4c72b0;stroke:#000000;" x="1093.111058" xlink:href="#mc75353d7d1" y="106.296429"/>
     <use style="fill:#4c72b0;stroke:#000000;" x="1103.618433" xlink:href="#mc75353d7d1" y="103.060714"/>
     <use style="fill:#4c72b0;stroke:#000000;" x="1108.872121" xlink:href="#mc75353d7d1" y="203.367857"/>
     <use style="fill:#4c72b0;stroke:#000000;" x="1114.125808" xlink:href="#mc75353d7d1" y="203.367857"/>
     <use style="fill:#4c72b0;stroke:#000000;" x="1124.633183" xlink:href="#mc75353d7d1" y="200.132143"/>
     <use style="fill:#4c72b0;stroke:#000000;" x="1145.647934" xlink:href="#mc75353d7d1" y="112.767857"/>
    </g>
   </g>
   <g id="line2d_43">
    <defs>
     <path d="M -4.5 4.5 
L 4.5 4.5 
L 4.5 -4.5 
L -4.5 -4.5 
z
" id="m88fae4abec" style="stroke:#4c72b0;stroke-linejoin:miter;"/>
    </defs>
    <g clip-path="url(#p527a24c00c)">
     <use style="fill:#ffffff;stroke:#4c72b0;stroke-linejoin:miter;" x="730.606612" xlink:href="#m88fae4abec" y="310.146429"/>
     <use style="fill:#ffffff;stroke:#4c72b0;stroke-linejoin:miter;" x="741.113987" xlink:href="#m88fae4abec" y="245.432143"/>
     <use style="fill:#ffffff;stroke:#4c72b0;stroke-linejoin:miter;" x="751.621362" xlink:href="#m88fae4abec" y="177.482143"/>
     <use style="fill:#ffffff;stroke:#4c72b0;stroke-linejoin:miter;" x="767.382425" xlink:href="#m88fae4abec" y="219.546429"/>
     <use style="fill:#ffffff;stroke:#4c72b0;stroke-linejoin:miter;" x="772.636113" xlink:href="#m88fae4abec" y="177.482143"/>
     <use style="fill:#ffffff;stroke:#4c72b0;stroke-linejoin:miter;" x="777.8898" xlink:href="#m88fae4abec" y="180.717857"/>
     <use style="fill:#ffffff;stroke:#4c72b0;stroke-linejoin:miter;" x="793.650863" xlink:href="#m88fae4abec" y="167.775"/>
     <use style="fill:#ffffff;stroke:#4c72b0;stroke-linejoin:miter;" x="814.665614" xlink:href="#m88fae4abec" y="209.839286"/>
     <use style="fill:#ffffff;stroke:#4c72b0;stroke-linejoin:miter;" x="825.172989" xlink:href="#m88fae4abec" y="196.896429"/>
     <use style="fill:#ffffff;stroke:#4c72b0;stroke-linejoin:miter;" x="830.426676" xlink:href="#m88fae4abec" y="171.010714"/>
     <use style="fill:#ffffff;stroke:#4c72b0;stroke-linejoin:miter;" x="835.680364" xlink:href="#m88fae4abec" y="167.775"/>
     <use style="fill:#ffffff;stroke:#4c72b0;stroke-linejoin:miter;" x="840.934052" xlink:href="#m88fae4abec" y="183.953571"/>
     <use style="fill:#ffffff;stroke:#4c72b0;stroke-linejoin:miter;" x="851.441427" xlink:href="#m88fae4abec" y="171.010714"/>
     <use style="fill:#ffffff;stroke:#4c72b0;stroke-linejoin:miter;" x="861.948802" xlink:href="#m88fae4abec" y="167.775"/>
     <use style="fill:#ffffff;stroke:#4c72b0;stroke-linejoin:miter;" x="872.456177" xlink:href="#m88fae4abec" y="167.775"/>
     <use style="fill:#ffffff;stroke:#4c72b0;stroke-linejoin:miter;" x="898.724616" xlink:href="#m88fae4abec" y="171.010714"/>
     <use style="fill:#ffffff;stroke:#4c72b0;stroke-linejoin:miter;" x="914.485678" xlink:href="#m88fae4abec" y="171.010714"/>
     <use style="fill:#ffffff;stroke:#4c72b0;stroke-linejoin:miter;" x="919.739366" xlink:href="#m88fae4abec" y="171.010714"/>
     <use style="fill:#ffffff;stroke:#4c72b0;stroke-linejoin:miter;" x="930.246741" xlink:href="#m88fae4abec" y="171.010714"/>
     <use style="fill:#ffffff;stroke:#4c72b0;stroke-linejoin:miter;" x="946.007804" xlink:href="#m88fae4abec" y="174.246429"/>
     <use style="fill:#ffffff;stroke:#4c72b0;stroke-linejoin:miter;" x="951.261492" xlink:href="#m88fae4abec" y="171.010714"/>
     <use style="fill:#ffffff;stroke:#4c72b0;stroke-linejoin:miter;" x="961.768867" xlink:href="#m88fae4abec" y="174.246429"/>
     <use style="fill:#ffffff;stroke:#4c72b0;stroke-linejoin:miter;" x="972.276242" xlink:href="#m88fae4abec" y="174.246429"/>
     <use style="fill:#ffffff;stroke:#4c72b0;stroke-linejoin:miter;" x="988.037305" xlink:href="#m88fae4abec" y="177.482143"/>
     <use style="fill:#ffffff;stroke:#4c72b0;stroke-linejoin:miter;" x="993.290993" xlink:href="#m88fae4abec" y="177.482143"/>
     <use style="fill:#ffffff;stroke:#4c72b0;stroke-linejoin:miter;" x="1003.798368" xlink:href="#m88fae4abec" y="183.953571"/>
     <use style="fill:#ffffff;stroke:#4c72b0;stroke-linejoin:miter;" x="1019.559431" xlink:href="#m88fae4abec" y="187.189286"/>
     <use style="fill:#ffffff;stroke:#4c72b0;stroke-linejoin:miter;" x="1024.813119" xlink:href="#m88fae4abec" y="187.189286"/>
     <use style="fill:#ffffff;stroke:#4c72b0;stroke-linejoin:miter;" x="1035.320494" xlink:href="#m88fae4abec" y="190.425"/>
     <use style="fill:#ffffff;stroke:#4c72b0;stroke-linejoin:miter;" x="1045.827869" xlink:href="#m88fae4abec" y="196.896429"/>
     <use style="fill:#ffffff;stroke:#4c72b0;stroke-linejoin:miter;" x="1051.081557" xlink:href="#m88fae4abec" y="112.767857"/>
     <use style="fill:#ffffff;stroke:#4c72b0;stroke-linejoin:miter;" x="1061.588932" xlink:href="#m88fae4abec" y="193.660714"/>
     <use style="fill:#ffffff;stroke:#4c72b0;stroke-linejoin:miter;" x="1072.096307" xlink:href="#m88fae4abec" y="196.896429"/>
     <use style="fill:#ffffff;stroke:#4c72b0;stroke-linejoin:miter;" x="1087.85737" xlink:href="#m88fae4abec" y="200.132143"/>
     <use style="fill:#ffffff;stroke:#4c72b0;stroke-linejoin:miter;" x="1098.364745" xlink:href="#m88fae4abec" y="200.132143"/>
     <use style="fill:#ffffff;stroke:#4c72b0;stroke-linejoin:miter;" x="1119.379496" xlink:href="#m88fae4abec" y="200.132143"/>
     <use style="fill:#ffffff;stroke:#4c72b0;stroke-linejoin:miter;" x="1129.886871" xlink:href="#m88fae4abec" y="196.896429"/>
     <use style="fill:#ffffff;stroke:#4c72b0;stroke-linejoin:miter;" x="1135.140559" xlink:href="#m88fae4abec" y="200.132143"/>
     <use style="fill:#ffffff;stroke:#4c72b0;stroke-linejoin:miter;" x="1140.394246" xlink:href="#m88fae4abec" y="200.132143"/>
    </g>
   </g>
   <g id="line2d_44">
    <path clip-path="url(#p527a24c00c)" d="M 888.21724 137.796263 
L 893.470928 141.420022 
L 898.724616 139.903459 
L 903.978303 143.229824 
L 909.231991 146.482217 
L 914.485678 144.934568 
L 919.739366 143.485985 
L 924.993054 146.443871 
L 930.246741 145.030638 
L 935.500429 147.789617 
L 940.754117 150.413963 
L 946.007804 149.068658 
L 951.261492 147.726577 
L 956.515179 150.155133 
L 961.768867 148.916709 
L 967.022555 151.206481 
L 972.276242 149.999785 
L 977.52993 152.245701 
L 982.783618 154.401152 
L 988.037305 153.256751 
L 993.290993 152.164081 
L 998.54468 153.245357 
L 1003.798368 152.309181 
L 1009.052056 153.233562 
L 1014.305743 155.42061 
L 1019.559431 154.541386 
L 1024.813119 153.698717 
L 1030.066806 154.493349 
L 1035.320494 153.731697 
L 1040.574181 154.449035 
L 1045.827869 153.804289 
L 1051.081557 151.719412 
L 1056.335244 152.397624 
L 1061.588932 151.764603 
L 1066.84262 152.377031 
L 1072.096307 151.806958 
L 1077.349995 152.358535 
L 1082.603682 152.888913 
L 1087.85737 152.376943 
L 1093.111058 152.886479 
L 1098.364745 152.39481 
L 1103.618433 152.850726 
L 1108.872121 154.834538 
L 1114.125808 156.780804 
L 1119.379496 156.239147 
L 1124.633183 158.059436 
L 1129.886871 157.476254 
L 1135.140559 156.946299 
L 1140.394246 156.433653 
L 1145.647934 156.933574 
" style="fill:none;stroke:#4c72b0;stroke-linecap:square;stroke-width:4;"/>
   </g>
   <g id="line2d_45">
    <path clip-path="url(#p527a24c00c)" d="M 730.606612 118.455131 
L 735.860299 151.166283 
L 741.113987 128.864526 
L 746.367674 143.445282 
L 751.621362 131.987427 
L 756.87505 138.312068 
L 762.128737 148.166014 
L 767.382425 143.361196 
L 772.636113 140.262114 
L 777.8898 131.723157 
L 783.143488 135.108643 
L 788.397175 137.416602 
L 793.650863 135.479422 
L 798.904551 137.232738 
L 804.158238 143.116393 
L 809.411926 149.723047 
L 814.665614 147.824251 
L 819.919301 154.125014 
L 825.172989 152.310729 
L 830.426676 150.77991 
L 835.680364 145.096851 
L 840.934052 139.628969 
L 846.187739 141.346191 
L 851.441427 136.352131 
L 856.695115 138.090063 
L 861.948802 133.474387 
L 867.20249 135.10827 
L 872.456177 130.801133 
L 877.709865 132.429265 
L 882.963553 133.925063 
" style="fill:none;stroke:#4c72b0;stroke-dasharray:7.4,3.2;stroke-dashoffset:0;stroke-opacity:0.3;stroke-width:2;"/>
   </g>
   <g id="line2d_46">
    <path clip-path="url(#p527a24c00c)" d="M 709.854545 179.1 
L 1166.4 179.1 
" style="fill:none;stroke:#808080;stroke-dasharray:8.325,3.6;stroke-dashoffset:0;stroke-width:2.25;"/>
   </g>
   <g id="patch_7">
    <path d="M 709.854545 308.528571 
L 709.854545 49.671429 
" style="fill:none;stroke:#000000;stroke-linecap:square;stroke-linejoin:miter;stroke-width:1.875;"/>
   </g>
   <g id="patch_8">
    <path d="M 730.606612 315 
L 1150.901622 315 
" style="fill:none;stroke:#000000;stroke-linecap:square;stroke-linejoin:miter;stroke-width:1.875;"/>
   </g>
   <g id="text_37">
    <!-- Exteroception -->
    <defs>
     <path d="M 54.890625 54.6875 
L 35.109375 28.078125 
L 55.90625 0 
L 45.3125 0 
L 29.390625 21.484375 
L 13.484375 0 
L 2.875 0 
L 24.125 28.609375 
L 4.6875 54.6875 
L 15.28125 54.6875 
L 29.78125 35.203125 
L 44.28125 54.6875 
z
" id="DejaVuSans-120"/>
    </defs>
    <g transform="translate(875.404304 37.2)scale(0.18 -0.18)">
     <use xlink:href="#DejaVuSans-69"/>
     <use x="63.183594" xlink:href="#DejaVuSans-120"/>
     <use x="122.363281" xlink:href="#DejaVuSans-116"/>
     <use x="161.572266" xlink:href="#DejaVuSans-101"/>
     <use x="223.095703" xlink:href="#DejaVuSans-114"/>
     <use x="264.177734" xlink:href="#DejaVuSans-111"/>
     <use x="325.359375" xlink:href="#DejaVuSans-99"/>
     <use x="380.339844" xlink:href="#DejaVuSans-101"/>
     <use x="441.863281" xlink:href="#DejaVuSans-112"/>
     <use x="505.339844" xlink:href="#DejaVuSans-116"/>
     <use x="544.548828" xlink:href="#DejaVuSans-105"/>
     <use x="572.332031" xlink:href="#DejaVuSans-111"/>
     <use x="633.513672" xlink:href="#DejaVuSans-110"/>
    </g>
   </g>
   <g id="legend_2">
    <g id="patch_9">
     <path d="M 1060.65 315 
L 1163.1 315 
Q 1166.4 315 1166.4 311.7 
L 1166.4 239.241562 
Q 1166.4 235.941563 1163.1 235.941563 
L 1060.65 235.941563 
Q 1057.35 235.941563 1057.35 239.241562 
L 1057.35 311.7 
Q 1057.35 315 1060.65 315 
z
" style="fill:#ffffff;opacity:0.8;stroke:#cccccc;stroke-linejoin:miter;stroke-width:1.5;"/>
    </g>
    <g id="text_38">
     <!-- Estimation -->
     <g transform="translate(1063.95 256.21875)scale(0.18 -0.18)">
      <use xlink:href="#DejaVuSans-69"/>
      <use x="63.183594" xlink:href="#DejaVuSans-115"/>
      <use x="115.283203" xlink:href="#DejaVuSans-116"/>
      <use x="154.492188" xlink:href="#DejaVuSans-105"/>
      <use x="182.275391" xlink:href="#DejaVuSans-109"/>
      <use x="279.6875" xlink:href="#DejaVuSans-97"/>
      <use x="340.966797" xlink:href="#DejaVuSans-116"/>
      <use x="380.175781" xlink:href="#DejaVuSans-105"/>
      <use x="407.958984" xlink:href="#DejaVuSans-111"/>
      <use x="469.140625" xlink:href="#DejaVuSans-110"/>
     </g>
    </g>
    <g id="line2d_47"/>
    <g id="line2d_48">
     <g>
      <use style="fill:#4c72b0;stroke:#000000;" x="1084.643555" xlink:href="#mc75353d7d1" y="274.974609"/>
     </g>
    </g>
    <g id="text_39">
     <!-- More -->
     <g transform="translate(1114.343555 280.749609)scale(0.165 -0.165)">
      <use xlink:href="#DejaVuSans-77"/>
      <use x="86.279297" xlink:href="#DejaVuSans-111"/>
      <use x="147.460938" xlink:href="#DejaVuSans-114"/>
      <use x="188.542969" xlink:href="#DejaVuSans-101"/>
     </g>
    </g>
    <g id="line2d_49"/>
    <g id="line2d_50">
     <g>
      <use style="fill:#ffffff;stroke:#4c72b0;stroke-linejoin:miter;" x="1084.643555" xlink:href="#m88fae4abec" y="299.193516"/>
     </g>
    </g>
    <g id="text_40">
     <!-- Less -->
     <g transform="translate(1114.343555 304.968516)scale(0.165 -0.165)">
      <use xlink:href="#DejaVuSans-76"/>
      <use x="55.697266" xlink:href="#DejaVuSans-101"/>
      <use x="117.220703" xlink:href="#DejaVuSans-115"/>
      <use x="169.320312" xlink:href="#DejaVuSans-115"/>
     </g>
    </g>
   </g>
  </g>
 </g>
 <defs>
  <clipPath id="p73b98311b3">
   <rect height="271.8" width="456.545455" x="162" y="43.2"/>
  </clipPath>
  <clipPath id="p527a24c00c">
   <rect height="271.8" width="456.545455" x="709.854545" y="43.2"/>
  </clipPath>
 </defs>
</svg>
