<?xml version="1.0" encoding="UTF-8" standalone="no"?>
<!DOCTYPE svg PUBLIC "-//W3C//DTD SVG 1.1//EN"
 "http://www.w3.org/Graphics/SVG/1.1/DTD/svg11.dtd">
<!-- Generated by graphviz version 2.43.0 (0)
 -->
<!-- Title: %3 Pages: 1 -->
<svg width="274pt" height="322pt"
 viewBox="0.00 0.00 274.45 321.91" xmlns="http://www.w3.org/2000/svg" xmlns:xlink="http://www.w3.org/1999/xlink">
<g id="graph0" class="graph" transform="scale(1 1) rotate(0) translate(4 317.91)">
<title>%3</title>
<polygon fill="white" stroke="transparent" points="-4,4 -4,-317.91 270.45,-317.91 270.45,4 -4,4"/>
<g id="clust1" class="cluster">
<title>cluster25</title>
<path fill="none" stroke="black" d="M71.74,-8C71.74,-8 177.74,-8 177.74,-8 183.74,-8 189.74,-14 189.74,-20 189.74,-20 189.74,-198.95 189.74,-198.95 189.74,-204.95 183.74,-210.95 177.74,-210.95 177.74,-210.95 71.74,-210.95 71.74,-210.95 65.74,-210.95 59.74,-204.95 59.74,-198.95 59.74,-198.95 59.74,-20 59.74,-20 59.74,-14 65.74,-8 71.74,-8"/>
<text text-anchor="middle" x="172.24" y="-15.8" font-family="Times,serif" font-size="14.00">25</text>
</g>
<!-- alpha -->
<g id="node1" class="node">
<title>alpha</title>
<ellipse fill="none" stroke="black" cx="53.74" cy="-276.43" rx="53.98" ry="37.45"/>
<text text-anchor="middle" x="53.74" y="-287.73" font-family="Times,serif" font-size="14.00">alpha</text>
<text text-anchor="middle" x="53.74" y="-272.73" font-family="Times,serif" font-size="14.00">~</text>
<text text-anchor="middle" x="53.74" y="-257.73" font-family="Times,serif" font-size="14.00">Uniform</text>
</g>
<!-- thetaij -->
<g id="node4" class="node">
<title>thetaij</title>
<polygon fill="none" stroke="black" points="181.74,-202.95 67.74,-202.95 67.74,-149.95 181.74,-149.95 181.74,-202.95"/>
<text text-anchor="middle" x="124.74" y="-187.75" font-family="Times,serif" font-size="14.00">thetaij</text>
<text text-anchor="middle" x="124.74" y="-172.75" font-family="Times,serif" font-size="14.00">~</text>
<text text-anchor="middle" x="124.74" y="-157.75" font-family="Times,serif" font-size="14.00">Deterministic</text>
</g>
<!-- alpha&#45;&gt;thetaij -->
<g id="edge1" class="edge">
<title>alpha&#45;&gt;thetaij</title>
<path fill="none" stroke="black" d="M77.58,-242.53C84.88,-232.46 92.92,-221.36 100.27,-211.23"/>
<polygon fill="black" stroke="black" points="103.21,-213.13 106.24,-202.98 97.54,-209.03 103.21,-213.13"/>
</g>
<!-- beta -->
<g id="node2" class="node">
<title>beta</title>
<ellipse fill="none" stroke="black" cx="195.74" cy="-276.43" rx="70.92" ry="37.45"/>
<text text-anchor="middle" x="195.74" y="-287.73" font-family="Times,serif" font-size="14.00">beta</text>
<text text-anchor="middle" x="195.74" y="-272.73" font-family="Times,serif" font-size="14.00">~</text>
<text text-anchor="middle" x="195.74" y="-257.73" font-family="Times,serif" font-size="14.00">HalfNormal</text>
</g>
<!-- beta&#45;&gt;thetaij -->
<g id="edge2" class="edge">
<title>beta&#45;&gt;thetaij</title>
<path fill="none" stroke="black" d="M170.91,-241.16C163.92,-231.52 156.32,-221.03 149.34,-211.4"/>
<polygon fill="black" stroke="black" points="152.11,-209.25 143.4,-203.21 146.44,-213.36 152.11,-209.25"/>
</g>
<!-- rij -->
<g id="node3" class="node">
<title>rij</title>
<ellipse fill="lightgrey" stroke="black" cx="124.74" cy="-76.48" rx="56.64" ry="37.45"/>
<text text-anchor="middle" x="124.74" y="-87.78" font-family="Times,serif" font-size="14.00">rij</text>
<text text-anchor="middle" x="124.74" y="-72.78" font-family="Times,serif" font-size="14.00">~</text>
<text text-anchor="middle" x="124.74" y="-57.78" font-family="Times,serif" font-size="14.00">Binomial</text>
</g>
<!-- thetaij&#45;&gt;rij -->
<g id="edge3" class="edge">
<title>thetaij&#45;&gt;rij</title>
<path fill="none" stroke="black" d="M124.74,-149.71C124.74,-141.89 124.74,-133.03 124.74,-124.27"/>
<polygon fill="black" stroke="black" points="128.24,-124.1 124.74,-114.1 121.24,-124.1 128.24,-124.1"/>
</g>
</g>
</svg>