<?xml version="1.0" encoding="UTF-8" standalone="no"?>
<!DOCTYPE svg PUBLIC "-//W3C//DTD SVG 1.1//EN"
 "http://www.w3.org/Graphics/SVG/1.1/DTD/svg11.dtd">
<!-- Generated by graphviz version 2.43.0 (0)
 -->
<!-- Title: %3 Pages: 1 -->
<svg width="581pt" height="444pt"
 viewBox="0.00 0.00 580.69 443.86" xmlns="http://www.w3.org/2000/svg" xmlns:xlink="http://www.w3.org/1999/xlink">
<g id="graph0" class="graph" transform="scale(1 1) rotate(0) translate(4 439.86)">
<title>%3</title>
<polygon fill="white" stroke="transparent" points="-4,4 -4,-439.86 576.69,-439.86 576.69,4 -4,4"/>
<g id="clust1" class="cluster">
<title>cluster191</title>
<path fill="none" stroke="black" d="M168.45,-218.95C168.45,-218.95 375.45,-218.95 375.45,-218.95 381.45,-218.95 387.45,-224.95 387.45,-230.95 387.45,-230.95 387.45,-320.91 387.45,-320.91 387.45,-326.91 381.45,-332.91 375.45,-332.91 375.45,-332.91 168.45,-332.91 168.45,-332.91 162.45,-332.91 156.45,-326.91 156.45,-320.91 156.45,-320.91 156.45,-230.95 156.45,-230.95 156.45,-224.95 162.45,-218.95 168.45,-218.95"/>
<text text-anchor="middle" x="365.45" y="-226.75" font-family="Times,serif" font-size="14.00">191</text>
</g>
<g id="clust2" class="cluster">
<title>cluster5339</title>
<path fill="none" stroke="black" d="M216.45,-8C216.45,-8 322.45,-8 322.45,-8 328.45,-8 334.45,-14 334.45,-20 334.45,-20 334.45,-198.95 334.45,-198.95 334.45,-204.95 328.45,-210.95 322.45,-210.95 322.45,-210.95 216.45,-210.95 216.45,-210.95 210.45,-210.95 204.45,-204.95 204.45,-198.95 204.45,-198.95 204.45,-20 204.45,-20 204.45,-14 210.45,-8 216.45,-8"/>
<text text-anchor="middle" x="307.95" y="-15.8" font-family="Times,serif" font-size="14.00">5339</text>
</g>
<!-- mu_beta -->
<g id="node1" class="node">
<title>mu_beta</title>
<ellipse fill="none" stroke="black" cx="54.45" cy="-398.38" rx="54.39" ry="37.45"/>
<text text-anchor="middle" x="54.45" y="-409.68" font-family="Times,serif" font-size="14.00">mu_beta</text>
<text text-anchor="middle" x="54.45" y="-394.68" font-family="Times,serif" font-size="14.00">~</text>
<text text-anchor="middle" x="54.45" y="-379.68" font-family="Times,serif" font-size="14.00">Uniform</text>
</g>
<!-- beta -->
<g id="node6" class="node">
<title>beta</title>
<ellipse fill="none" stroke="black" cx="213.45" cy="-287.43" rx="49.49" ry="37.45"/>
<text text-anchor="middle" x="213.45" y="-298.73" font-family="Times,serif" font-size="14.00">beta</text>
<text text-anchor="middle" x="213.45" y="-283.73" font-family="Times,serif" font-size="14.00">~</text>
<text text-anchor="middle" x="213.45" y="-268.73" font-family="Times,serif" font-size="14.00">Normal</text>
</g>
<!-- mu_beta&#45;&gt;beta -->
<g id="edge3" class="edge">
<title>mu_beta&#45;&gt;beta</title>
<path fill="none" stroke="black" d="M92.53,-371.29C115.54,-355.52 144.98,-335.35 169.04,-318.86"/>
<polygon fill="black" stroke="black" points="171.04,-321.73 177.31,-313.19 167.08,-315.96 171.04,-321.73"/>
</g>
<!-- sigma_beta -->
<g id="node2" class="node">
<title>sigma_beta</title>
<ellipse fill="none" stroke="black" cx="197.45" cy="-398.38" rx="70.92" ry="37.45"/>
<text text-anchor="middle" x="197.45" y="-409.68" font-family="Times,serif" font-size="14.00">sigma_beta</text>
<text text-anchor="middle" x="197.45" y="-394.68" font-family="Times,serif" font-size="14.00">~</text>
<text text-anchor="middle" x="197.45" y="-379.68" font-family="Times,serif" font-size="14.00">HalfNormal</text>
</g>
<!-- sigma_beta&#45;&gt;beta -->
<g id="edge4" class="edge">
<title>sigma_beta&#45;&gt;beta</title>
<path fill="none" stroke="black" d="M202.82,-360.8C204.05,-352.45 205.37,-343.46 206.64,-334.76"/>
<polygon fill="black" stroke="black" points="210.13,-335.13 208.12,-324.73 203.2,-334.12 210.13,-335.13"/>
</g>
<!-- mu_alpha -->
<g id="node3" class="node">
<title>mu_alpha</title>
<ellipse fill="none" stroke="black" cx="346.45" cy="-398.38" rx="60.21" ry="37.45"/>
<text text-anchor="middle" x="346.45" y="-409.68" font-family="Times,serif" font-size="14.00">mu_alpha</text>
<text text-anchor="middle" x="346.45" y="-394.68" font-family="Times,serif" font-size="14.00">~</text>
<text text-anchor="middle" x="346.45" y="-379.68" font-family="Times,serif" font-size="14.00">Uniform</text>
</g>
<!-- alpha -->
<g id="node5" class="node">
<title>alpha</title>
<ellipse fill="none" stroke="black" cx="330.45" cy="-287.43" rx="49.49" ry="37.45"/>
<text text-anchor="middle" x="330.45" y="-298.73" font-family="Times,serif" font-size="14.00">alpha</text>
<text text-anchor="middle" x="330.45" y="-283.73" font-family="Times,serif" font-size="14.00">~</text>
<text text-anchor="middle" x="330.45" y="-268.73" font-family="Times,serif" font-size="14.00">Normal</text>
</g>
<!-- mu_alpha&#45;&gt;alpha -->
<g id="edge1" class="edge">
<title>mu_alpha&#45;&gt;alpha</title>
<path fill="none" stroke="black" d="M341.07,-360.8C339.85,-352.45 338.53,-343.46 337.25,-334.76"/>
<polygon fill="black" stroke="black" points="340.69,-334.12 335.78,-324.73 333.77,-335.13 340.69,-334.12"/>
</g>
<!-- sigma_alpha -->
<g id="node4" class="node">
<title>sigma_alpha</title>
<ellipse fill="none" stroke="black" cx="498.45" cy="-398.38" rx="74.49" ry="37.45"/>
<text text-anchor="middle" x="498.45" y="-409.68" font-family="Times,serif" font-size="14.00">sigma_alpha</text>
<text text-anchor="middle" x="498.45" y="-394.68" font-family="Times,serif" font-size="14.00">~</text>
<text text-anchor="middle" x="498.45" y="-379.68" font-family="Times,serif" font-size="14.00">HalfNormal</text>
</g>
<!-- sigma_alpha&#45;&gt;alpha -->
<g id="edge2" class="edge">
<title>sigma_alpha&#45;&gt;alpha</title>
<path fill="none" stroke="black" d="M453.43,-368.19C429.53,-352.69 400.24,-333.69 376.23,-318.12"/>
<polygon fill="black" stroke="black" points="377.94,-315.06 367.65,-312.56 374.13,-320.93 377.94,-315.06"/>
</g>
<!-- thetaij -->
<g id="node8" class="node">
<title>thetaij</title>
<polygon fill="none" stroke="black" points="326.45,-202.95 212.45,-202.95 212.45,-149.95 326.45,-149.95 326.45,-202.95"/>
<text text-anchor="middle" x="269.45" y="-187.75" font-family="Times,serif" font-size="14.00">thetaij</text>
<text text-anchor="middle" x="269.45" y="-172.75" font-family="Times,serif" font-size="14.00">~</text>
<text text-anchor="middle" x="269.45" y="-157.75" font-family="Times,serif" font-size="14.00">Deterministic</text>
</g>
<!-- alpha&#45;&gt;thetaij -->
<g id="edge5" class="edge">
<title>alpha&#45;&gt;thetaij</title>
<path fill="none" stroke="black" d="M311.48,-252.55C304.28,-239.68 296.06,-225.01 288.82,-212.07"/>
<polygon fill="black" stroke="black" points="291.69,-210.02 283.75,-203 285.58,-213.44 291.69,-210.02"/>
</g>
<!-- beta&#45;&gt;thetaij -->
<g id="edge6" class="edge">
<title>beta&#45;&gt;thetaij</title>
<path fill="none" stroke="black" d="M231.01,-252.25C237.57,-239.49 245.02,-225 251.6,-212.19"/>
<polygon fill="black" stroke="black" points="254.75,-213.71 256.21,-203.21 248.53,-210.51 254.75,-213.71"/>
</g>
<!-- rij -->
<g id="node7" class="node">
<title>rij</title>
<ellipse fill="lightgrey" stroke="black" cx="269.45" cy="-76.48" rx="56.64" ry="37.45"/>
<text text-anchor="middle" x="269.45" y="-87.78" font-family="Times,serif" font-size="14.00">rij</text>
<text text-anchor="middle" x="269.45" y="-72.78" font-family="Times,serif" font-size="14.00">~</text>
<text text-anchor="middle" x="269.45" y="-57.78" font-family="Times,serif" font-size="14.00">Binomial</text>
</g>
<!-- thetaij&#45;&gt;rij -->
<g id="edge7" class="edge">
<title>thetaij&#45;&gt;rij</title>
<path fill="none" stroke="black" d="M269.45,-149.71C269.45,-141.89 269.45,-133.03 269.45,-124.27"/>
<polygon fill="black" stroke="black" points="272.95,-124.1 269.45,-114.1 265.95,-124.1 272.95,-124.1"/>
</g>
</g>
</svg>