<?xml version="1.0" encoding="UTF-8" standalone="no"?>
<!DOCTYPE svg PUBLIC "-//W3C//DTD SVG 1.1//EN"
 "http://www.w3.org/Graphics/SVG/1.1/DTD/svg11.dtd">
<!-- Generated by graphviz version 2.43.0 (0)
 -->
<!-- Title: %3 Pages: 1 -->
<svg width="274pt" height="322pt"
 viewBox="0.00 0.00 274.45 321.91" xmlns="http://www.w3.org/2000/svg" xmlns:xlink="http://www.w3.org/1999/xlink">
<g id="graph0" class="graph" transform="scale(1 1) rotate(0) translate(4 317.91)">
<title>%3</title>
<polygon fill="white" stroke="transparent" points="-4,4 -4,-317.91 270.45,-317.91 270.45,4 -4,4"/>
<g id="clust1" class="cluster">
<title>cluster25</title>
<path fill="none" stroke="black" d="M88.71,-8C88.71,-8 194.71,-8 194.71,-8 200.71,-8 206.71,-14 206.71,-20 206.71,-20 206.71,-198.95 206.71,-198.95 206.71,-204.95 200.71,-210.95 194.71,-210.95 194.71,-210.95 88.71,-210.95 88.71,-210.95 82.71,-210.95 76.71,-204.95 76.71,-198.95 76.71,-198.95 76.71,-20 76.71,-20 76.71,-14 82.71,-8 88.71,-8"/>
<text text-anchor="middle" x="189.21" y="-15.8" font-family="Times,serif" font-size="14.00">25</text>
</g>
<!-- beta -->
<g id="node1" class="node">
<title>beta</title>
<ellipse fill="none" stroke="black" cx="70.71" cy="-276.43" rx="70.92" ry="37.45"/>
<text text-anchor="middle" x="70.71" y="-287.73" font-family="Times,serif" font-size="14.00">beta</text>
<text text-anchor="middle" x="70.71" y="-272.73" font-family="Times,serif" font-size="14.00">~</text>
<text text-anchor="middle" x="70.71" y="-257.73" font-family="Times,serif" font-size="14.00">HalfNormal</text>
</g>
<!-- thetaij -->
<g id="node4" class="node">
<title>thetaij</title>
<polygon fill="none" stroke="black" points="198.71,-202.95 84.71,-202.95 84.71,-149.95 198.71,-149.95 198.71,-202.95"/>
<text text-anchor="middle" x="141.71" y="-187.75" font-family="Times,serif" font-size="14.00">thetaij</text>
<text text-anchor="middle" x="141.71" y="-172.75" font-family="Times,serif" font-size="14.00">~</text>
<text text-anchor="middle" x="141.71" y="-157.75" font-family="Times,serif" font-size="14.00">Deterministic</text>
</g>
<!-- beta&#45;&gt;thetaij -->
<g id="edge1" class="edge">
<title>beta&#45;&gt;thetaij</title>
<path fill="none" stroke="black" d="M95.54,-241.16C102.53,-231.52 110.13,-221.03 117.11,-211.4"/>
<polygon fill="black" stroke="black" points="120.01,-213.36 123.05,-203.21 114.35,-209.25 120.01,-213.36"/>
</g>
<!-- alpha -->
<g id="node2" class="node">
<title>alpha</title>
<ellipse fill="none" stroke="black" cx="212.71" cy="-276.43" rx="53.98" ry="37.45"/>
<text text-anchor="middle" x="212.71" y="-287.73" font-family="Times,serif" font-size="14.00">alpha</text>
<text text-anchor="middle" x="212.71" y="-272.73" font-family="Times,serif" font-size="14.00">~</text>
<text text-anchor="middle" x="212.71" y="-257.73" font-family="Times,serif" font-size="14.00">Uniform</text>
</g>
<!-- alpha&#45;&gt;thetaij -->
<g id="edge2" class="edge">
<title>alpha&#45;&gt;thetaij</title>
<path fill="none" stroke="black" d="M188.87,-242.53C181.57,-232.46 173.53,-221.36 166.18,-211.23"/>
<polygon fill="black" stroke="black" points="168.91,-209.03 160.21,-202.98 163.25,-213.13 168.91,-209.03"/>
</g>
<!-- rij -->
<g id="node3" class="node">
<title>rij</title>
<ellipse fill="lightgrey" stroke="black" cx="141.71" cy="-76.48" rx="56.64" ry="37.45"/>
<text text-anchor="middle" x="141.71" y="-87.78" font-family="Times,serif" font-size="14.00">rij</text>
<text text-anchor="middle" x="141.71" y="-72.78" font-family="Times,serif" font-size="14.00">~</text>
<text text-anchor="middle" x="141.71" y="-57.78" font-family="Times,serif" font-size="14.00">Binomial</text>
</g>
<!-- thetaij&#45;&gt;rij -->
<g id="edge3" class="edge">
<title>thetaij&#45;&gt;rij</title>
<path fill="none" stroke="black" d="M141.71,-149.71C141.71,-141.89 141.71,-133.03 141.71,-124.27"/>
<polygon fill="black" stroke="black" points="145.21,-124.1 141.71,-114.1 138.21,-124.1 145.21,-124.1"/>
</g>
</g>
</svg>