<?xml version="1.0" encoding="UTF-8" standalone="no"?>
<!DOCTYPE svg PUBLIC "-//W3C//DTD SVG 1.1//EN"
 "http://www.w3.org/Graphics/SVG/1.1/DTD/svg11.dtd">
<!-- Generated by graphviz version 2.43.0 (0)
 -->
<!-- Title: %3 Pages: 1 -->
<svg width="581pt" height="444pt"
 viewBox="0.00 0.00 580.81 443.86" xmlns="http://www.w3.org/2000/svg" xmlns:xlink="http://www.w3.org/1999/xlink">
<g id="graph0" class="graph" transform="scale(1 1) rotate(0) translate(4 439.86)">
<title>%3</title>
<polygon fill="white" stroke="transparent" points="-4,4 -4,-439.86 576.81,-439.86 576.81,4 -4,4"/>
<g id="clust1" class="cluster">
<title>cluster191</title>
<path fill="none" stroke="black" d="M183.71,-218.95C183.71,-218.95 390.71,-218.95 390.71,-218.95 396.71,-218.95 402.71,-224.95 402.71,-230.95 402.71,-230.95 402.71,-320.91 402.71,-320.91 402.71,-326.91 396.71,-332.91 390.71,-332.91 390.71,-332.91 183.71,-332.91 183.71,-332.91 177.71,-332.91 171.71,-326.91 171.71,-320.91 171.71,-320.91 171.71,-230.95 171.71,-230.95 171.71,-224.95 177.71,-218.95 183.71,-218.95"/>
<text text-anchor="middle" x="380.71" y="-226.75" font-family="Times,serif" font-size="14.00">191</text>
</g>
<g id="clust2" class="cluster">
<title>cluster5339</title>
<path fill="none" stroke="black" d="M231.71,-8C231.71,-8 337.71,-8 337.71,-8 343.71,-8 349.71,-14 349.71,-20 349.71,-20 349.71,-198.95 349.71,-198.95 349.71,-204.95 343.71,-210.95 337.71,-210.95 337.71,-210.95 231.71,-210.95 231.71,-210.95 225.71,-210.95 219.71,-204.95 219.71,-198.95 219.71,-198.95 219.71,-20 219.71,-20 219.71,-14 225.71,-8 231.71,-8"/>
<text text-anchor="middle" x="323.21" y="-15.8" font-family="Times,serif" font-size="14.00">5339</text>
</g>
<!-- sigma_beta -->
<g id="node1" class="node">
<title>sigma_beta</title>
<ellipse fill="none" stroke="black" cx="70.71" cy="-398.38" rx="70.92" ry="37.45"/>
<text text-anchor="middle" x="70.71" y="-409.68" font-family="Times,serif" font-size="14.00">sigma_beta</text>
<text text-anchor="middle" x="70.71" y="-394.68" font-family="Times,serif" font-size="14.00">~</text>
<text text-anchor="middle" x="70.71" y="-379.68" font-family="Times,serif" font-size="14.00">HalfNormal</text>
</g>
<!-- beta -->
<g id="node5" class="node">
<title>beta</title>
<ellipse fill="none" stroke="black" cx="228.71" cy="-287.43" rx="49.49" ry="37.45"/>
<text text-anchor="middle" x="228.71" y="-298.73" font-family="Times,serif" font-size="14.00">beta</text>
<text text-anchor="middle" x="228.71" y="-283.73" font-family="Times,serif" font-size="14.00">~</text>
<text text-anchor="middle" x="228.71" y="-268.73" font-family="Times,serif" font-size="14.00">Normal</text>
</g>
<!-- sigma_beta&#45;&gt;beta -->
<g id="edge3" class="edge">
<title>sigma_beta&#45;&gt;beta</title>
<path fill="none" stroke="black" d="M113.05,-368.19C135.1,-352.98 162.04,-334.4 184.37,-319.01"/>
<polygon fill="black" stroke="black" points="186.44,-321.83 192.69,-313.27 182.47,-316.07 186.44,-321.83"/>
</g>
<!-- mu_beta -->
<g id="node2" class="node">
<title>mu_beta</title>
<ellipse fill="none" stroke="black" cx="213.71" cy="-398.38" rx="54.39" ry="37.45"/>
<text text-anchor="middle" x="213.71" y="-409.68" font-family="Times,serif" font-size="14.00">mu_beta</text>
<text text-anchor="middle" x="213.71" y="-394.68" font-family="Times,serif" font-size="14.00">~</text>
<text text-anchor="middle" x="213.71" y="-379.68" font-family="Times,serif" font-size="14.00">Uniform</text>
</g>
<!-- mu_beta&#45;&gt;beta -->
<g id="edge4" class="edge">
<title>mu_beta&#45;&gt;beta</title>
<path fill="none" stroke="black" d="M218.75,-360.8C219.9,-352.45 221.13,-343.46 222.33,-334.76"/>
<polygon fill="black" stroke="black" points="225.82,-335.12 223.71,-324.73 218.88,-334.16 225.82,-335.12"/>
</g>
<!-- sigma_alpha -->
<g id="node3" class="node">
<title>sigma_alpha</title>
<ellipse fill="none" stroke="black" cx="360.71" cy="-398.38" rx="74.49" ry="37.45"/>
<text text-anchor="middle" x="360.71" y="-409.68" font-family="Times,serif" font-size="14.00">sigma_alpha</text>
<text text-anchor="middle" x="360.71" y="-394.68" font-family="Times,serif" font-size="14.00">~</text>
<text text-anchor="middle" x="360.71" y="-379.68" font-family="Times,serif" font-size="14.00">HalfNormal</text>
</g>
<!-- alpha -->
<g id="node6" class="node">
<title>alpha</title>
<ellipse fill="none" stroke="black" cx="345.71" cy="-287.43" rx="49.49" ry="37.45"/>
<text text-anchor="middle" x="345.71" y="-298.73" font-family="Times,serif" font-size="14.00">alpha</text>
<text text-anchor="middle" x="345.71" y="-283.73" font-family="Times,serif" font-size="14.00">~</text>
<text text-anchor="middle" x="345.71" y="-268.73" font-family="Times,serif" font-size="14.00">Normal</text>
</g>
<!-- sigma_alpha&#45;&gt;alpha -->
<g id="edge1" class="edge">
<title>sigma_alpha&#45;&gt;alpha</title>
<path fill="none" stroke="black" d="M355.67,-360.8C354.52,-352.45 353.29,-343.46 352.09,-334.76"/>
<polygon fill="black" stroke="black" points="355.54,-334.16 350.71,-324.73 348.61,-335.12 355.54,-334.16"/>
</g>
<!-- mu_alpha -->
<g id="node4" class="node">
<title>mu_alpha</title>
<ellipse fill="none" stroke="black" cx="512.71" cy="-398.38" rx="60.21" ry="37.45"/>
<text text-anchor="middle" x="512.71" y="-409.68" font-family="Times,serif" font-size="14.00">mu_alpha</text>
<text text-anchor="middle" x="512.71" y="-394.68" font-family="Times,serif" font-size="14.00">~</text>
<text text-anchor="middle" x="512.71" y="-379.68" font-family="Times,serif" font-size="14.00">Uniform</text>
</g>
<!-- mu_alpha&#45;&gt;alpha -->
<g id="edge2" class="edge">
<title>mu_alpha&#45;&gt;alpha</title>
<path fill="none" stroke="black" d="M471.86,-370.73C447.5,-354.84 416.52,-334.63 391.36,-318.21"/>
<polygon fill="black" stroke="black" points="393.01,-315.11 382.72,-312.58 389.19,-320.97 393.01,-315.11"/>
</g>
<!-- thetaij -->
<g id="node8" class="node">
<title>thetaij</title>
<polygon fill="none" stroke="black" points="341.71,-202.95 227.71,-202.95 227.71,-149.95 341.71,-149.95 341.71,-202.95"/>
<text text-anchor="middle" x="284.71" y="-187.75" font-family="Times,serif" font-size="14.00">thetaij</text>
<text text-anchor="middle" x="284.71" y="-172.75" font-family="Times,serif" font-size="14.00">~</text>
<text text-anchor="middle" x="284.71" y="-157.75" font-family="Times,serif" font-size="14.00">Deterministic</text>
</g>
<!-- beta&#45;&gt;thetaij -->
<g id="edge5" class="edge">
<title>beta&#45;&gt;thetaij</title>
<path fill="none" stroke="black" d="M246.28,-252.25C252.83,-239.49 260.28,-225 266.86,-212.19"/>
<polygon fill="black" stroke="black" points="270.02,-213.71 271.47,-203.21 263.79,-210.51 270.02,-213.71"/>
</g>
<!-- alpha&#45;&gt;thetaij -->
<g id="edge6" class="edge">
<title>alpha&#45;&gt;thetaij</title>
<path fill="none" stroke="black" d="M326.74,-252.55C319.54,-239.68 311.33,-225.01 304.09,-212.07"/>
<polygon fill="black" stroke="black" points="306.95,-210.02 299.01,-203 300.84,-213.44 306.95,-210.02"/>
</g>
<!-- rij -->
<g id="node7" class="node">
<title>rij</title>
<ellipse fill="lightgrey" stroke="black" cx="284.71" cy="-76.48" rx="56.64" ry="37.45"/>
<text text-anchor="middle" x="284.71" y="-87.78" font-family="Times,serif" font-size="14.00">rij</text>
<text text-anchor="middle" x="284.71" y="-72.78" font-family="Times,serif" font-size="14.00">~</text>
<text text-anchor="middle" x="284.71" y="-57.78" font-family="Times,serif" font-size="14.00">Binomial</text>
</g>
<!-- thetaij&#45;&gt;rij -->
<g id="edge7" class="edge">
<title>thetaij&#45;&gt;rij</title>
<path fill="none" stroke="black" d="M284.71,-149.71C284.71,-141.89 284.71,-133.03 284.71,-124.27"/>
<polygon fill="black" stroke="black" points="288.21,-124.1 284.71,-114.1 281.21,-124.1 288.21,-124.1"/>
</g>
</g>
</svg>