<?xml version="1.0" encoding="UTF-8" standalone="no"?>
<!DOCTYPE svg PUBLIC "-//W3C//DTD SVG 1.1//EN"
 "http://www.w3.org/Graphics/SVG/1.1/DTD/svg11.dtd">
<!-- Generated by graphviz version 2.43.0 (0)
 -->
<!-- Title: %3 Pages: 1 -->
<svg width="581pt" height="444pt"
 viewBox="0.00 0.00 580.96 443.86" xmlns="http://www.w3.org/2000/svg" xmlns:xlink="http://www.w3.org/1999/xlink">
<g id="graph0" class="graph" transform="scale(1 1) rotate(0) translate(4 439.86)">
<title>%3</title>
<polygon fill="white" stroke="transparent" points="-4,4 -4,-439.86 576.96,-439.86 576.96,4 -4,4"/>
<g id="clust1" class="cluster">
<title>cluster191</title>
<path fill="none" stroke="black" d="M176.71,-218.95C176.71,-218.95 383.71,-218.95 383.71,-218.95 389.71,-218.95 395.71,-224.95 395.71,-230.95 395.71,-230.95 395.71,-320.91 395.71,-320.91 395.71,-326.91 389.71,-332.91 383.71,-332.91 383.71,-332.91 176.71,-332.91 176.71,-332.91 170.71,-332.91 164.71,-326.91 164.71,-320.91 164.71,-320.91 164.71,-230.95 164.71,-230.95 164.71,-224.95 170.71,-218.95 176.71,-218.95"/>
<text text-anchor="middle" x="373.71" y="-226.75" font-family="Times,serif" font-size="14.00">191</text>
</g>
<g id="clust2" class="cluster">
<title>cluster5339</title>
<path fill="none" stroke="black" d="M224.71,-8C224.71,-8 330.71,-8 330.71,-8 336.71,-8 342.71,-14 342.71,-20 342.71,-20 342.71,-198.95 342.71,-198.95 342.71,-204.95 336.71,-210.95 330.71,-210.95 330.71,-210.95 224.71,-210.95 224.71,-210.95 218.71,-210.95 212.71,-204.95 212.71,-198.95 212.71,-198.95 212.71,-20 212.71,-20 212.71,-14 218.71,-8 224.71,-8"/>
<text text-anchor="middle" x="316.21" y="-15.8" font-family="Times,serif" font-size="14.00">5339</text>
</g>
<!-- sigma_beta -->
<g id="node1" class="node">
<title>sigma_beta</title>
<ellipse fill="none" stroke="black" cx="70.71" cy="-398.38" rx="70.92" ry="37.45"/>
<text text-anchor="middle" x="70.71" y="-409.68" font-family="Times,serif" font-size="14.00">sigma_beta</text>
<text text-anchor="middle" x="70.71" y="-394.68" font-family="Times,serif" font-size="14.00">~</text>
<text text-anchor="middle" x="70.71" y="-379.68" font-family="Times,serif" font-size="14.00">HalfNormal</text>
</g>
<!-- beta -->
<g id="node6" class="node">
<title>beta</title>
<ellipse fill="none" stroke="black" cx="221.71" cy="-287.43" rx="49.49" ry="37.45"/>
<text text-anchor="middle" x="221.71" y="-298.73" font-family="Times,serif" font-size="14.00">beta</text>
<text text-anchor="middle" x="221.71" y="-283.73" font-family="Times,serif" font-size="14.00">~</text>
<text text-anchor="middle" x="221.71" y="-268.73" font-family="Times,serif" font-size="14.00">Normal</text>
</g>
<!-- sigma_beta&#45;&gt;beta -->
<g id="edge4" class="edge">
<title>sigma_beta&#45;&gt;beta</title>
<path fill="none" stroke="black" d="M111.97,-367.61C132.46,-352.83 157.22,-334.96 178.04,-319.94"/>
<polygon fill="black" stroke="black" points="180.33,-322.6 186.39,-313.91 176.23,-316.93 180.33,-322.6"/>
</g>
<!-- mu_alpha -->
<g id="node2" class="node">
<title>mu_alpha</title>
<ellipse fill="none" stroke="black" cx="346.71" cy="-398.38" rx="60.21" ry="37.45"/>
<text text-anchor="middle" x="346.71" y="-409.68" font-family="Times,serif" font-size="14.00">mu_alpha</text>
<text text-anchor="middle" x="346.71" y="-394.68" font-family="Times,serif" font-size="14.00">~</text>
<text text-anchor="middle" x="346.71" y="-379.68" font-family="Times,serif" font-size="14.00">Uniform</text>
</g>
<!-- alpha -->
<g id="node5" class="node">
<title>alpha</title>
<ellipse fill="none" stroke="black" cx="338.71" cy="-287.43" rx="49.49" ry="37.45"/>
<text text-anchor="middle" x="338.71" y="-298.73" font-family="Times,serif" font-size="14.00">alpha</text>
<text text-anchor="middle" x="338.71" y="-283.73" font-family="Times,serif" font-size="14.00">~</text>
<text text-anchor="middle" x="338.71" y="-268.73" font-family="Times,serif" font-size="14.00">Normal</text>
</g>
<!-- mu_alpha&#45;&gt;alpha -->
<g id="edge1" class="edge">
<title>mu_alpha&#45;&gt;alpha</title>
<path fill="none" stroke="black" d="M344.02,-360.8C343.42,-352.63 342.78,-343.85 342.15,-335.32"/>
<polygon fill="black" stroke="black" points="345.63,-334.82 341.4,-325.1 338.65,-335.33 345.63,-334.82"/>
</g>
<!-- mu_beta -->
<g id="node3" class="node">
<title>mu_beta</title>
<ellipse fill="none" stroke="black" cx="213.71" cy="-398.38" rx="54.39" ry="37.45"/>
<text text-anchor="middle" x="213.71" y="-409.68" font-family="Times,serif" font-size="14.00">mu_beta</text>
<text text-anchor="middle" x="213.71" y="-394.68" font-family="Times,serif" font-size="14.00">~</text>
<text text-anchor="middle" x="213.71" y="-379.68" font-family="Times,serif" font-size="14.00">Uniform</text>
</g>
<!-- mu_beta&#45;&gt;beta -->
<g id="edge3" class="edge">
<title>mu_beta&#45;&gt;beta</title>
<path fill="none" stroke="black" d="M216.4,-360.8C217,-352.63 217.64,-343.85 218.27,-335.32"/>
<polygon fill="black" stroke="black" points="221.78,-335.33 219.02,-325.1 214.8,-334.82 221.78,-335.33"/>
</g>
<!-- sigma_alpha -->
<g id="node4" class="node">
<title>sigma_alpha</title>
<ellipse fill="none" stroke="black" cx="498.71" cy="-398.38" rx="74.49" ry="37.45"/>
<text text-anchor="middle" x="498.71" y="-409.68" font-family="Times,serif" font-size="14.00">sigma_alpha</text>
<text text-anchor="middle" x="498.71" y="-394.68" font-family="Times,serif" font-size="14.00">~</text>
<text text-anchor="middle" x="498.71" y="-379.68" font-family="Times,serif" font-size="14.00">HalfNormal</text>
</g>
<!-- sigma_alpha&#45;&gt;alpha -->
<g id="edge2" class="edge">
<title>sigma_alpha&#45;&gt;alpha</title>
<path fill="none" stroke="black" d="M455.41,-367.9C433.09,-352.7 405.9,-334.18 383.39,-318.85"/>
<polygon fill="black" stroke="black" points="385.24,-315.88 375,-313.14 381.3,-321.67 385.24,-315.88"/>
</g>
<!-- thetaij -->
<g id="node7" class="node">
<title>thetaij</title>
<polygon fill="none" stroke="black" points="334.71,-202.95 220.71,-202.95 220.71,-149.95 334.71,-149.95 334.71,-202.95"/>
<text text-anchor="middle" x="277.71" y="-187.75" font-family="Times,serif" font-size="14.00">thetaij</text>
<text text-anchor="middle" x="277.71" y="-172.75" font-family="Times,serif" font-size="14.00">~</text>
<text text-anchor="middle" x="277.71" y="-157.75" font-family="Times,serif" font-size="14.00">Deterministic</text>
</g>
<!-- alpha&#45;&gt;thetaij -->
<g id="edge5" class="edge">
<title>alpha&#45;&gt;thetaij</title>
<path fill="none" stroke="black" d="M319.74,-252.55C312.54,-239.68 304.33,-225.01 297.09,-212.07"/>
<polygon fill="black" stroke="black" points="299.95,-210.02 292.01,-203 293.84,-213.44 299.95,-210.02"/>
</g>
<!-- beta&#45;&gt;thetaij -->
<g id="edge6" class="edge">
<title>beta&#45;&gt;thetaij</title>
<path fill="none" stroke="black" d="M239.28,-252.25C245.83,-239.49 253.28,-225 259.86,-212.19"/>
<polygon fill="black" stroke="black" points="263.02,-213.71 264.47,-203.21 256.79,-210.51 263.02,-213.71"/>
</g>
<!-- rij -->
<g id="node8" class="node">
<title>rij</title>
<ellipse fill="lightgrey" stroke="black" cx="277.71" cy="-76.48" rx="56.64" ry="37.45"/>
<text text-anchor="middle" x="277.71" y="-87.78" font-family="Times,serif" font-size="14.00">rij</text>
<text text-anchor="middle" x="277.71" y="-72.78" font-family="Times,serif" font-size="14.00">~</text>
<text text-anchor="middle" x="277.71" y="-57.78" font-family="Times,serif" font-size="14.00">Binomial</text>
</g>
<!-- thetaij&#45;&gt;rij -->
<g id="edge7" class="edge">
<title>thetaij&#45;&gt;rij</title>
<path fill="none" stroke="black" d="M277.71,-149.71C277.71,-141.89 277.71,-133.03 277.71,-124.27"/>
<polygon fill="black" stroke="black" points="281.21,-124.1 277.71,-114.1 274.21,-124.1 281.21,-124.1"/>
</g>
</g>
</svg>