<?xml version="1.0" encoding="UTF-8" standalone="no"?>
<!DOCTYPE svg PUBLIC "-//W3C//DTD SVG 1.1//EN"
 "http://www.w3.org/Graphics/SVG/1.1/DTD/svg11.dtd">
<!-- Generated by graphviz version 2.43.0 (0)
 -->
<!-- Title: %3 Pages: 1 -->
<svg width="581pt" height="444pt"
 viewBox="0.00 0.00 580.81 443.86" xmlns="http://www.w3.org/2000/svg" xmlns:xlink="http://www.w3.org/1999/xlink">
<g id="graph0" class="graph" transform="scale(1 1) rotate(0) translate(4 439.86)">
<title>%3</title>
<polygon fill="white" stroke="transparent" points="-4,4 -4,-439.86 576.81,-439.86 576.81,4 -4,4"/>
<g id="clust1" class="cluster">
<title>cluster191</title>
<path fill="none" stroke="black" d="M182.1,-218.95C182.1,-218.95 389.1,-218.95 389.1,-218.95 395.1,-218.95 401.1,-224.95 401.1,-230.95 401.1,-230.95 401.1,-320.91 401.1,-320.91 401.1,-326.91 395.1,-332.91 389.1,-332.91 389.1,-332.91 182.1,-332.91 182.1,-332.91 176.1,-332.91 170.1,-326.91 170.1,-320.91 170.1,-320.91 170.1,-230.95 170.1,-230.95 170.1,-224.95 176.1,-218.95 182.1,-218.95"/>
<text text-anchor="middle" x="379.1" y="-226.75" font-family="Times,serif" font-size="14.00">191</text>
</g>
<g id="clust2" class="cluster">
<title>cluster5339</title>
<path fill="none" stroke="black" d="M230.1,-8C230.1,-8 336.1,-8 336.1,-8 342.1,-8 348.1,-14 348.1,-20 348.1,-20 348.1,-198.95 348.1,-198.95 348.1,-204.95 342.1,-210.95 336.1,-210.95 336.1,-210.95 230.1,-210.95 230.1,-210.95 224.1,-210.95 218.1,-204.95 218.1,-198.95 218.1,-198.95 218.1,-20 218.1,-20 218.1,-14 224.1,-8 230.1,-8"/>
<text text-anchor="middle" x="321.6" y="-15.8" font-family="Times,serif" font-size="14.00">5339</text>
</g>
<!-- mu_beta -->
<g id="node1" class="node">
<title>mu_beta</title>
<ellipse fill="none" stroke="black" cx="359.1" cy="-398.38" rx="54.39" ry="37.45"/>
<text text-anchor="middle" x="359.1" y="-409.68" font-family="Times,serif" font-size="14.00">mu_beta</text>
<text text-anchor="middle" x="359.1" y="-394.68" font-family="Times,serif" font-size="14.00">~</text>
<text text-anchor="middle" x="359.1" y="-379.68" font-family="Times,serif" font-size="14.00">Uniform</text>
</g>
<!-- beta -->
<g id="node5" class="node">
<title>beta</title>
<ellipse fill="none" stroke="black" cx="344.1" cy="-287.43" rx="49.49" ry="37.45"/>
<text text-anchor="middle" x="344.1" y="-298.73" font-family="Times,serif" font-size="14.00">beta</text>
<text text-anchor="middle" x="344.1" y="-283.73" font-family="Times,serif" font-size="14.00">~</text>
<text text-anchor="middle" x="344.1" y="-268.73" font-family="Times,serif" font-size="14.00">Normal</text>
</g>
<!-- mu_beta&#45;&gt;beta -->
<g id="edge3" class="edge">
<title>mu_beta&#45;&gt;beta</title>
<path fill="none" stroke="black" d="M354.07,-360.8C352.92,-352.45 351.68,-343.46 350.48,-334.76"/>
<polygon fill="black" stroke="black" points="353.93,-334.16 349.1,-324.73 347,-335.12 353.93,-334.16"/>
</g>
<!-- mu_alpha -->
<g id="node2" class="node">
<title>mu_alpha</title>
<ellipse fill="none" stroke="black" cx="60.1" cy="-398.38" rx="60.21" ry="37.45"/>
<text text-anchor="middle" x="60.1" y="-409.68" font-family="Times,serif" font-size="14.00">mu_alpha</text>
<text text-anchor="middle" x="60.1" y="-394.68" font-family="Times,serif" font-size="14.00">~</text>
<text text-anchor="middle" x="60.1" y="-379.68" font-family="Times,serif" font-size="14.00">Uniform</text>
</g>
<!-- alpha -->
<g id="node6" class="node">
<title>alpha</title>
<ellipse fill="none" stroke="black" cx="227.1" cy="-287.43" rx="49.49" ry="37.45"/>
<text text-anchor="middle" x="227.1" y="-298.73" font-family="Times,serif" font-size="14.00">alpha</text>
<text text-anchor="middle" x="227.1" y="-283.73" font-family="Times,serif" font-size="14.00">~</text>
<text text-anchor="middle" x="227.1" y="-268.73" font-family="Times,serif" font-size="14.00">Normal</text>
</g>
<!-- mu_alpha&#45;&gt;alpha -->
<g id="edge1" class="edge">
<title>mu_alpha&#45;&gt;alpha</title>
<path fill="none" stroke="black" d="M100.96,-370.73C125.32,-354.84 156.29,-334.63 181.45,-318.21"/>
<polygon fill="black" stroke="black" points="183.63,-320.97 190.09,-312.58 179.8,-315.11 183.63,-320.97"/>
</g>
<!-- sigma_alpha -->
<g id="node3" class="node">
<title>sigma_alpha</title>
<ellipse fill="none" stroke="black" cx="212.1" cy="-398.38" rx="74.49" ry="37.45"/>
<text text-anchor="middle" x="212.1" y="-409.68" font-family="Times,serif" font-size="14.00">sigma_alpha</text>
<text text-anchor="middle" x="212.1" y="-394.68" font-family="Times,serif" font-size="14.00">~</text>
<text text-anchor="middle" x="212.1" y="-379.68" font-family="Times,serif" font-size="14.00">HalfNormal</text>
</g>
<!-- sigma_alpha&#45;&gt;alpha -->
<g id="edge2" class="edge">
<title>sigma_alpha&#45;&gt;alpha</title>
<path fill="none" stroke="black" d="M217.14,-360.8C218.29,-352.45 219.53,-343.46 220.73,-334.76"/>
<polygon fill="black" stroke="black" points="224.21,-335.12 222.11,-324.73 217.28,-334.16 224.21,-335.12"/>
</g>
<!-- sigma_beta -->
<g id="node4" class="node">
<title>sigma_beta</title>
<ellipse fill="none" stroke="black" cx="502.1" cy="-398.38" rx="70.92" ry="37.45"/>
<text text-anchor="middle" x="502.1" y="-409.68" font-family="Times,serif" font-size="14.00">sigma_beta</text>
<text text-anchor="middle" x="502.1" y="-394.68" font-family="Times,serif" font-size="14.00">~</text>
<text text-anchor="middle" x="502.1" y="-379.68" font-family="Times,serif" font-size="14.00">HalfNormal</text>
</g>
<!-- sigma_beta&#45;&gt;beta -->
<g id="edge4" class="edge">
<title>sigma_beta&#45;&gt;beta</title>
<path fill="none" stroke="black" d="M459.76,-368.19C437.72,-352.98 410.78,-334.4 388.44,-319.01"/>
<polygon fill="black" stroke="black" points="390.35,-316.07 380.13,-313.27 386.38,-321.83 390.35,-316.07"/>
</g>
<!-- thetaij -->
<g id="node8" class="node">
<title>thetaij</title>
<polygon fill="none" stroke="black" points="340.1,-202.95 226.1,-202.95 226.1,-149.95 340.1,-149.95 340.1,-202.95"/>
<text text-anchor="middle" x="283.1" y="-187.75" font-family="Times,serif" font-size="14.00">thetaij</text>
<text text-anchor="middle" x="283.1" y="-172.75" font-family="Times,serif" font-size="14.00">~</text>
<text text-anchor="middle" x="283.1" y="-157.75" font-family="Times,serif" font-size="14.00">Deterministic</text>
</g>
<!-- beta&#45;&gt;thetaij -->
<g id="edge5" class="edge">
<title>beta&#45;&gt;thetaij</title>
<path fill="none" stroke="black" d="M325.14,-252.55C317.93,-239.68 309.72,-225.01 302.48,-212.07"/>
<polygon fill="black" stroke="black" points="305.34,-210.02 297.41,-203 299.24,-213.44 305.34,-210.02"/>
</g>
<!-- alpha&#45;&gt;thetaij -->
<g id="edge6" class="edge">
<title>alpha&#45;&gt;thetaij</title>
<path fill="none" stroke="black" d="M244.67,-252.25C251.23,-239.49 258.67,-225 265.25,-212.19"/>
<polygon fill="black" stroke="black" points="268.41,-213.71 269.87,-203.21 262.18,-210.51 268.41,-213.71"/>
</g>
<!-- rij -->
<g id="node7" class="node">
<title>rij</title>
<ellipse fill="lightgrey" stroke="black" cx="283.1" cy="-76.48" rx="56.64" ry="37.45"/>
<text text-anchor="middle" x="283.1" y="-87.78" font-family="Times,serif" font-size="14.00">rij</text>
<text text-anchor="middle" x="283.1" y="-72.78" font-family="Times,serif" font-size="14.00">~</text>
<text text-anchor="middle" x="283.1" y="-57.78" font-family="Times,serif" font-size="14.00">Binomial</text>
</g>
<!-- thetaij&#45;&gt;rij -->
<g id="edge7" class="edge">
<title>thetaij&#45;&gt;rij</title>
<path fill="none" stroke="black" d="M283.1,-149.71C283.1,-141.89 283.1,-133.03 283.1,-124.27"/>
<polygon fill="black" stroke="black" points="286.6,-124.1 283.1,-114.1 279.6,-124.1 286.6,-124.1"/>
</g>
</g>
</svg>