<?xml version="1.0" encoding="UTF-8" standalone="no"?>
<!DOCTYPE svg PUBLIC "-//W3C//DTD SVG 1.1//EN"
 "http://www.w3.org/Graphics/SVG/1.1/DTD/svg11.dtd">
<!-- Generated by graphviz version 2.43.0 (0)
 -->
<!-- Title: %3 Pages: 1 -->
<svg width="581pt" height="444pt"
 viewBox="0.00 0.00 580.69 443.86" xmlns="http://www.w3.org/2000/svg" xmlns:xlink="http://www.w3.org/1999/xlink">
<g id="graph0" class="graph" transform="scale(1 1) rotate(0) translate(4 439.86)">
<title>%3</title>
<polygon fill="white" stroke="transparent" points="-4,4 -4,-439.86 576.69,-439.86 576.69,4 -4,4"/>
<g id="clust1" class="cluster">
<title>cluster191</title>
<path fill="none" stroke="black" d="M197.25,-218.95C197.25,-218.95 404.25,-218.95 404.25,-218.95 410.25,-218.95 416.25,-224.95 416.25,-230.95 416.25,-230.95 416.25,-320.91 416.25,-320.91 416.25,-326.91 410.25,-332.91 404.25,-332.91 404.25,-332.91 197.25,-332.91 197.25,-332.91 191.25,-332.91 185.25,-326.91 185.25,-320.91 185.25,-320.91 185.25,-230.95 185.25,-230.95 185.25,-224.95 191.25,-218.95 197.25,-218.95"/>
<text text-anchor="middle" x="394.25" y="-226.75" font-family="Times,serif" font-size="14.00">191</text>
</g>
<g id="clust2" class="cluster">
<title>cluster5339</title>
<path fill="none" stroke="black" d="M245.25,-8C245.25,-8 351.25,-8 351.25,-8 357.25,-8 363.25,-14 363.25,-20 363.25,-20 363.25,-198.95 363.25,-198.95 363.25,-204.95 357.25,-210.95 351.25,-210.95 351.25,-210.95 245.25,-210.95 245.25,-210.95 239.25,-210.95 233.25,-204.95 233.25,-198.95 233.25,-198.95 233.25,-20 233.25,-20 233.25,-14 239.25,-8 245.25,-8"/>
<text text-anchor="middle" x="336.75" y="-15.8" font-family="Times,serif" font-size="14.00">5339</text>
</g>
<!-- sigma_alpha -->
<g id="node1" class="node">
<title>sigma_alpha</title>
<ellipse fill="none" stroke="black" cx="74.25" cy="-398.38" rx="74.49" ry="37.45"/>
<text text-anchor="middle" x="74.25" y="-409.68" font-family="Times,serif" font-size="14.00">sigma_alpha</text>
<text text-anchor="middle" x="74.25" y="-394.68" font-family="Times,serif" font-size="14.00">~</text>
<text text-anchor="middle" x="74.25" y="-379.68" font-family="Times,serif" font-size="14.00">HalfNormal</text>
</g>
<!-- alpha -->
<g id="node6" class="node">
<title>alpha</title>
<ellipse fill="none" stroke="black" cx="242.25" cy="-287.43" rx="49.49" ry="37.45"/>
<text text-anchor="middle" x="242.25" y="-298.73" font-family="Times,serif" font-size="14.00">alpha</text>
<text text-anchor="middle" x="242.25" y="-283.73" font-family="Times,serif" font-size="14.00">~</text>
<text text-anchor="middle" x="242.25" y="-268.73" font-family="Times,serif" font-size="14.00">Normal</text>
</g>
<!-- sigma_alpha&#45;&gt;alpha -->
<g id="edge1" class="edge">
<title>sigma_alpha&#45;&gt;alpha</title>
<path fill="none" stroke="black" d="M119.27,-368.19C143.16,-352.69 172.46,-333.69 196.46,-318.12"/>
<polygon fill="black" stroke="black" points="198.56,-320.93 205.05,-312.56 194.75,-315.06 198.56,-320.93"/>
</g>
<!-- sigma_beta -->
<g id="node2" class="node">
<title>sigma_beta</title>
<ellipse fill="none" stroke="black" cx="375.25" cy="-398.38" rx="70.92" ry="37.45"/>
<text text-anchor="middle" x="375.25" y="-409.68" font-family="Times,serif" font-size="14.00">sigma_beta</text>
<text text-anchor="middle" x="375.25" y="-394.68" font-family="Times,serif" font-size="14.00">~</text>
<text text-anchor="middle" x="375.25" y="-379.68" font-family="Times,serif" font-size="14.00">HalfNormal</text>
</g>
<!-- beta -->
<g id="node5" class="node">
<title>beta</title>
<ellipse fill="none" stroke="black" cx="359.25" cy="-287.43" rx="49.49" ry="37.45"/>
<text text-anchor="middle" x="359.25" y="-298.73" font-family="Times,serif" font-size="14.00">beta</text>
<text text-anchor="middle" x="359.25" y="-283.73" font-family="Times,serif" font-size="14.00">~</text>
<text text-anchor="middle" x="359.25" y="-268.73" font-family="Times,serif" font-size="14.00">Normal</text>
</g>
<!-- sigma_beta&#45;&gt;beta -->
<g id="edge3" class="edge">
<title>sigma_beta&#45;&gt;beta</title>
<path fill="none" stroke="black" d="M369.87,-360.8C368.65,-352.45 367.33,-343.46 366.05,-334.76"/>
<polygon fill="black" stroke="black" points="369.49,-334.12 364.58,-324.73 362.57,-335.13 369.49,-334.12"/>
</g>
<!-- mu_alpha -->
<g id="node3" class="node">
<title>mu_alpha</title>
<ellipse fill="none" stroke="black" cx="226.25" cy="-398.38" rx="60.21" ry="37.45"/>
<text text-anchor="middle" x="226.25" y="-409.68" font-family="Times,serif" font-size="14.00">mu_alpha</text>
<text text-anchor="middle" x="226.25" y="-394.68" font-family="Times,serif" font-size="14.00">~</text>
<text text-anchor="middle" x="226.25" y="-379.68" font-family="Times,serif" font-size="14.00">Uniform</text>
</g>
<!-- mu_alpha&#45;&gt;alpha -->
<g id="edge2" class="edge">
<title>mu_alpha&#45;&gt;alpha</title>
<path fill="none" stroke="black" d="M231.62,-360.8C232.85,-352.45 234.16,-343.46 235.44,-334.76"/>
<polygon fill="black" stroke="black" points="238.93,-335.13 236.92,-324.73 232,-334.12 238.93,-335.13"/>
</g>
<!-- mu_beta -->
<g id="node4" class="node">
<title>mu_beta</title>
<ellipse fill="none" stroke="black" cx="518.25" cy="-398.38" rx="54.39" ry="37.45"/>
<text text-anchor="middle" x="518.25" y="-409.68" font-family="Times,serif" font-size="14.00">mu_beta</text>
<text text-anchor="middle" x="518.25" y="-394.68" font-family="Times,serif" font-size="14.00">~</text>
<text text-anchor="middle" x="518.25" y="-379.68" font-family="Times,serif" font-size="14.00">Uniform</text>
</g>
<!-- mu_beta&#45;&gt;beta -->
<g id="edge4" class="edge">
<title>mu_beta&#45;&gt;beta</title>
<path fill="none" stroke="black" d="M480.16,-371.29C457.15,-355.52 427.72,-335.35 403.65,-318.86"/>
<polygon fill="black" stroke="black" points="405.61,-315.96 395.38,-313.19 401.65,-321.73 405.61,-315.96"/>
</g>
<!-- thetaij -->
<g id="node8" class="node">
<title>thetaij</title>
<polygon fill="none" stroke="black" points="355.25,-202.95 241.25,-202.95 241.25,-149.95 355.25,-149.95 355.25,-202.95"/>
<text text-anchor="middle" x="298.25" y="-187.75" font-family="Times,serif" font-size="14.00">thetaij</text>
<text text-anchor="middle" x="298.25" y="-172.75" font-family="Times,serif" font-size="14.00">~</text>
<text text-anchor="middle" x="298.25" y="-157.75" font-family="Times,serif" font-size="14.00">Deterministic</text>
</g>
<!-- beta&#45;&gt;thetaij -->
<g id="edge5" class="edge">
<title>beta&#45;&gt;thetaij</title>
<path fill="none" stroke="black" d="M340.28,-252.55C333.08,-239.68 324.86,-225.01 317.62,-212.07"/>
<polygon fill="black" stroke="black" points="320.49,-210.02 312.55,-203 314.38,-213.44 320.49,-210.02"/>
</g>
<!-- alpha&#45;&gt;thetaij -->
<g id="edge6" class="edge">
<title>alpha&#45;&gt;thetaij</title>
<path fill="none" stroke="black" d="M259.81,-252.25C266.37,-239.49 273.81,-225 280.4,-212.19"/>
<polygon fill="black" stroke="black" points="283.55,-213.71 285.01,-203.21 277.33,-210.51 283.55,-213.71"/>
</g>
<!-- rij -->
<g id="node7" class="node">
<title>rij</title>
<ellipse fill="lightgrey" stroke="black" cx="298.25" cy="-76.48" rx="56.64" ry="37.45"/>
<text text-anchor="middle" x="298.25" y="-87.78" font-family="Times,serif" font-size="14.00">rij</text>
<text text-anchor="middle" x="298.25" y="-72.78" font-family="Times,serif" font-size="14.00">~</text>
<text text-anchor="middle" x="298.25" y="-57.78" font-family="Times,serif" font-size="14.00">Binomial</text>
</g>
<!-- thetaij&#45;&gt;rij -->
<g id="edge7" class="edge">
<title>thetaij&#45;&gt;rij</title>
<path fill="none" stroke="black" d="M298.25,-149.71C298.25,-141.89 298.25,-133.03 298.25,-124.27"/>
<polygon fill="black" stroke="black" points="301.75,-124.1 298.25,-114.1 294.75,-124.1 301.75,-124.1"/>
</g>
</g>
</svg>