<?xml version="1.0" encoding="UTF-8" standalone="no"?>
<!DOCTYPE svg PUBLIC "-//W3C//DTD SVG 1.1//EN"
 "http://www.w3.org/Graphics/SVG/1.1/DTD/svg11.dtd">
<!-- Generated by graphviz version 8.0.5 (20230506.1012)
 -->
<!-- Pages: 1 -->
<svg width="577pt" height="484pt"
 viewBox="0.00 0.00 577.07 483.75" xmlns="http://www.w3.org/2000/svg" xmlns:xlink="http://www.w3.org/1999/xlink">
<g id="graph0" class="graph" transform="scale(1 1) rotate(0) translate(4 479.75)">
<polygon fill="white" stroke="none" points="-4,4 -4,-479.75 573.07,-479.75 573.07,4 -4,4"/>
<g id="clust1" class="cluster">
<title>cluster191</title>
<path fill="none" stroke="black" d="M187.89,-237.5C187.89,-237.5 393.89,-237.5 393.89,-237.5 399.89,-237.5 405.89,-243.5 405.89,-249.5 405.89,-249.5 405.89,-351.25 405.89,-351.25 405.89,-357.25 399.89,-363.25 393.89,-363.25 393.89,-363.25 187.89,-363.25 187.89,-363.25 181.89,-363.25 175.89,-357.25 175.89,-351.25 175.89,-351.25 175.89,-249.5 175.89,-249.5 175.89,-243.5 181.89,-237.5 187.89,-237.5"/>
<text text-anchor="middle" x="384.39" y="-245.45" font-family="Times,serif" font-size="14.00">191</text>
</g>
<g id="clust2" class="cluster">
<title>cluster5339</title>
<path fill="none" stroke="black" d="M235.89,-8C235.89,-8 341.89,-8 341.89,-8 347.89,-8 353.89,-14 353.89,-20 353.89,-20 353.89,-217.5 353.89,-217.5 353.89,-223.5 347.89,-229.5 341.89,-229.5 341.89,-229.5 235.89,-229.5 235.89,-229.5 229.89,-229.5 223.89,-223.5 223.89,-217.5 223.89,-217.5 223.89,-20 223.89,-20 223.89,-14 229.89,-8 235.89,-8"/>
<text text-anchor="middle" x="327.89" y="-15.95" font-family="Times,serif" font-size="14.00">5339</text>
</g>
<!-- sigma_alpha -->
<g id="node1" class="node">
<title>sigma_alpha</title>
<ellipse fill="none" stroke="black" cx="73.89" cy="-433.5" rx="73.89" ry="42.25"/>
<text text-anchor="middle" x="73.89" y="-446.07" font-family="Times,serif" font-size="14.00">sigma_alpha</text>
<text text-anchor="middle" x="73.89" y="-428.82" font-family="Times,serif" font-size="14.00">~</text>
<text text-anchor="middle" x="73.89" y="-411.57" font-family="Times,serif" font-size="14.00">HalfNormal</text>
</g>
<!-- alpha -->
<g id="node5" class="node">
<title>alpha</title>
<ellipse fill="none" stroke="black" cx="232.89" cy="-313" rx="48.97" ry="42.25"/>
<text text-anchor="middle" x="232.89" y="-325.57" font-family="Times,serif" font-size="14.00">alpha</text>
<text text-anchor="middle" x="232.89" y="-308.32" font-family="Times,serif" font-size="14.00">~</text>
<text text-anchor="middle" x="232.89" y="-291.07" font-family="Times,serif" font-size="14.00">Normal</text>
</g>
<!-- sigma_alpha&#45;&gt;alpha -->
<g id="edge1" class="edge">
<title>sigma_alpha&#45;&gt;alpha</title>
<path fill="none" stroke="black" d="M118.18,-399.49C139.75,-383.42 165.64,-364.12 187.37,-347.93"/>
<polygon fill="black" stroke="black" points="189.16,-350.21 195.09,-341.43 184.98,-344.6 189.16,-350.21"/>
</g>
<!-- mu_beta -->
<g id="node2" class="node">
<title>mu_beta</title>
<ellipse fill="none" stroke="black" cx="356.89" cy="-433.5" rx="54.27" ry="42.25"/>
<text text-anchor="middle" x="356.89" y="-446.07" font-family="Times,serif" font-size="14.00">mu_beta</text>
<text text-anchor="middle" x="356.89" y="-428.82" font-family="Times,serif" font-size="14.00">~</text>
<text text-anchor="middle" x="356.89" y="-411.57" font-family="Times,serif" font-size="14.00">Uniform</text>
</g>
<!-- beta -->
<g id="node6" class="node">
<title>beta</title>
<ellipse fill="none" stroke="black" cx="348.89" cy="-313" rx="48.97" ry="42.25"/>
<text text-anchor="middle" x="348.89" y="-325.57" font-family="Times,serif" font-size="14.00">beta</text>
<text text-anchor="middle" x="348.89" y="-308.32" font-family="Times,serif" font-size="14.00">~</text>
<text text-anchor="middle" x="348.89" y="-291.07" font-family="Times,serif" font-size="14.00">Normal</text>
</g>
<!-- mu_beta&#45;&gt;beta -->
<g id="edge3" class="edge">
<title>mu_beta&#45;&gt;beta</title>
<path fill="none" stroke="black" d="M354.09,-391.05C353.56,-383.07 352.98,-374.61 352.43,-366.34"/>
<polygon fill="black" stroke="black" points="355.87,-366.36 351.7,-356.62 348.88,-366.83 355.87,-366.36"/>
</g>
<!-- mu_alpha -->
<g id="node3" class="node">
<title>mu_alpha</title>
<ellipse fill="none" stroke="black" cx="224.89" cy="-433.5" rx="59.57" ry="42.25"/>
<text text-anchor="middle" x="224.89" y="-446.07" font-family="Times,serif" font-size="14.00">mu_alpha</text>
<text text-anchor="middle" x="224.89" y="-428.82" font-family="Times,serif" font-size="14.00">~</text>
<text text-anchor="middle" x="224.89" y="-411.57" font-family="Times,serif" font-size="14.00">Uniform</text>
</g>
<!-- mu_alpha&#45;&gt;alpha -->
<g id="edge2" class="edge">
<title>mu_alpha&#45;&gt;alpha</title>
<path fill="none" stroke="black" d="M227.69,-391.05C228.23,-383.07 228.8,-374.61 229.36,-366.34"/>
<polygon fill="black" stroke="black" points="232.9,-366.83 230.08,-356.62 225.92,-366.36 232.9,-366.83"/>
</g>
<!-- sigma_beta -->
<g id="node4" class="node">
<title>sigma_beta</title>
<ellipse fill="none" stroke="black" cx="498.89" cy="-433.5" rx="70.18" ry="42.25"/>
<text text-anchor="middle" x="498.89" y="-446.07" font-family="Times,serif" font-size="14.00">sigma_beta</text>
<text text-anchor="middle" x="498.89" y="-428.82" font-family="Times,serif" font-size="14.00">~</text>
<text text-anchor="middle" x="498.89" y="-411.57" font-family="Times,serif" font-size="14.00">HalfNormal</text>
</g>
<!-- sigma_beta&#45;&gt;beta -->
<g id="edge4" class="edge">
<title>sigma_beta&#45;&gt;beta</title>
<path fill="none" stroke="black" d="M457.11,-399.49C437.08,-383.67 413.1,-364.72 392.81,-348.69"/>
<polygon fill="black" stroke="black" points="395.37,-345.47 385.36,-342.02 391.03,-350.96 395.37,-345.47"/>
</g>
<!-- thetaij -->
<g id="node8" class="node">
<title>thetaij</title>
<polygon fill="none" stroke="black" points="345.64,-221.5 232.14,-221.5 232.14,-161.75 345.64,-161.75 345.64,-221.5"/>
<text text-anchor="middle" x="288.89" y="-204.2" font-family="Times,serif" font-size="14.00">thetaij</text>
<text text-anchor="middle" x="288.89" y="-186.95" font-family="Times,serif" font-size="14.00">~</text>
<text text-anchor="middle" x="288.89" y="-169.7" font-family="Times,serif" font-size="14.00">Deterministic</text>
</g>
<!-- alpha&#45;&gt;thetaij -->
<g id="edge5" class="edge">
<title>alpha&#45;&gt;thetaij</title>
<path fill="none" stroke="black" d="M250.92,-273.57C257.19,-260.21 264.22,-245.21 270.52,-231.79"/>
<polygon fill="black" stroke="black" points="274.08,-233.43 275.16,-222.89 267.75,-230.46 274.08,-233.43"/>
</g>
<!-- beta&#45;&gt;thetaij -->
<g id="edge6" class="edge">
<title>beta&#45;&gt;thetaij</title>
<path fill="none" stroke="black" d="M329.74,-273.9C322.9,-260.28 315.18,-244.93 308.32,-231.27"/>
<polygon fill="black" stroke="black" points="311.11,-230.03 303.49,-222.67 304.85,-233.18 311.11,-230.03"/>
</g>
<!-- rij -->
<g id="node7" class="node">
<title>rij</title>
<ellipse fill="lightgrey" stroke="black" cx="288.89" cy="-83.5" rx="55.86" ry="42.25"/>
<text text-anchor="middle" x="288.89" y="-96.07" font-family="Times,serif" font-size="14.00">rij</text>
<text text-anchor="middle" x="288.89" y="-78.82" font-family="Times,serif" font-size="14.00">~</text>
<text text-anchor="middle" x="288.89" y="-61.57" font-family="Times,serif" font-size="14.00">Binomial</text>
</g>
<!-- thetaij&#45;&gt;rij -->
<g id="edge7" class="edge">
<title>thetaij&#45;&gt;rij</title>
<path fill="none" stroke="black" d="M288.89,-161.34C288.89,-153.75 288.89,-145.34 288.89,-136.95"/>
<polygon fill="black" stroke="black" points="292.39,-137 288.89,-127 285.39,-137 292.39,-137"/>
</g>
</g>
</svg>