<?xml version="1.0" encoding="UTF-8" standalone="no"?>
<!DOCTYPE svg PUBLIC "-//W3C//DTD SVG 1.1//EN"
 "http://www.w3.org/Graphics/SVG/1.1/DTD/svg11.dtd">
<!-- Generated by graphviz version 2.43.0 (0)
 -->
<!-- Title: %3 Pages: 1 -->
<svg width="581pt" height="444pt"
 viewBox="0.00 0.00 580.55 443.86" xmlns="http://www.w3.org/2000/svg" xmlns:xlink="http://www.w3.org/1999/xlink">
<g id="graph0" class="graph" transform="scale(1 1) rotate(0) translate(4 439.86)">
<title>%3</title>
<polygon fill="white" stroke="transparent" points="-4,4 -4,-439.86 576.55,-439.86 576.55,4 -4,4"/>
<g id="clust1" class="cluster">
<title>cluster191</title>
<path fill="none" stroke="black" d="M190.1,-218.95C190.1,-218.95 397.1,-218.95 397.1,-218.95 403.1,-218.95 409.1,-224.95 409.1,-230.95 409.1,-230.95 409.1,-320.91 409.1,-320.91 409.1,-326.91 403.1,-332.91 397.1,-332.91 397.1,-332.91 190.1,-332.91 190.1,-332.91 184.1,-332.91 178.1,-326.91 178.1,-320.91 178.1,-320.91 178.1,-230.95 178.1,-230.95 178.1,-224.95 184.1,-218.95 190.1,-218.95"/>
<text text-anchor="middle" x="387.1" y="-226.75" font-family="Times,serif" font-size="14.00">191</text>
</g>
<g id="clust2" class="cluster">
<title>cluster5339</title>
<path fill="none" stroke="black" d="M238.1,-8C238.1,-8 344.1,-8 344.1,-8 350.1,-8 356.1,-14 356.1,-20 356.1,-20 356.1,-198.95 356.1,-198.95 356.1,-204.95 350.1,-210.95 344.1,-210.95 344.1,-210.95 238.1,-210.95 238.1,-210.95 232.1,-210.95 226.1,-204.95 226.1,-198.95 226.1,-198.95 226.1,-20 226.1,-20 226.1,-14 232.1,-8 238.1,-8"/>
<text text-anchor="middle" x="329.6" y="-15.8" font-family="Times,serif" font-size="14.00">5339</text>
</g>
<!-- mu_alpha -->
<g id="node1" class="node">
<title>mu_alpha</title>
<ellipse fill="none" stroke="black" cx="60.1" cy="-398.38" rx="60.21" ry="37.45"/>
<text text-anchor="middle" x="60.1" y="-409.68" font-family="Times,serif" font-size="14.00">mu_alpha</text>
<text text-anchor="middle" x="60.1" y="-394.68" font-family="Times,serif" font-size="14.00">~</text>
<text text-anchor="middle" x="60.1" y="-379.68" font-family="Times,serif" font-size="14.00">Uniform</text>
</g>
<!-- alpha -->
<g id="node6" class="node">
<title>alpha</title>
<ellipse fill="none" stroke="black" cx="235.1" cy="-287.43" rx="49.49" ry="37.45"/>
<text text-anchor="middle" x="235.1" y="-298.73" font-family="Times,serif" font-size="14.00">alpha</text>
<text text-anchor="middle" x="235.1" y="-283.73" font-family="Times,serif" font-size="14.00">~</text>
<text text-anchor="middle" x="235.1" y="-268.73" font-family="Times,serif" font-size="14.00">Normal</text>
</g>
<!-- mu_alpha&#45;&gt;alpha -->
<g id="edge1" class="edge">
<title>mu_alpha&#45;&gt;alpha</title>
<path fill="none" stroke="black" d="M102.02,-371.29C128.21,-354.98 161.95,-333.97 188.91,-317.19"/>
<polygon fill="black" stroke="black" points="190.76,-320.16 197.4,-311.9 187.06,-314.22 190.76,-320.16"/>
</g>
<!-- sigma_alpha -->
<g id="node2" class="node">
<title>sigma_alpha</title>
<ellipse fill="none" stroke="black" cx="212.1" cy="-398.38" rx="74.49" ry="37.45"/>
<text text-anchor="middle" x="212.1" y="-409.68" font-family="Times,serif" font-size="14.00">sigma_alpha</text>
<text text-anchor="middle" x="212.1" y="-394.68" font-family="Times,serif" font-size="14.00">~</text>
<text text-anchor="middle" x="212.1" y="-379.68" font-family="Times,serif" font-size="14.00">HalfNormal</text>
</g>
<!-- sigma_alpha&#45;&gt;alpha -->
<g id="edge2" class="edge">
<title>sigma_alpha&#45;&gt;alpha</title>
<path fill="none" stroke="black" d="M219.76,-361.1C221.57,-352.56 223.51,-343.34 225.39,-334.43"/>
<polygon fill="black" stroke="black" points="228.84,-335.06 227.48,-324.55 221.99,-333.61 228.84,-335.06"/>
</g>
<!-- sigma_beta -->
<g id="node3" class="node">
<title>sigma_beta</title>
<ellipse fill="none" stroke="black" cx="375.1" cy="-398.38" rx="70.92" ry="37.45"/>
<text text-anchor="middle" x="375.1" y="-409.68" font-family="Times,serif" font-size="14.00">sigma_beta</text>
<text text-anchor="middle" x="375.1" y="-394.68" font-family="Times,serif" font-size="14.00">~</text>
<text text-anchor="middle" x="375.1" y="-379.68" font-family="Times,serif" font-size="14.00">HalfNormal</text>
</g>
<!-- beta -->
<g id="node5" class="node">
<title>beta</title>
<ellipse fill="none" stroke="black" cx="352.1" cy="-287.43" rx="49.49" ry="37.45"/>
<text text-anchor="middle" x="352.1" y="-298.73" font-family="Times,serif" font-size="14.00">beta</text>
<text text-anchor="middle" x="352.1" y="-283.73" font-family="Times,serif" font-size="14.00">~</text>
<text text-anchor="middle" x="352.1" y="-268.73" font-family="Times,serif" font-size="14.00">Normal</text>
</g>
<!-- sigma_beta&#45;&gt;beta -->
<g id="edge3" class="edge">
<title>sigma_beta&#45;&gt;beta</title>
<path fill="none" stroke="black" d="M367.45,-361.1C365.64,-352.56 363.69,-343.34 361.81,-334.43"/>
<polygon fill="black" stroke="black" points="365.22,-333.61 359.73,-324.55 358.37,-335.06 365.22,-333.61"/>
</g>
<!-- mu_beta -->
<g id="node4" class="node">
<title>mu_beta</title>
<ellipse fill="none" stroke="black" cx="518.1" cy="-398.38" rx="54.39" ry="37.45"/>
<text text-anchor="middle" x="518.1" y="-409.68" font-family="Times,serif" font-size="14.00">mu_beta</text>
<text text-anchor="middle" x="518.1" y="-394.68" font-family="Times,serif" font-size="14.00">~</text>
<text text-anchor="middle" x="518.1" y="-379.68" font-family="Times,serif" font-size="14.00">Uniform</text>
</g>
<!-- mu_beta&#45;&gt;beta -->
<g id="edge4" class="edge">
<title>mu_beta&#45;&gt;beta</title>
<path fill="none" stroke="black" d="M479.18,-371.84C454.73,-355.79 423.09,-335.02 397.5,-318.22"/>
<polygon fill="black" stroke="black" points="399.35,-315.25 389.07,-312.69 395.51,-321.11 399.35,-315.25"/>
</g>
<!-- thetaij -->
<g id="node7" class="node">
<title>thetaij</title>
<polygon fill="none" stroke="black" points="348.1,-202.95 234.1,-202.95 234.1,-149.95 348.1,-149.95 348.1,-202.95"/>
<text text-anchor="middle" x="291.1" y="-187.75" font-family="Times,serif" font-size="14.00">thetaij</text>
<text text-anchor="middle" x="291.1" y="-172.75" font-family="Times,serif" font-size="14.00">~</text>
<text text-anchor="middle" x="291.1" y="-157.75" font-family="Times,serif" font-size="14.00">Deterministic</text>
</g>
<!-- beta&#45;&gt;thetaij -->
<g id="edge5" class="edge">
<title>beta&#45;&gt;thetaij</title>
<path fill="none" stroke="black" d="M333.14,-252.55C325.93,-239.68 317.72,-225.01 310.48,-212.07"/>
<polygon fill="black" stroke="black" points="313.34,-210.02 305.41,-203 307.24,-213.44 313.34,-210.02"/>
</g>
<!-- alpha&#45;&gt;thetaij -->
<g id="edge6" class="edge">
<title>alpha&#45;&gt;thetaij</title>
<path fill="none" stroke="black" d="M252.67,-252.25C259.23,-239.49 266.67,-225 273.25,-212.19"/>
<polygon fill="black" stroke="black" points="276.41,-213.71 277.87,-203.21 270.18,-210.51 276.41,-213.71"/>
</g>
<!-- rij -->
<g id="node8" class="node">
<title>rij</title>
<ellipse fill="lightgrey" stroke="black" cx="291.1" cy="-76.48" rx="56.64" ry="37.45"/>
<text text-anchor="middle" x="291.1" y="-87.78" font-family="Times,serif" font-size="14.00">rij</text>
<text text-anchor="middle" x="291.1" y="-72.78" font-family="Times,serif" font-size="14.00">~</text>
<text text-anchor="middle" x="291.1" y="-57.78" font-family="Times,serif" font-size="14.00">Binomial</text>
</g>
<!-- thetaij&#45;&gt;rij -->
<g id="edge7" class="edge">
<title>thetaij&#45;&gt;rij</title>
<path fill="none" stroke="black" d="M291.1,-149.71C291.1,-141.89 291.1,-133.03 291.1,-124.27"/>
<polygon fill="black" stroke="black" points="294.6,-124.1 291.1,-114.1 287.6,-124.1 294.6,-124.1"/>
</g>
</g>
</svg>