<?xml version="1.0" encoding="UTF-8" standalone="no"?>
<!DOCTYPE svg PUBLIC "-//W3C//DTD SVG 1.1//EN"
 "http://www.w3.org/Graphics/SVG/1.1/DTD/svg11.dtd">
<!-- Generated by graphviz version 8.0.5 (20230506.1012)
 -->
<!-- Pages: 1 -->
<svg width="272pt" height="350pt"
 viewBox="0.00 0.00 272.39 350.00" xmlns="http://www.w3.org/2000/svg" xmlns:xlink="http://www.w3.org/1999/xlink">
<g id="graph0" class="graph" transform="scale(1 1) rotate(0) translate(4 346)">
<polygon fill="white" stroke="none" points="-4,4 -4,-346 268.39,-346 268.39,4 -4,4"/>
<g id="clust1" class="cluster">
<title>cluster25</title>
<path fill="none" stroke="black" d="M87.18,-8C87.18,-8 193.18,-8 193.18,-8 199.18,-8 205.18,-14 205.18,-20 205.18,-20 205.18,-217.5 205.18,-217.5 205.18,-223.5 199.18,-229.5 193.18,-229.5 193.18,-229.5 87.18,-229.5 87.18,-229.5 81.18,-229.5 75.18,-223.5 75.18,-217.5 75.18,-217.5 75.18,-20 75.18,-20 75.18,-14 81.18,-8 87.18,-8"/>
<text text-anchor="middle" x="188.18" y="-15.95" font-family="Times,serif" font-size="14.00">25</text>
</g>
<!-- beta -->
<g id="node1" class="node">
<title>beta</title>
<ellipse fill="none" stroke="black" cx="70.18" cy="-299.75" rx="70.18" ry="42.25"/>
<text text-anchor="middle" x="70.18" y="-312.32" font-family="Times,serif" font-size="14.00">beta</text>
<text text-anchor="middle" x="70.18" y="-295.07" font-family="Times,serif" font-size="14.00">~</text>
<text text-anchor="middle" x="70.18" y="-277.82" font-family="Times,serif" font-size="14.00">HalfNormal</text>
</g>
<!-- thetaij -->
<g id="node3" class="node">
<title>thetaij</title>
<polygon fill="none" stroke="black" points="196.93,-221.5 83.43,-221.5 83.43,-161.75 196.93,-161.75 196.93,-221.5"/>
<text text-anchor="middle" x="140.18" y="-204.2" font-family="Times,serif" font-size="14.00">thetaij</text>
<text text-anchor="middle" x="140.18" y="-186.95" font-family="Times,serif" font-size="14.00">~</text>
<text text-anchor="middle" x="140.18" y="-169.7" font-family="Times,serif" font-size="14.00">Deterministic</text>
</g>
<!-- beta&#45;&gt;thetaij -->
<g id="edge1" class="edge">
<title>beta&#45;&gt;thetaij</title>
<path fill="none" stroke="black" d="M95.65,-260.14C101.99,-250.52 108.78,-240.23 115.1,-230.65"/>
<polygon fill="black" stroke="black" points="118.4,-233 120.99,-222.72 112.56,-229.14 118.4,-233"/>
</g>
<!-- alpha -->
<g id="node2" class="node">
<title>alpha</title>
<ellipse fill="none" stroke="black" cx="211.18" cy="-299.75" rx="53.21" ry="42.25"/>
<text text-anchor="middle" x="211.18" y="-312.32" font-family="Times,serif" font-size="14.00">alpha</text>
<text text-anchor="middle" x="211.18" y="-295.07" font-family="Times,serif" font-size="14.00">~</text>
<text text-anchor="middle" x="211.18" y="-277.82" font-family="Times,serif" font-size="14.00">Uniform</text>
</g>
<!-- alpha&#45;&gt;thetaij -->
<g id="edge2" class="edge">
<title>alpha&#45;&gt;thetaij</title>
<path fill="none" stroke="black" d="M186.55,-261.93C179.8,-251.85 172.48,-240.9 165.68,-230.74"/>
<polygon fill="black" stroke="black" points="168.09,-229.05 159.62,-222.69 162.28,-232.94 168.09,-229.05"/>
</g>
<!-- rij -->
<g id="node4" class="node">
<title>rij</title>
<ellipse fill="lightgrey" stroke="black" cx="140.18" cy="-83.5" rx="55.86" ry="42.25"/>
<text text-anchor="middle" x="140.18" y="-96.07" font-family="Times,serif" font-size="14.00">rij</text>
<text text-anchor="middle" x="140.18" y="-78.82" font-family="Times,serif" font-size="14.00">~</text>
<text text-anchor="middle" x="140.18" y="-61.57" font-family="Times,serif" font-size="14.00">Binomial</text>
</g>
<!-- thetaij&#45;&gt;rij -->
<g id="edge3" class="edge">
<title>thetaij&#45;&gt;rij</title>
<path fill="none" stroke="black" d="M140.18,-161.34C140.18,-153.75 140.18,-145.34 140.18,-136.95"/>
<polygon fill="black" stroke="black" points="143.68,-137 140.18,-127 136.68,-137 143.68,-137"/>
</g>
</g>
</svg>