<?xml version="1.0" encoding="UTF-8" standalone="no"?>
<!DOCTYPE svg PUBLIC "-//W3C//DTD SVG 1.1//EN"
 "http://www.w3.org/Graphics/SVG/1.1/DTD/svg11.dtd">
<!-- Generated by graphviz version 2.43.0 (0)
 -->
<!-- Title: %3 Pages: 1 -->
<svg width="581pt" height="444pt"
 viewBox="0.00 0.00 580.55 443.86" xmlns="http://www.w3.org/2000/svg" xmlns:xlink="http://www.w3.org/1999/xlink">
<g id="graph0" class="graph" transform="scale(1 1) rotate(0) translate(4 439.86)">
<title>%3</title>
<polygon fill="white" stroke="transparent" points="-4,4 -4,-439.86 576.55,-439.86 576.55,4 -4,4"/>
<g id="clust1" class="cluster">
<title>cluster191</title>
<path fill="none" stroke="black" d="M175.45,-218.95C175.45,-218.95 382.45,-218.95 382.45,-218.95 388.45,-218.95 394.45,-224.95 394.45,-230.95 394.45,-230.95 394.45,-320.91 394.45,-320.91 394.45,-326.91 388.45,-332.91 382.45,-332.91 382.45,-332.91 175.45,-332.91 175.45,-332.91 169.45,-332.91 163.45,-326.91 163.45,-320.91 163.45,-320.91 163.45,-230.95 163.45,-230.95 163.45,-224.95 169.45,-218.95 175.45,-218.95"/>
<text text-anchor="middle" x="372.45" y="-226.75" font-family="Times,serif" font-size="14.00">191</text>
</g>
<g id="clust2" class="cluster">
<title>cluster5339</title>
<path fill="none" stroke="black" d="M223.45,-8C223.45,-8 329.45,-8 329.45,-8 335.45,-8 341.45,-14 341.45,-20 341.45,-20 341.45,-198.95 341.45,-198.95 341.45,-204.95 335.45,-210.95 329.45,-210.95 329.45,-210.95 223.45,-210.95 223.45,-210.95 217.45,-210.95 211.45,-204.95 211.45,-198.95 211.45,-198.95 211.45,-20 211.45,-20 211.45,-14 217.45,-8 223.45,-8"/>
<text text-anchor="middle" x="314.95" y="-15.8" font-family="Times,serif" font-size="14.00">5339</text>
</g>
<!-- sigma_alpha -->
<g id="node1" class="node">
<title>sigma_alpha</title>
<ellipse fill="none" stroke="black" cx="360.45" cy="-398.38" rx="74.49" ry="37.45"/>
<text text-anchor="middle" x="360.45" y="-409.68" font-family="Times,serif" font-size="14.00">sigma_alpha</text>
<text text-anchor="middle" x="360.45" y="-394.68" font-family="Times,serif" font-size="14.00">~</text>
<text text-anchor="middle" x="360.45" y="-379.68" font-family="Times,serif" font-size="14.00">HalfNormal</text>
</g>
<!-- alpha -->
<g id="node5" class="node">
<title>alpha</title>
<ellipse fill="none" stroke="black" cx="337.45" cy="-287.43" rx="49.49" ry="37.45"/>
<text text-anchor="middle" x="337.45" y="-298.73" font-family="Times,serif" font-size="14.00">alpha</text>
<text text-anchor="middle" x="337.45" y="-283.73" font-family="Times,serif" font-size="14.00">~</text>
<text text-anchor="middle" x="337.45" y="-268.73" font-family="Times,serif" font-size="14.00">Normal</text>
</g>
<!-- sigma_alpha&#45;&gt;alpha -->
<g id="edge1" class="edge">
<title>sigma_alpha&#45;&gt;alpha</title>
<path fill="none" stroke="black" d="M352.79,-361.1C350.98,-352.56 349.04,-343.34 347.16,-334.43"/>
<polygon fill="black" stroke="black" points="350.56,-333.61 345.07,-324.55 343.71,-335.06 350.56,-333.61"/>
</g>
<!-- mu_beta -->
<g id="node2" class="node">
<title>mu_beta</title>
<ellipse fill="none" stroke="black" cx="54.45" cy="-398.38" rx="54.39" ry="37.45"/>
<text text-anchor="middle" x="54.45" y="-409.68" font-family="Times,serif" font-size="14.00">mu_beta</text>
<text text-anchor="middle" x="54.45" y="-394.68" font-family="Times,serif" font-size="14.00">~</text>
<text text-anchor="middle" x="54.45" y="-379.68" font-family="Times,serif" font-size="14.00">Uniform</text>
</g>
<!-- beta -->
<g id="node6" class="node">
<title>beta</title>
<ellipse fill="none" stroke="black" cx="220.45" cy="-287.43" rx="49.49" ry="37.45"/>
<text text-anchor="middle" x="220.45" y="-298.73" font-family="Times,serif" font-size="14.00">beta</text>
<text text-anchor="middle" x="220.45" y="-283.73" font-family="Times,serif" font-size="14.00">~</text>
<text text-anchor="middle" x="220.45" y="-268.73" font-family="Times,serif" font-size="14.00">Normal</text>
</g>
<!-- mu_beta&#45;&gt;beta -->
<g id="edge3" class="edge">
<title>mu_beta&#45;&gt;beta</title>
<path fill="none" stroke="black" d="M93.37,-371.84C117.82,-355.79 149.46,-335.02 175.05,-318.22"/>
<polygon fill="black" stroke="black" points="177.04,-321.11 183.48,-312.69 173.2,-315.25 177.04,-321.11"/>
</g>
<!-- sigma_beta -->
<g id="node3" class="node">
<title>sigma_beta</title>
<ellipse fill="none" stroke="black" cx="197.45" cy="-398.38" rx="70.92" ry="37.45"/>
<text text-anchor="middle" x="197.45" y="-409.68" font-family="Times,serif" font-size="14.00">sigma_beta</text>
<text text-anchor="middle" x="197.45" y="-394.68" font-family="Times,serif" font-size="14.00">~</text>
<text text-anchor="middle" x="197.45" y="-379.68" font-family="Times,serif" font-size="14.00">HalfNormal</text>
</g>
<!-- sigma_beta&#45;&gt;beta -->
<g id="edge4" class="edge">
<title>sigma_beta&#45;&gt;beta</title>
<path fill="none" stroke="black" d="M205.11,-361.1C206.91,-352.56 208.86,-343.34 210.74,-334.43"/>
<polygon fill="black" stroke="black" points="214.18,-335.06 212.82,-324.55 207.33,-333.61 214.18,-335.06"/>
</g>
<!-- mu_alpha -->
<g id="node4" class="node">
<title>mu_alpha</title>
<ellipse fill="none" stroke="black" cx="512.45" cy="-398.38" rx="60.21" ry="37.45"/>
<text text-anchor="middle" x="512.45" y="-409.68" font-family="Times,serif" font-size="14.00">mu_alpha</text>
<text text-anchor="middle" x="512.45" y="-394.68" font-family="Times,serif" font-size="14.00">~</text>
<text text-anchor="middle" x="512.45" y="-379.68" font-family="Times,serif" font-size="14.00">Uniform</text>
</g>
<!-- mu_alpha&#45;&gt;alpha -->
<g id="edge2" class="edge">
<title>mu_alpha&#45;&gt;alpha</title>
<path fill="none" stroke="black" d="M470.53,-371.29C444.34,-354.98 410.6,-333.97 383.64,-317.19"/>
<polygon fill="black" stroke="black" points="385.49,-314.22 375.15,-311.9 381.79,-320.16 385.49,-314.22"/>
</g>
<!-- thetaij -->
<g id="node8" class="node">
<title>thetaij</title>
<polygon fill="none" stroke="black" points="333.45,-202.95 219.45,-202.95 219.45,-149.95 333.45,-149.95 333.45,-202.95"/>
<text text-anchor="middle" x="276.45" y="-187.75" font-family="Times,serif" font-size="14.00">thetaij</text>
<text text-anchor="middle" x="276.45" y="-172.75" font-family="Times,serif" font-size="14.00">~</text>
<text text-anchor="middle" x="276.45" y="-157.75" font-family="Times,serif" font-size="14.00">Deterministic</text>
</g>
<!-- alpha&#45;&gt;thetaij -->
<g id="edge6" class="edge">
<title>alpha&#45;&gt;thetaij</title>
<path fill="none" stroke="black" d="M318.48,-252.55C311.28,-239.68 303.06,-225.01 295.82,-212.07"/>
<polygon fill="black" stroke="black" points="298.69,-210.02 290.75,-203 292.58,-213.44 298.69,-210.02"/>
</g>
<!-- beta&#45;&gt;thetaij -->
<g id="edge5" class="edge">
<title>beta&#45;&gt;thetaij</title>
<path fill="none" stroke="black" d="M238.01,-252.25C244.57,-239.49 252.02,-225 258.6,-212.19"/>
<polygon fill="black" stroke="black" points="261.75,-213.71 263.21,-203.21 255.53,-210.51 261.75,-213.71"/>
</g>
<!-- rij -->
<g id="node7" class="node">
<title>rij</title>
<ellipse fill="lightgrey" stroke="black" cx="276.45" cy="-76.48" rx="56.64" ry="37.45"/>
<text text-anchor="middle" x="276.45" y="-87.78" font-family="Times,serif" font-size="14.00">rij</text>
<text text-anchor="middle" x="276.45" y="-72.78" font-family="Times,serif" font-size="14.00">~</text>
<text text-anchor="middle" x="276.45" y="-57.78" font-family="Times,serif" font-size="14.00">Binomial</text>
</g>
<!-- thetaij&#45;&gt;rij -->
<g id="edge7" class="edge">
<title>thetaij&#45;&gt;rij</title>
<path fill="none" stroke="black" d="M276.45,-149.71C276.45,-141.89 276.45,-133.03 276.45,-124.27"/>
<polygon fill="black" stroke="black" points="279.95,-124.1 276.45,-114.1 272.95,-124.1 279.95,-124.1"/>
</g>
</g>
</svg>