<?xml version="1.0" encoding="UTF-8" standalone="no"?>
<!DOCTYPE svg PUBLIC "-//W3C//DTD SVG 1.1//EN"
 "http://www.w3.org/Graphics/SVG/1.1/DTD/svg11.dtd">
<!-- Generated by graphviz version 2.43.0 (0)
 -->
<!-- Title: %3 Pages: 1 -->
<svg width="581pt" height="444pt"
 viewBox="0.00 0.00 580.96 443.86" xmlns="http://www.w3.org/2000/svg" xmlns:xlink="http://www.w3.org/1999/xlink">
<g id="graph0" class="graph" transform="scale(1 1) rotate(0) translate(4 439.86)">
<title>%3</title>
<polygon fill="white" stroke="transparent" points="-4,4 -4,-439.86 576.96,-439.86 576.96,4 -4,4"/>
<g id="clust1" class="cluster">
<title>cluster191</title>
<path fill="none" stroke="black" d="M189.25,-218.95C189.25,-218.95 396.25,-218.95 396.25,-218.95 402.25,-218.95 408.25,-224.95 408.25,-230.95 408.25,-230.95 408.25,-320.91 408.25,-320.91 408.25,-326.91 402.25,-332.91 396.25,-332.91 396.25,-332.91 189.25,-332.91 189.25,-332.91 183.25,-332.91 177.25,-326.91 177.25,-320.91 177.25,-320.91 177.25,-230.95 177.25,-230.95 177.25,-224.95 183.25,-218.95 189.25,-218.95"/>
<text text-anchor="middle" x="386.25" y="-226.75" font-family="Times,serif" font-size="14.00">191</text>
</g>
<g id="clust2" class="cluster">
<title>cluster5339</title>
<path fill="none" stroke="black" d="M237.25,-8C237.25,-8 343.25,-8 343.25,-8 349.25,-8 355.25,-14 355.25,-20 355.25,-20 355.25,-198.95 355.25,-198.95 355.25,-204.95 349.25,-210.95 343.25,-210.95 343.25,-210.95 237.25,-210.95 237.25,-210.95 231.25,-210.95 225.25,-204.95 225.25,-198.95 225.25,-198.95 225.25,-20 225.25,-20 225.25,-14 231.25,-8 237.25,-8"/>
<text text-anchor="middle" x="328.75" y="-15.8" font-family="Times,serif" font-size="14.00">5339</text>
</g>
<!-- sigma_alpha -->
<g id="node1" class="node">
<title>sigma_alpha</title>
<ellipse fill="none" stroke="black" cx="74.25" cy="-398.38" rx="74.49" ry="37.45"/>
<text text-anchor="middle" x="74.25" y="-409.68" font-family="Times,serif" font-size="14.00">sigma_alpha</text>
<text text-anchor="middle" x="74.25" y="-394.68" font-family="Times,serif" font-size="14.00">~</text>
<text text-anchor="middle" x="74.25" y="-379.68" font-family="Times,serif" font-size="14.00">HalfNormal</text>
</g>
<!-- alpha -->
<g id="node5" class="node">
<title>alpha</title>
<ellipse fill="none" stroke="black" cx="234.25" cy="-287.43" rx="49.49" ry="37.45"/>
<text text-anchor="middle" x="234.25" y="-298.73" font-family="Times,serif" font-size="14.00">alpha</text>
<text text-anchor="middle" x="234.25" y="-283.73" font-family="Times,serif" font-size="14.00">~</text>
<text text-anchor="middle" x="234.25" y="-268.73" font-family="Times,serif" font-size="14.00">Normal</text>
</g>
<!-- sigma_alpha&#45;&gt;alpha -->
<g id="edge1" class="edge">
<title>sigma_alpha&#45;&gt;alpha</title>
<path fill="none" stroke="black" d="M117.54,-367.9C139.87,-352.7 167.05,-334.18 189.57,-318.85"/>
<polygon fill="black" stroke="black" points="191.66,-321.67 197.95,-313.14 187.72,-315.88 191.66,-321.67"/>
</g>
<!-- mu_beta -->
<g id="node2" class="node">
<title>mu_beta</title>
<ellipse fill="none" stroke="black" cx="359.25" cy="-398.38" rx="54.39" ry="37.45"/>
<text text-anchor="middle" x="359.25" y="-409.68" font-family="Times,serif" font-size="14.00">mu_beta</text>
<text text-anchor="middle" x="359.25" y="-394.68" font-family="Times,serif" font-size="14.00">~</text>
<text text-anchor="middle" x="359.25" y="-379.68" font-family="Times,serif" font-size="14.00">Uniform</text>
</g>
<!-- beta -->
<g id="node6" class="node">
<title>beta</title>
<ellipse fill="none" stroke="black" cx="351.25" cy="-287.43" rx="49.49" ry="37.45"/>
<text text-anchor="middle" x="351.25" y="-298.73" font-family="Times,serif" font-size="14.00">beta</text>
<text text-anchor="middle" x="351.25" y="-283.73" font-family="Times,serif" font-size="14.00">~</text>
<text text-anchor="middle" x="351.25" y="-268.73" font-family="Times,serif" font-size="14.00">Normal</text>
</g>
<!-- mu_beta&#45;&gt;beta -->
<g id="edge3" class="edge">
<title>mu_beta&#45;&gt;beta</title>
<path fill="none" stroke="black" d="M356.56,-360.8C355.96,-352.63 355.32,-343.85 354.69,-335.32"/>
<polygon fill="black" stroke="black" points="358.16,-334.82 353.94,-325.1 351.18,-335.33 358.16,-334.82"/>
</g>
<!-- mu_alpha -->
<g id="node3" class="node">
<title>mu_alpha</title>
<ellipse fill="none" stroke="black" cx="226.25" cy="-398.38" rx="60.21" ry="37.45"/>
<text text-anchor="middle" x="226.25" y="-409.68" font-family="Times,serif" font-size="14.00">mu_alpha</text>
<text text-anchor="middle" x="226.25" y="-394.68" font-family="Times,serif" font-size="14.00">~</text>
<text text-anchor="middle" x="226.25" y="-379.68" font-family="Times,serif" font-size="14.00">Uniform</text>
</g>
<!-- mu_alpha&#45;&gt;alpha -->
<g id="edge2" class="edge">
<title>mu_alpha&#45;&gt;alpha</title>
<path fill="none" stroke="black" d="M228.93,-360.8C229.53,-352.63 230.18,-343.85 230.8,-335.32"/>
<polygon fill="black" stroke="black" points="234.31,-335.33 231.55,-325.1 227.33,-334.82 234.31,-335.33"/>
</g>
<!-- sigma_beta -->
<g id="node4" class="node">
<title>sigma_beta</title>
<ellipse fill="none" stroke="black" cx="502.25" cy="-398.38" rx="70.92" ry="37.45"/>
<text text-anchor="middle" x="502.25" y="-409.68" font-family="Times,serif" font-size="14.00">sigma_beta</text>
<text text-anchor="middle" x="502.25" y="-394.68" font-family="Times,serif" font-size="14.00">~</text>
<text text-anchor="middle" x="502.25" y="-379.68" font-family="Times,serif" font-size="14.00">HalfNormal</text>
</g>
<!-- sigma_beta&#45;&gt;beta -->
<g id="edge4" class="edge">
<title>sigma_beta&#45;&gt;beta</title>
<path fill="none" stroke="black" d="M460.98,-367.61C440.49,-352.83 415.73,-334.96 394.92,-319.94"/>
<polygon fill="black" stroke="black" points="396.72,-316.93 386.57,-313.91 392.63,-322.6 396.72,-316.93"/>
</g>
<!-- thetaij -->
<g id="node8" class="node">
<title>thetaij</title>
<polygon fill="none" stroke="black" points="347.25,-202.95 233.25,-202.95 233.25,-149.95 347.25,-149.95 347.25,-202.95"/>
<text text-anchor="middle" x="290.25" y="-187.75" font-family="Times,serif" font-size="14.00">thetaij</text>
<text text-anchor="middle" x="290.25" y="-172.75" font-family="Times,serif" font-size="14.00">~</text>
<text text-anchor="middle" x="290.25" y="-157.75" font-family="Times,serif" font-size="14.00">Deterministic</text>
</g>
<!-- alpha&#45;&gt;thetaij -->
<g id="edge5" class="edge">
<title>alpha&#45;&gt;thetaij</title>
<path fill="none" stroke="black" d="M251.81,-252.25C258.37,-239.49 265.81,-225 272.4,-212.19"/>
<polygon fill="black" stroke="black" points="275.55,-213.71 277.01,-203.21 269.33,-210.51 275.55,-213.71"/>
</g>
<!-- beta&#45;&gt;thetaij -->
<g id="edge6" class="edge">
<title>beta&#45;&gt;thetaij</title>
<path fill="none" stroke="black" d="M332.28,-252.55C325.08,-239.68 316.86,-225.01 309.62,-212.07"/>
<polygon fill="black" stroke="black" points="312.49,-210.02 304.55,-203 306.38,-213.44 312.49,-210.02"/>
</g>
<!-- rij -->
<g id="node7" class="node">
<title>rij</title>
<ellipse fill="lightgrey" stroke="black" cx="290.25" cy="-76.48" rx="56.64" ry="37.45"/>
<text text-anchor="middle" x="290.25" y="-87.78" font-family="Times,serif" font-size="14.00">rij</text>
<text text-anchor="middle" x="290.25" y="-72.78" font-family="Times,serif" font-size="14.00">~</text>
<text text-anchor="middle" x="290.25" y="-57.78" font-family="Times,serif" font-size="14.00">Binomial</text>
</g>
<!-- thetaij&#45;&gt;rij -->
<g id="edge7" class="edge">
<title>thetaij&#45;&gt;rij</title>
<path fill="none" stroke="black" d="M290.25,-149.71C290.25,-141.89 290.25,-133.03 290.25,-124.27"/>
<polygon fill="black" stroke="black" points="293.75,-124.1 290.25,-114.1 286.75,-124.1 293.75,-124.1"/>
</g>
</g>
</svg>