<?xml version="1.0" encoding="UTF-8" standalone="no"?>
<svg
   xmlns:dc="http://purl.org/dc/elements/1.1/"
   xmlns:cc="http://creativecommons.org/ns#"
   xmlns:rdf="http://www.w3.org/1999/02/22-rdf-syntax-ns#"
   xmlns:svg="http://www.w3.org/2000/svg"
   xmlns="http://www.w3.org/2000/svg"
   xmlns:sodipodi="http://sodipodi.sourceforge.net/DTD/sodipodi-0.dtd"
   xmlns:inkscape="http://www.inkscape.org/namespaces/inkscape"
   width="87.349998mm"
   height="88.713089mm"
   viewBox="0 0 87.349999 88.71309"
   version="1.1"
   id="svg8"
   inkscape:version="1.0.1 (3bc2e813f5, 2020-09-07)"
   sodipodi:docname="logo.svg"
   inkscape:export-filename="C:\Users\au646069\github\cardioception\images\logo.png"
   inkscape:export-xdpi="300"
   inkscape:export-ydpi="300">
  <defs
     id="defs2">
    <inkscape:path-effect
       effect="fillet_chamfer"
       id="path-effect1423"
       is_visible="true"
       lpeversion="1"
       satellites_param="F,0,0,1,0,3.7041667,0,1 @ F,0,0,1,0,3.7041667,0,1 @ F,0,0,1,0,3.7041667,0,1 @ F,0,0,1,0,3.7041667,0,1 @ F,0,0,1,0,3.7041667,0,1 @ F,0,0,1,0,3.7041667,0,1"
       unit="px"
       method="auto"
       mode="F"
       radius="14"
       chamfer_steps="1"
       flexible="false"
       use_knot_distance="true"
       apply_no_radius="true"
       apply_with_radius="true"
       only_selected="false"
       hide_knots="false" />
    <inkscape:path-effect
       effect="fillet_chamfer"
       id="path-effect1421"
       is_visible="true"
       lpeversion="1"
       satellites_param="F,0,0,1,0,3.7041667,0,1 @ F,0,0,1,0,3.7041667,0,1 @ F,0,0,1,0,3.7041667,0,1 @ F,0,0,1,0,3.7041667,0,1 @ F,0,0,1,0,3.7041667,0,1 @ F,0,0,1,0,3.7041667,0,1"
       unit="px"
       method="auto"
       mode="F"
       radius="14"
       chamfer_steps="1"
       flexible="false"
       use_knot_distance="true"
       apply_no_radius="true"
       apply_with_radius="true"
       only_selected="false"
       hide_knots="false" />
    <inkscape:path-effect
       effect="bspline"
       id="path-effect896"
       is_visible="true"
       lpeversion="1"
       weight="33.333333"
       steps="2"
       helper_size="0"
       apply_no_weight="true"
       apply_with_weight="true"
       only_selected="false" />
    <clipPath
       clipPathUnits="userSpaceOnUse"
       id="clipPath1005">
      <path
         style="fill:#ffd5d5;stroke:none;stroke-width:0.0879206;stroke-miterlimit:4;stroke-dasharray:none"
         d="m -400.29302,160.38491 c -1.55527,-0.27763 -3.22791,-1.02001 -4.79277,-2.12719 -0.94969,-0.67193 -2.93464,-2.60177 -3.81913,-3.71309 -0.68026,-0.85471 -2.03912,-2.87197 -2.64298,-3.92356 -0.84503,-1.47157 -1.38703,-2.9935 -1.51097,-4.24278 -0.0327,-0.32875 -0.12565,-0.68287 -0.21179,-0.80619 -0.56421,-0.80771 -1.26544,-2.5833 -1.58263,-4.00744 -0.24147,-1.08411 -0.26752,-2.67367 -0.0595,-3.6233 0.3017,-1.37659 1.00405,-2.7078 1.96105,-3.71687 0.45572,-0.48052 0.85791,-1.04302 2.27524,-3.18208 1.16996,-1.76574 2.28819,-3.26702 2.8575,-3.83633 0.5342,-0.53419 1.26849,-1.07447 1.46033,-1.07447 0.0583,0 0.1364,0.12865 0.1737,0.28589 0.0632,0.26648 0.0723,0.25034 0.13318,-0.23759 0.0713,-0.57152 0.28341,-0.83999 0.66347,-0.83999 0.28676,0 0.79895,0.53692 1.08196,1.13422 0.26307,0.5552 1.02772,1.32883 1.31342,1.32883 0.35887,0 1.33997,-0.42161 1.73568,-0.74586 0.79363,-0.65033 1.532,-1.88568 2.02225,-3.38338 0.36478,-1.11443 0.75758,-1.38185 1.42872,-0.97267 0.50921,0.31047 0.5308,0.49726 0.17029,1.47258 -0.38812,1.05 -0.49701,1.51098 -0.4998,2.11591 -0.002,0.37899 0.0381,0.50607 0.21376,0.68174 0.11875,0.11875 0.28998,0.21591 0.3805,0.21591 0.23999,0 0.52951,-0.34897 0.7323,-0.88266 0.26791,-0.70506 0.7414,-1.3586 1.37175,-1.89338 0.62531,-0.53047 1.91691,-1.19305 2.65299,-1.36093 0.65987,-0.15052 1.028,-0.49444 1.15297,-1.07721 0.14587,-0.68012 0.29052,-0.85547 0.7057,-0.85547 0.49537,0 0.58434,0.19913 0.44279,0.99117 -0.0604,0.33762 -0.0751,0.64122 -0.0334,0.68198 0.12177,0.11862 0.62079,-0.1425 0.78854,-0.4126 0.43766,-0.7047 0.82605,-0.89034 1.24655,-0.59582 0.24841,0.17401 0.24538,0.27085 -0.0245,0.77826 -0.32544,0.61209 -0.29944,0.68712 0.37238,1.07444 0.69667,0.40165 1.96854,1.58252 2.1765,2.02076 0.11976,0.25235 0.12763,0.36083 0.0444,0.61275 -0.14191,0.43001 -0.79738,0.91871 -1.23221,0.91871 -0.28996,0 -0.39518,-0.0686 -0.88901,-0.57983 -0.67479,-0.69857 -1.32904,-1.05227 -2.19484,-1.1866 -1.54537,-0.23978 -3.05288,0.52781 -3.69267,1.88023 -0.38352,0.81069 -0.37009,0.85119 0.4673,1.40899 0.39915,0.26588 1.00753,0.76113 1.35197,1.10055 0.64341,0.63405 1.44094,1.7324 1.44094,1.98446 0,0.078 -0.13855,0.29522 -0.30787,0.48265 -0.16934,0.18743 -0.30789,0.38547 -0.30789,0.44008 0,0.14614 1.60312,0.13017 1.96144,-0.0196 0.39832,-0.16643 0.82665,-0.68608 1.18163,-1.43358 0.36966,-0.7784 0.45847,-0.85968 0.85734,-0.78485 0.45022,0.0845 0.51271,0.27725 0.25939,0.80037 -0.23044,0.47591 -0.27412,0.91318 -0.10781,1.07949 0.16576,0.16577 0.75027,0.12466 1.61038,-0.11327 0.99412,-0.27498 1.27787,-0.27882 1.52049,-0.0206 0.44189,0.47039 0.62117,1.69217 0.3307,2.25387 -0.18174,0.35148 -0.54838,0.57959 -1.28002,0.79642 -0.44947,0.13321 -1.90309,0.44386 -2.07691,0.44386 -0.0188,0 -0.0343,0.0343 -0.0343,0.0763 0,0.042 0.35636,0.16815 0.79191,0.28044 0.95248,0.24556 1.11593,0.39068 1.19468,1.06074 0.10832,0.92168 -0.35962,1.9106 -0.97742,2.06566 -0.17584,0.0441 -0.50406,-0.021 -1.1154,-0.22139 -0.47642,-0.15617 -0.91463,-0.2664 -0.97377,-0.24497 -0.0608,0.022 -0.0118,0.0806 0.11239,0.1346 0.12095,0.0526 0.69493,0.2971 1.27551,0.54336 0.58057,0.24626 1.12485,0.52949 1.20952,0.62939 0.20298,0.2395 0.19547,0.71289 -0.0226,1.41862 -0.13402,0.43389 -0.26101,0.64767 -0.52805,0.88893 -0.42672,0.38552 -0.71027,0.40605 -1.32263,0.0958 l -0.43788,-0.2219 -0.0813,0.19991 c -0.50801,1.24823 -0.59906,1.62713 -0.65055,2.70693 -0.0913,1.91216 -0.77287,4.1852 -2.22923,7.43313 -1.58041,3.52463 -3.80711,6.60512 -5.40182,7.47307 -0.84051,0.45747 -2.61613,0.60816 -4.08222,0.34644 z m 5.3764,-26.55129 c 0.7315,-0.15043 1.5862,-0.24235 2.84838,-0.30631 2.4547,-0.12439 3.04823,-0.24705 3.59298,-0.74256 0.22271,-0.20258 0.45346,-0.59556 0.45346,-0.77227 0,-0.0603 -0.11173,0.0664 -0.2483,0.28152 -0.16084,0.25334 -0.40095,0.47309 -0.68173,0.62393 -0.45462,0.24424 -0.5117,0.25052 -4.34792,0.47851 -0.45962,0.0273 -1.23691,0.14563 -1.72729,0.26292 -0.59427,0.14214 -1.16634,0.21532 -1.71534,0.21944 -0.54207,0.004 -0.76356,0.032 -0.64777,0.0818 0.33434,0.14368 1.43136,0.0874 2.47353,-0.12696 z m -2.25362,-0.41469 c 0,-0.18287 -0.73037,-1.05376 -1.21437,-1.44802 -0.40913,-0.33328 -0.52852,-0.38522 -0.88288,-0.38406 -0.5873,0.002 -0.67914,0.0854 -0.44178,0.40131 0.59931,0.79776 1.23979,1.26055 1.98888,1.43709 0.46715,0.1101 0.55015,0.10915 0.55015,-0.006 z m -5.17895,-4.85387 c 1.01741,-0.4423 1.86321,-0.52426 4.0273,-0.39026 0.46777,0.029 0.56001,-0.11841 0.21542,-0.34418 -0.33943,-0.22241 -1.94205,-0.26978 -2.82515,-0.0835 -0.77012,0.16244 -1.60611,0.52434 -1.87676,0.81243 -0.24879,0.26481 -0.14023,0.26612 0.45919,0.005 z m -6.12808,-2.52438 c -0.51234,-0.44342 -1.08905,-0.73734 -1.70205,-0.86743 -0.69489,-0.14747 -1.37272,0.003 -2.3991,0.53447 -0.63537,0.32867 -0.90315,0.4245 -1.05624,0.378 -0.53163,-0.16148 -0.81214,-0.76373 -0.5973,-1.2824 0.12837,-0.30989 1.04496,-0.99125 1.95165,-1.45081 0.70518,-0.35741 0.85511,-0.55935 0.91957,-1.23853 0.07,-0.73789 0.21067,-0.92473 0.67093,-0.89128 l 0.36868,0.0268 v 0.7995 c 0,0.86589 0.091,1.09177 0.43982,1.09177 0.25466,0 0.35439,-0.12731 0.48239,-0.61576 0.15056,-0.5746 0.315,-0.7917 0.59966,-0.7917 0.56241,0 0.74268,0.36223 0.53133,1.06764 -0.0744,0.24843 -0.0761,0.39721 -0.006,0.55093 0.13283,0.29155 0.70771,0.71977 0.81809,0.60939 0.0473,-0.0474 0.14177,-0.55823 0.20965,-1.13511 0.0679,-0.57687 0.15138,-1.12117 0.18559,-1.20954 0.11579,-0.29911 0.88978,-0.42979 1.39895,-0.23621 l 0.22863,0.0869 -0.0556,1.25456 c -0.0495,1.11672 -0.0357,1.31666 0.12457,1.81985 0.099,0.31092 0.16341,0.59226 0.14305,0.6252 -0.0204,0.0329 -0.23606,0.0835 -0.47932,0.11228 -0.56324,0.0667 -1.14618,0.32497 -1.73221,0.76743 -0.25412,0.19187 -0.50093,0.34886 -0.54844,0.34886 -0.0474,0 -0.27088,-0.15968 -0.49637,-0.35483 z"
         id="path1007" />
    </clipPath>
    <filter
       inkscape:collect="always"
       style="color-interpolation-filters:sRGB"
       id="filter1129"
       x="-0.02046147"
       width="1.0409229"
       y="-0.022396155"
       height="1.0447923">
      <feGaussianBlur
         inkscape:collect="always"
         stdDeviation="0.21542481"
         id="feGaussianBlur1131" />
    </filter>
    <inkscape:path-effect
       effect="fillet_chamfer"
       id="path-effect872"
       is_visible="true"
       lpeversion="1"
       satellites_param="F,0,0,1,0,3.7041667,0,1 @ F,0,0,1,0,3.7041667,0,1 @ F,0,0,1,0,3.7041667,0,1 @ F,0,0,1,0,3.7041667,0,1 @ F,0,0,1,0,3.7041667,0,1 @ F,0,0,1,0,3.7041667,0,1"
       unit="px"
       method="auto"
       mode="F"
       radius="14"
       chamfer_steps="1"
       flexible="false"
       use_knot_distance="true"
       apply_no_radius="true"
       apply_with_radius="true"
       only_selected="false"
       hide_knots="false" />
    <inkscape:path-effect
       effect="fillet_chamfer"
       id="path-effect868"
       is_visible="true"
       lpeversion="1"
       satellites_param="F,0,0,1,0,3.7041667,0,1 @ F,0,0,1,0,3.7041667,0,1 @ F,0,0,1,0,3.7041667,0,1 @ F,0,0,1,0,3.7041667,0,1 @ F,0,0,1,0,3.7041667,0,1 @ F,0,0,1,0,3.7041667,0,1"
       unit="px"
       method="auto"
       mode="F"
       radius="14"
       chamfer_steps="1"
       flexible="false"
       use_knot_distance="true"
       apply_no_radius="true"
       apply_with_radius="true"
       only_selected="false"
       hide_knots="false" />
    <inkscape:path-effect
       effect="fillet_chamfer"
       id="path-effect864"
       is_visible="true"
       lpeversion="1"
       satellites_param="F,0,0,1,0,3.7041667,0,1 @ F,0,0,1,0,3.7041667,0,1 @ F,0,0,1,0,3.7041667,0,1 @ F,0,0,1,0,3.7041667,0,1 @ F,0,0,1,0,3.7041667,0,1 @ F,0,0,1,0,3.7041667,0,1"
       unit="px"
       method="auto"
       mode="F"
       radius="14"
       chamfer_steps="1"
       flexible="false"
       use_knot_distance="true"
       apply_no_radius="true"
       apply_with_radius="true"
       only_selected="false"
       hide_knots="false" />
    <inkscape:path-effect
       effect="fillet_chamfer"
       id="path-effect862"
       is_visible="true"
       lpeversion="1"
       satellites_param="F,0,0,1,0,3.7041667,0,1 @ F,0,0,1,0,3.7041667,0,1 @ F,0,0,1,0,3.7041667,0,1 @ F,0,0,1,0,3.7041667,0,1 @ F,0,0,1,0,3.7041667,0,1 @ F,0,0,1,0,3.7041667,0,1"
       unit="px"
       method="auto"
       mode="F"
       radius="14"
       chamfer_steps="1"
       flexible="false"
       use_knot_distance="true"
       apply_no_radius="true"
       apply_with_radius="true"
       only_selected="false"
       hide_knots="false" />
    <inkscape:path-effect
       effect="bspline"
       id="path-effect1268"
       is_visible="true"
       lpeversion="1"
       weight="33.333333"
       steps="2"
       helper_size="0"
       apply_no_weight="true"
       apply_with_weight="true"
       only_selected="false" />
    <inkscape:path-effect
       effect="bspline"
       id="path-effect1244"
       is_visible="true"
       lpeversion="1"
       weight="33.333333"
       steps="2"
       helper_size="0"
       apply_no_weight="true"
       apply_with_weight="true"
       only_selected="false" />
    <inkscape:path-effect
       effect="bspline"
       id="path-effect1240"
       is_visible="true"
       lpeversion="1"
       weight="33.333333"
       steps="2"
       helper_size="0"
       apply_no_weight="true"
       apply_with_weight="true"
       only_selected="false" />
    <rect
       x="-157.99405"
       y="-34.58482"
       width="138.71725"
       height="50.081844"
       id="rect898" />
    <filter
       inkscape:collect="always"
       style="color-interpolation-filters:sRGB"
       id="filter957"
       x="-0.012102723"
       width="1.0242052"
       y="-0.35330176"
       height="1.365201">
      <feGaussianBlur
         inkscape:collect="always"
         stdDeviation="0.40211997"
         id="feGaussianBlur959" />
    </filter>
    <filter
       inkscape:collect="always"
       style="color-interpolation-filters:sRGB"
       id="filter1467"
       x="-0.047700953"
       width="1.0954019"
       y="-0.046899267"
       height="1.0937985">
      <feGaussianBlur
         inkscape:collect="always"
         stdDeviation="5.9902192"
         id="feGaussianBlur1469" />
    </filter>
  </defs>
  <sodipodi:namedview
     id="base"
     pagecolor="#ffffff"
     bordercolor="#666666"
     borderopacity="1.0"
     inkscape:pageopacity="0.0"
     inkscape:pageshadow="2"
     inkscape:zoom="0.98994949"
     inkscape:cx="-193.91046"
     inkscape:cy="234.31955"
     inkscape:document-units="mm"
     inkscape:current-layer="g893"
     inkscape:document-rotation="0"
     showgrid="false"
     inkscape:window-width="2560"
     inkscape:window-height="1361"
     inkscape:window-x="-9"
     inkscape:window-y="-9"
     inkscape:window-maximized="1" />
  <metadata
     id="metadata5">
    <rdf:RDF>
      <cc:Work
         rdf:about="">
        <dc:format>image/svg+xml</dc:format>
        <dc:type
           rdf:resource="http://purl.org/dc/dcmitype/StillImage" />
        <dc:title />
      </cc:Work>
    </rdf:RDF>
  </metadata>
  <g
     inkscape:label="Layer 1"
     inkscape:groupmode="layer"
     id="layer1"
     transform="translate(-82.230914,11.387894)">
    <g
       id="g1050"
       transform="matrix(4.7032151,0,0,4.7032151,2513.7458,-112.70755)">
      <g
         id="g1075" />
      <text
         xml:space="preserve"
         id="text896"
         style="font-style:normal;font-weight:normal;font-size:10.5833px;line-height:1.25;font-family:sans-serif;letter-spacing:0px;word-spacing:0px;white-space:pre;shape-inside:url(#rect898);fill:#000000;fill-opacity:1;stroke:none;"
         transform="matrix(0.21262051,0,0,0.21262051,-531.65436,21.305055)" />
      <g
         id="g951"
         transform="matrix(0.21262051,0,0,0.21262051,-531.65436,21.64259)">
        <g
           id="g949"
           transform="matrix(0.96851052,0,0,0.83968244,-95.706563,20.553443)" />
      </g>
      <g
         id="g893"
         transform="matrix(0.21262051,0,0,0.21262051,-540.12965,19.657562)">
        <path
           id="path956-7"
           style="opacity:0.96;fill:#1a1a1a;stroke:#1a1a1a;stroke-width:1.54961;stroke-linejoin:round;stroke-miterlimit:4;stroke-dasharray:none;stroke-opacity:1;filter:url(#filter1467)"
           d="M 225.4043,358.87695 A 24.248701,24.248701 0 0 0 213.13867,362.125 L 101.4043,426.63672 a 24.248717,24.248717 0 0 0 -12.125003,21 v 99.58789 l -14.708985,10.92578 v 64.49023 h 70.105468 l 68.46289,39.52735 a 24.248701,24.248701 0 0 0 24.25,0 l 68.46485,-39.52735 h 70.10546 v -64.49023 l -14.71093,-10.92578 v -99.58789 a 24.248716,24.248716 0 0 0 -12.12305,-21 L 237.38867,362.125 a 24.248701,24.248701 0 0 0 -11.98437,-3.24805 z"
           transform="matrix(0.26458334,0,0,0.26458334,92.904768,-82.28305)" />
        <path
           id="path956"
           style="opacity:0.96;fill:#ffffff;stroke:#501616;stroke-width:0.41;stroke-linejoin:round;stroke-miterlimit:4;stroke-dasharray:none;stroke-opacity:1"
           d="m 187.44786,35.111031 v 34.136956 a 6.4158056,6.4158056 120 0 1 -3.2079,5.556251 L 154.6765,91.87271 a 6.4158026,6.4158026 3.447793e-6 0 1 -6.4158,0 L 118.69725,74.804238 a 6.4158065,6.4158065 60.000006 0 1 -3.2079,-5.556251 V 35.111031 a 6.4158062,6.4158062 120 0 1 3.2079,-5.556251 L 148.2607,12.48631 a 6.4158032,6.4158032 180 0 1 6.4158,0 l 29.56346,17.06847 a 6.4158053,6.4158053 60.000002 0 1 3.2079,5.556251 z"
           inkscape:path-effect="#path-effect862"
           inkscape:original-d="m 187.44786,31.406864 v 41.54529 L 151.4686,93.724794 115.48935,72.952154 V 31.406864 L 151.4686,10.634226 Z" />
        <path
           sodipodi:type="star"
           style="opacity:0.96;fill:none;stroke:#782121;stroke-width:0.948506;stroke-linejoin:round;stroke-miterlimit:4;stroke-dasharray:1.89701, 1.89701;stroke-dashoffset:0;stroke-opacity:1"
           id="path958-8"
           sodipodi:sides="6"
           sodipodi:cx="151.4686"
           sodipodi:cy="52.179508"
           sodipodi:r1="38.736034"
           sodipodi:r2="33.546394"
           sodipodi:arg1="-0.52359878"
           sodipodi:arg2="0"
           inkscape:flatsided="true"
           inkscape:rounded="0"
           inkscape:randomized="0"
           inkscape:path-effect="#path-effect864"
           d="m 185.01499,36.515658 0,31.327701 a 6.4158049,6.4158049 120 0 1 -3.20791,5.55625 l -27.13058,15.66385 a 6.4158049,6.4158049 180 0 1 -6.4158,0 l -27.13059,-15.66385 a 6.4158049,6.4158049 60 0 1 -3.2079,-5.55625 l 0,-31.327701 a 6.4158049,6.4158049 120 0 1 3.2079,-5.55625 l 27.13058,-15.663851 a 6.4158049,6.4158049 180 0 1 6.41581,0 l 27.13058,15.663851 a 6.4158049,6.4158049 60 0 1 3.20791,5.55625 z" />
        <rect
           style="fill:#501616;fill-opacity:1;stroke:#501616;stroke-width:0.138962;stroke-linejoin:round;stroke-miterlimit:4;stroke-dasharray:none;stroke-dashoffset:0;stroke-opacity:1"
           id="rect1236"
           width="79.742432"
           height="17.062626"
           x="111.59739"
           y="64.351341"
           rx="0"
           ry="0" />
        <g
           id="g1180"
           transform="matrix(0.92938889,0,0,0.92938889,206.97178,-139.43322)"
           style="fill:#ffffff;fill-opacity:1">
          <text
             xml:space="preserve"
             style="font-style:normal;font-variant:normal;font-weight:normal;font-stretch:normal;font-size:12.0974px;line-height:1.25;font-family:'Arial Rounded MT Bold';-inkscape-font-specification:'Arial Rounded MT Bold, Normal';font-variant-ligatures:normal;font-variant-caps:normal;font-variant-numeric:normal;font-variant-east-asian:normal;letter-spacing:0px;word-spacing:0px;fill:#ffffff;fill-opacity:1;stroke:none;stroke-width:0.302436"
             x="-100.32433"
             y="231.58038"
             id="text863"><tspan
               sodipodi:role="line"
               id="tspan1010"
               x="-100.32433"
               y="231.58038"
               style="stroke-width:0.302436">cardioception</tspan></text>
        </g>
        <path
           style="fill:#501616;fill-opacity:1;stroke:none;stroke-width:0.264583px;stroke-linecap:butt;stroke-linejoin:miter;stroke-opacity:1"
           d="m 111.59739,64.351341 h 3.91316 v -2.90621 z"
           id="path1270"
           sodipodi:nodetypes="cccc" />
        <path
           style="fill:#501616;fill-opacity:1;stroke:none;stroke-width:0.264583px;stroke-linecap:butt;stroke-linejoin:miter;stroke-opacity:1"
           d="m 191.33981,64.351341 h -3.91316 v -2.90621 z"
           id="path1272"
           sodipodi:nodetypes="cccc" />
      </g>
      <g
         id="g908"
         transform="matrix(0.18763763,0,0,0.18763763,-532.37279,20.930375)"
         style="fill:#1e3456;fill-opacity:1" />
      <g
         id="g997"
         transform="matrix(0.69147577,0,0,0.69147577,-144.04928,7.15863)">
        <g
           id="g1008"
           transform="matrix(1.0505088,0,0,1.0505088,27.234826,-1.6084493)">
          <path
             style="fill:#ffd5d5;stroke:none;stroke-width:0.0255185;stroke-miterlimit:4;stroke-dasharray:none"
             d="m -528.54673,37.275422 c -0.45141,-0.08058 -0.93689,-0.296051 -1.39108,-0.617406 -0.27565,-0.195024 -0.85177,-0.755149 -1.10849,-1.077703 -0.19744,-0.248075 -0.59184,-0.833575 -0.76711,-1.138793 -0.24527,-0.427115 -0.40258,-0.868848 -0.43855,-1.231445 -0.01,-0.09542 -0.0365,-0.1982 -0.0615,-0.233993 -0.16376,-0.234432 -0.36729,-0.749789 -0.45936,-1.163137 -0.0701,-0.314656 -0.0776,-0.776018 -0.0173,-1.051643 0.0876,-0.399549 0.29142,-0.785926 0.56919,-1.078804 0.13226,-0.139467 0.249,-0.302731 0.66037,-0.92358 0.33958,-0.512496 0.66414,-0.948235 0.82938,-1.113474 0.15505,-0.155048 0.36817,-0.311859 0.42385,-0.311859 0.0169,0 0.0396,0.03734 0.0504,0.08298 0.0183,0.07734 0.021,0.07266 0.0386,-0.06896 0.0207,-0.165881 0.0823,-0.243804 0.19257,-0.243804 0.0832,0 0.23189,0.155838 0.31404,0.3292 0.0764,0.161145 0.29829,0.385686 0.38121,0.385686 0.10416,0 0.38892,-0.122367 0.50377,-0.216481 0.23035,-0.188754 0.44466,-0.547308 0.58695,-0.982008 0.10588,-0.323458 0.21989,-0.401076 0.41468,-0.28231 0.1478,0.09011 0.15407,0.144326 0.0494,0.427405 -0.11265,0.304758 -0.14426,0.438557 -0.14507,0.614134 -5.6e-4,0.109999 0.0111,0.146883 0.062,0.19787 0.0345,0.03447 0.0842,0.06267 0.11044,0.06267 0.0697,0 0.15368,-0.101289 0.21254,-0.256189 0.0778,-0.204639 0.21519,-0.394325 0.39815,-0.549542 0.18149,-0.153967 0.55637,-0.346277 0.77001,-0.395006 0.19153,-0.04368 0.29838,-0.143507 0.33465,-0.312652 0.0423,-0.197402 0.0843,-0.248296 0.20483,-0.248296 0.14377,0 0.1696,0.0578 0.12851,0.287683 -0.0175,0.09799 -0.0218,0.18611 -0.01,0.197941 0.0353,0.03443 0.18018,-0.04136 0.22886,-0.119755 0.12703,-0.204537 0.23976,-0.258419 0.36181,-0.172934 0.0721,0.0505 0.0712,0.07861 -0.007,0.225886 -0.0944,0.177656 -0.0869,0.199431 0.10809,0.31185 0.2022,0.116575 0.57136,0.459316 0.63172,0.586515 0.0348,0.07324 0.037,0.104729 0.0129,0.177846 -0.0412,0.124808 -0.23144,0.266653 -0.35764,0.266653 -0.0842,0 -0.1147,-0.01992 -0.25804,-0.168296 -0.19585,-0.202753 -0.38574,-0.305415 -0.63704,-0.344404 -0.44854,-0.06959 -0.88608,0.153195 -1.07178,0.545729 -0.11131,0.235298 -0.10742,0.247052 0.13563,0.408951 0.11586,0.07717 0.29243,0.220914 0.3924,0.31943 0.18675,0.184027 0.41823,0.50282 0.41823,0.575979 0,0.02265 -0.0402,0.08568 -0.0894,0.140085 -0.0492,0.0544 -0.0894,0.111881 -0.0894,0.127733 0,0.04242 0.4653,0.03778 0.5693,-0.0057 0.11561,-0.0483 0.23993,-0.199134 0.34296,-0.41609 0.10729,-0.225926 0.13307,-0.249519 0.24884,-0.2278 0.13068,0.02451 0.14881,0.08047 0.0753,0.232303 -0.0669,0.138131 -0.0796,0.265048 -0.0313,0.313317 0.0481,0.04811 0.21776,0.03618 0.4674,-0.03288 0.28854,-0.07981 0.3709,-0.08093 0.44132,-0.006 0.12825,0.136527 0.18029,0.491144 0.096,0.654173 -0.0528,0.102015 -0.15916,0.168224 -0.37152,0.231157 -0.13046,0.03866 -0.55236,0.128826 -0.60281,0.128826 -0.005,0 -0.01,0.01 -0.01,0.02214 0,0.01218 0.10344,0.04881 0.22985,0.0814 0.27646,0.07127 0.3239,0.113392 0.34676,0.307875 0.0314,0.267511 -0.10438,0.554541 -0.2837,0.599547 -0.051,0.01281 -0.1463,-0.0061 -0.32374,-0.06426 -0.13828,-0.04533 -0.26546,-0.07732 -0.28263,-0.0711 -0.0176,0.0064 -0.003,0.02338 0.0326,0.03907 0.0351,0.01527 0.2017,0.08623 0.37021,0.157709 0.16851,0.07148 0.32649,0.15368 0.35106,0.182676 0.0589,0.06952 0.0567,0.206913 -0.007,0.411748 -0.0389,0.125934 -0.0758,0.187982 -0.15326,0.258006 -0.12386,0.111897 -0.20616,0.117855 -0.38389,0.02779 l -0.12709,-0.0644 -0.0236,0.05802 c -0.14745,0.362293 -0.17387,0.472266 -0.18882,0.785674 -0.0265,0.554993 -0.22432,1.214732 -0.64702,2.157425 -0.45871,1.023006 -1.105,1.917102 -1.56785,2.16902 -0.24396,0.132778 -0.75932,0.176514 -1.18485,0.100552 z m 1.56047,-7.70637 c 0.21232,-0.04366 0.46039,-0.07034 0.82673,-0.0889 0.71247,-0.0361 0.88474,-0.07171 1.04285,-0.215525 0.0646,-0.0588 0.13161,-0.172859 0.13161,-0.224146 0,-0.01749 -0.0324,0.01928 -0.0721,0.08171 -0.0467,0.07353 -0.11638,0.137312 -0.19787,0.181092 -0.13196,0.07089 -0.14852,0.07271 -1.26197,0.138885 -0.1334,0.0079 -0.35901,0.04227 -0.50134,0.07631 -0.17248,0.04125 -0.33852,0.06249 -0.49787,0.06369 -0.15733,0.0012 -0.22162,0.0093 -0.18801,0.02374 0.097,0.0417 0.41545,0.02536 0.71793,-0.03685 z m -0.6541,-0.120363 c 0,-0.05307 -0.21199,-0.305849 -0.35247,-0.42028 -0.11874,-0.09673 -0.1534,-0.111808 -0.25625,-0.11147 -0.17046,5.65e-4 -0.19711,0.02477 -0.12822,0.116477 0.17395,0.231547 0.35984,0.365867 0.57726,0.417109 0.13559,0.03196 0.15968,0.03168 0.15968,-0.0018 z m -1.50317,-1.408808 c 0.2953,-0.128375 0.54079,-0.152164 1.16891,-0.113271 0.13577,0.0084 0.16254,-0.03437 0.0625,-0.0999 -0.0985,-0.06455 -0.56367,-0.0783 -0.81998,-0.02424 -0.22353,0.04715 -0.46617,0.152187 -0.54472,0.235805 -0.0722,0.07686 -0.0407,0.07724 0.13327,0.0016 z m -1.77864,-0.732688 c -0.14871,-0.128702 -0.3161,-0.214009 -0.49402,-0.251766 -0.20169,-0.0428 -0.39842,10e-4 -0.69632,0.155127 -0.18442,0.09539 -0.26214,0.123208 -0.30657,0.109711 -0.15431,-0.04687 -0.23572,-0.221669 -0.17337,-0.37221 0.0373,-0.08994 0.3033,-0.287706 0.56646,-0.42109 0.20467,-0.103737 0.24819,-0.162349 0.2669,-0.359476 0.0203,-0.214168 0.0611,-0.268399 0.19473,-0.258689 l 0.10701,0.0078 v 0.23205 c 0,0.251321 0.0264,0.316881 0.12766,0.316881 0.0739,0 0.10286,-0.03695 0.14001,-0.178722 0.0437,-0.166774 0.0914,-0.229785 0.17405,-0.229785 0.16323,0 0.21556,0.105134 0.15422,0.309876 -0.0216,0.0721 -0.0221,0.115288 -0.002,0.159904 0.0385,0.08462 0.20541,0.208909 0.23745,0.176871 0.0137,-0.01377 0.0412,-0.162022 0.0609,-0.329457 0.0197,-0.167435 0.0439,-0.325414 0.0539,-0.351064 0.0336,-0.08682 0.25826,-0.124746 0.40604,-0.06856 l 0.0664,0.02523 -0.0161,0.364129 c -0.0144,0.324122 -0.0104,0.382154 0.0362,0.528203 0.0287,0.09024 0.0474,0.171899 0.0415,0.18146 -0.006,0.0096 -0.0685,0.02422 -0.13912,0.03259 -0.16348,0.01936 -0.33267,0.09432 -0.50277,0.222743 -0.0738,0.05569 -0.14539,0.101254 -0.15918,0.101254 -0.0138,0 -0.0786,-0.04635 -0.14407,-0.102988 z"
             id="path1066" />
          <path
             id="path849"
             style="fill:#d7e3f4;stroke:#d7e3f4;stroke-width:0.37445;stroke-linejoin:round;stroke-miterlimit:4;stroke-dasharray:none;stroke-dashoffset:0"
             inkscape:transform-center-x="14.162947"
             inkscape:transform-center-y="-0.05165303"
             d="m -522.96187,27.869925 -0.77392,0.448718 c 0.57919,0.750671 0.9235,1.69251 0.9235,2.716938 0,1.037962 -0.35323,1.991297 -0.94635,2.746747 l 0.7766,0.446496 c 0.66751,-0.891228 1.06332,-1.996975 1.06332,-3.193243 0,-1.184019 -0.38799,-2.279221 -1.04315,-3.165656 z" />
          <path
             id="path958"
             style="fill:#d7e3f4;stroke:#d7e3f4;stroke-width:0.37445;stroke-linejoin:round;stroke-miterlimit:4;stroke-dasharray:none;stroke-dashoffset:0"
             inkscape:transform-center-x="14.162962"
             inkscape:transform-center-y="-0.05165597"
             d="m -520.57161,27.17739 -0.77163,0.44736 c 0.69304,0.958264 1.10145,2.136561 1.10145,3.412355 0,1.287604 -0.41603,2.476048 -1.12079,3.439196 l 0.77413,0.445056 c 0.78028,-1.09724 1.23948,-2.438036 1.23948,-3.884252 0,-1.435647 -0.45273,-2.767101 -1.22264,-3.859715 z" />
          <g
             id="g1127"
             transform="matrix(0.27640941,0,0,0.27640941,-386.46762,21.975246)">
            <path
               style="fill:#4d4d4d;stroke:#4d4d4d;stroke-width:0.0846667;filter:url(#filter1129)"
               d="m -513.51318,54.363228 c -1.50179,-0.176853 -3.64299,-1.091458 -5.08,-2.169898 -2.44387,-1.834073 -5.08489,-5.169716 -6.60291,-8.339574 -0.51825,-1.082178 -0.78378,-1.95386 -0.85856,-2.818433 -0.0426,-0.4926 -0.10593,-0.678437 -0.37507,-1.100666 -2.91564,-5.201386 3.99078,-5.594449 6.28244,-4.353879 0.22761,0.121812 0.95941,0.05747 1.85061,-0.162727 1.47259,-0.390412 3.0452,-0.17345 4.48733,-0.24964 3.44276,-0.714147 7.62913,-5.630731 10.81707,-3.098355 0.51026,0.554997 0.42204,1.183654 0.65017,1.743499 0.19136,0.457991 0.4798,1.928677 0.46966,2.394726 0.0413,0.366246 -0.22378,0.624548 -0.30071,0.93236 -0.0335,0.1397 -0.1707,0.533422 -0.30487,0.874938 -0.20388,0.518946 -0.24961,0.776226 -0.27837,1.566334 -0.0591,1.623658 -0.65855,3.8071 -1.73139,6.30656 -1.80552,4.206422 -3.96858,7.296039 -5.69107,8.128864 -0.81979,0.396373 -1.92864,0.511398 -3.33423,0.345875 z"
               id="path1121"
               sodipodi:nodetypes="ssssccccccccssssss" />
          </g>
          <g
             id="g843"
             transform="matrix(0.27640941,0,0,0.27640941,-386.49811,18.697811)">
            <path
               style="fill:#de8787;stroke:#de8787;stroke-width:0.0846667"
               d="m -513.51318,65.872368 c -1.50179,-0.176853 -3.64299,-1.091458 -5.08,-2.169898 -2.44387,-1.834073 -5.08489,-5.169716 -6.60291,-8.339574 -0.51825,-1.082178 -0.78378,-1.95386 -0.85856,-2.818433 -0.0426,-0.4926 -0.10593,-0.678437 -0.37507,-1.100666 -2.91564,-5.201386 3.99078,-5.594449 6.28244,-4.353879 0.22761,0.121812 0.95941,0.05747 1.85061,-0.162727 1.47259,-0.390412 3.0452,-0.17345 4.48733,-0.24964 3.44276,-0.714147 7.62913,-5.630731 10.81707,-3.098355 0.51026,0.554997 0.42204,1.183654 0.65017,1.743499 0.19136,0.457991 0.4798,1.928677 0.46966,2.394726 0.0413,0.366246 -0.22378,0.624548 -0.30071,0.93236 -0.0335,0.1397 -0.1707,0.533422 -0.30487,0.874938 -0.20388,0.518946 -0.24961,0.776226 -0.27837,1.566334 -0.0591,1.623658 -0.65855,3.8071 -1.73139,6.30656 -1.80552,4.206422 -3.96858,7.296039 -5.69107,8.128864 -0.81979,0.396373 -1.92864,0.511398 -3.33423,0.345875 z"
               id="path1062"
               sodipodi:nodetypes="ssssccccccccssssss" />
            <path
               style="fill:#ffffff;stroke:#ffffff;stroke-width:0.0846667"
               d="m -518.97418,62.813367 c 0,-0.0365 -0.15783,-0.274894 -0.35074,-0.529758 -0.55794,-0.737142 -0.76912,-1.284916 -0.81515,-2.114388 -0.0439,-0.790555 -0.0708,-0.865104 -0.53544,-1.481667 -0.36014,-0.477898 -1.23619,-1.99395 -1.31312,-2.272428 -0.0278,-0.100597 -0.26579,-0.602005 -0.52888,-1.114238 -0.64118,-1.248384 -0.73234,-1.237845 -0.73234,0.08467 0,0.5588 0.0268,1.22555 0.0596,1.481667 0.0556,0.434175 0.0485,0.422723 -0.10444,-0.169333 -0.2324,-0.899485 -0.23416,-2.053134 -0.004,-2.943386 0.0993,-0.384846 0.21931,-1.089696 0.2667,-1.566333 0.14193,-1.42732 0.24201,-2.806094 0.20627,-2.841834 l 0.97878,-0.554243 c -0.43231,0.389396 -0.64577,0.871281 -0.73529,1.65989 -0.0428,0.37674 -0.0285,0.495308 0.0641,0.530818 0.13558,0.05203 3.29478,-1.398308 4.13393,-1.897819 0.38142,-0.227048 0.79037,-0.593173 1.31549,-1.177745 0.4191,-0.466551 0.79316,-0.851216 0.83126,-0.854812 0.0836,-0.0079 -0.19275,0.398532 -0.64396,0.946924 -0.45176,0.549071 -0.38734,0.714895 0.18941,0.487559 0.51579,-0.203303 1.42866,-0.659419 2.03338,-1.015975 0.81562,-0.480908 0.53723,-0.197364 -0.44712,0.455387 -0.53332,0.353659 -1.52814,0.908626 -2.21072,1.233259 -2.14841,1.02178 -2.64392,1.561726 -1.88782,2.057141 0.24906,0.163192 1.27962,0.485833 1.55182,0.485833 0.11151,0 0.20275,0.04301 0.20275,0.09557 0,0.248008 -1.50475,-0.166722 -2.04532,-0.563717 -0.75302,-0.553028 -1.13103,-0.582944 -1.94713,-0.154097 -0.95548,0.502096 -1.34155,1.092882 -1.34155,2.052949 0,0.428168 0.17864,1.017021 0.31318,1.032351 0.0373,0.0043 0.35684,0.01378 0.71008,0.02117 0.55866,0.01169 0.68835,0.04538 0.99637,0.25885 0.44281,0.306889 0.41295,0.3562 -0.0708,0.116872 -0.4168,-0.206219 -1.03604,-0.240111 -1.34404,-0.07356 -0.26973,0.145859 -0.22247,0.339118 0.38468,1.573089 0.74653,1.517238 1.78779,2.635783 3.14756,3.381153 0.33224,0.182122 0.5921,0.343105 0.57747,0.357741 -0.0146,0.01463 -0.28931,-0.04852 -0.61038,-0.140334 -0.36788,-0.105205 -0.61346,-0.137256 -0.66404,-0.08667 -0.0876,0.08763 0.42476,0.703782 1.67308,2.011907 0.41407,0.433903 0.73498,0.80678 0.71315,0.828615 -0.0218,0.02184 -0.43208,-0.312483 -0.91165,-0.74293 -1.32293,-1.18741 -1.89394,-1.671629 -1.97124,-1.671629 -0.437,0 0.37599,1.838794 0.95344,2.552549 0.79069,0.637822 -0.0873,0.260932 -0.0873,0.260932 z"
               id="path1058"
               sodipodi:nodetypes="csssssssscsccsssssssssssssssssssssssssssssscc" />
            <path
               style="fill:#ffffff;stroke:#ffffff;stroke-width:0.0846667"
               d="m -508.51706,55.380578 c -0.0703,0.09039 -0.1278,0.21365 -0.1278,0.273907 0,0.227598 -0.52645,1.681153 -0.92427,2.551962 -0.4335,0.948892 -0.63551,1.57099 -0.72403,2.229699 -0.0524,0.390196 -0.0495,0.396221 0.31085,0.637803 0.35529,0.238189 0.36437,0.255953 0.38874,0.760555 0.0185,0.383338 0.0677,0.555332 0.1905,0.666486 0.091,0.0824 0.16555,0.182011 0.16555,0.221361 0,0.143691 -0.26707,0.06618 -0.46952,-0.136274 -0.17045,-0.170447 -0.20782,-0.291859 -0.20782,-0.675159 0,-0.42429 -0.0215,-0.478441 -0.23303,-0.587847 -0.33302,-0.172213 -0.51056,-0.396377 -0.54305,-0.685697 -0.0273,-0.242801 -0.0408,-0.23217 -0.39094,0.306616 -0.5246,0.807314 -0.68208,1.665641 -0.54545,2.973034 0.0547,0.523162 0.12207,1.046455 0.14977,1.162871 0.0466,0.196117 0.0426,0.199429 -0.0547,0.04508 -0.15757,-0.249974 -0.41327,-1.293305 -0.42465,-1.732685 -0.006,-0.2127 -0.0343,-0.499909 -0.0639,-0.638244 l -0.0539,-0.251518 -0.3946,0.547851 c -0.21702,0.301318 -0.65499,0.798443 -0.97326,1.104721 -1.50607,1.449331 -2.06463,1.721603 -0.89847,0.437964 1.57473,-1.733371 2.23003,-2.684522 3.51449,-5.101167 0.4819,-0.906668 0.9253,-1.944954 0.89357,-2.09246 -0.0159,-0.07377 -0.20013,0.01952 -0.53226,0.269471 -0.60351,0.454179 -1.38031,0.868169 -2.22042,1.183358 -0.81362,0.305246 -1.02839,0.248746 -0.37117,-0.09764 1.54967,-0.816764 2.93339,-1.962655 3.37606,-2.795803 0.32086,-0.603891 0.54626,-1.623019 0.55988,-2.53144 0.01,-0.669028 10e-4,-0.701567 -0.32078,-1.168941 -0.38101,-0.553226 -0.90224,-1.035547 -1.52197,-1.40836 -0.58244,-0.350379 -0.21531,-0.270158 0.85355,0.186509 0.4393,0.18769 0.854,0.320044 0.92156,0.294119 0.2253,-0.08645 0.26883,-0.423129 0.19824,-1.533141 1.94527,-0.391876 -0.0382,6.969179 0.47323,5.583009 z m 0.21191,-5.355204 c 0.0596,1.034332 0.0787,2.247398 0.0448,2.842868 l -0.0591,1.03868 c -0.32541,1.747563 -1.09789,-4.852681 0.0143,-3.881548 z"
               id="path1056"
               sodipodi:nodetypes="cssssssssssssssscscsssssssssssssscccscc" />
          </g>
        </g>
      </g>
    </g>
  </g>
</svg>
